<?xml version="1.0" encoding="UTF-8"?>
<svg width="47px" height="47px" viewBox="0 0 47 47" version="1.1" xmlns="http://www.w3.org/2000/svg" xmlns:xlink="http://www.w3.org/1999/xlink">
    <!-- Generator: Sketch 52.2 (67145) - http://www.bohemiancoding.com/sketch -->
    <title>001-help</title>
    <desc>Created with Sketch.</desc>
    <g id="Page-1" stroke="none" stroke-width="1" fill="none" fill-rule="evenodd">
        <g id="HOME-Revised-Copy-3" transform="translate(-126.000000, -436.000000)" fill="#FF4437">
            <g id="Group-2" transform="translate(36.000000, 420.000000)">
                <g id="001-help" transform="translate(90.000000, 16.000000)">
                    <path d="M9.39130435,46.125 L1.83423913,46.125 C0.821188859,46.125 5.40630342e-15,45.318353 5.40630342e-15,44.3232422 L5.40630342e-15,23.0625 C5.40630342e-15,10.3147932 10.5024864,5.32907052e-15 23.4782609,5.32907052e-15 C36.4557779,5.32907052e-15 46.9565217,10.3165049 46.9565217,23.0625 C46.9565217,35.8102068 36.4539436,46.125 23.4782609,46.125 L19.9565217,46.125 C19.173913,45.5200169 18.7826087,44.9150338 18.7826087,44.3100506 C18.7826087,43.7897115 19.0720771,43.1935227 19.6510139,42.5214844 L23.4782609,42.5214844 C34.4280265,42.5214844 43.2880435,33.8169221 43.2880435,23.0625 C43.2880435,12.3066365 34.4265591,3.60351563 23.4782609,3.60351563 C12.5284952,3.60351563 3.66847826,12.3080779 3.66847826,23.0625 L3.66847826,42.5214844 L9.72893238,42.5214844 C10.2864557,43.123947 10.5652174,43.7264096 10.5652174,44.3288722 C10.5652174,45.042663 10.173913,45.6413722 9.39130435,46.125 Z" id="Combined-Shape" fill-rule="nonzero"></path>
                    <ellipse id="Oval" cx="14.8206522" cy="44.578125" rx="1.9076087" ry="1.828125"></ellipse>
                    <path d="M19.9565217,31.2430362 C19.9565217,30.5536177 20.1864107,29.9634426 20.6461957,29.472493 C21.1059806,28.9815435 21.6586924,28.7360724 22.3043478,28.7360724 C22.9500032,28.7360724 23.5027151,28.9815435 23.9625,29.472493 C24.4222849,29.9634426 24.6521739,30.5536177 24.6521739,31.2430362 C24.6521739,31.9324547 24.4222849,32.5226299 23.9625,33.0135794 C23.5027151,33.5045289 22.9500032,33.75 22.3043478,33.75 C21.6586924,33.75 21.1059806,33.5045289 20.6461957,33.0135794 C20.1864107,32.5226299 19.9565217,31.9324547 19.9565217,31.2430362 Z M24.1826087,25.2263231 C24.1630434,25.7695013 23.9967407,26.1716561 23.6836957,26.4327994 C23.3706506,26.6939428 22.9304376,26.8245125 22.3630435,26.8245125 C21.1695592,26.8245125 20.5434786,26.2813425 20.4847826,25.1949861 L20.0445652,16.7966574 L20.0445652,12.9735376 C20.0445652,12.4094679 20.2646717,11.9811992 20.7048913,11.6887187 C21.1451109,11.3962381 21.7076053,11.25 22.3923913,11.25 C23.0184814,11.25 23.5418457,11.3962381 23.9625,11.6887187 C24.3831543,11.9811992 24.5934783,12.4199135 24.5934783,13.0048747 L24.5934783,16.7966574 L24.1826087,25.2263231 Z" id="!" fill-rule="nonzero"></path>
                </g>
            </g>
        </g>
    </g>
</svg>