<?xml version="1.0" encoding="UTF-8"?>
<svg width="34px" height="26px" viewBox="0 0 34 26" version="1.1" xmlns="http://www.w3.org/2000/svg" xmlns:xlink="http://www.w3.org/1999/xlink">
    <!-- Generator: Sketch 52.2 (67145) - http://www.bohemiancoding.com/sketch -->
    <title>Path</title>
    <desc>Created with Sketch.</desc>
    <g id="Page-1" stroke="none" stroke-width="1" fill="none" fill-rule="evenodd">
        <g id="HOME-Revised-Copy-3" transform="translate(-29.000000, -26.000000)" fill="#FFFFFF" fill-rule="nonzero" stroke="#FFFFFF">
            <g id="Top-Branding">
                <g id="right-arrow" transform="translate(45.875000, 39.000000) scale(-1, 1) translate(-45.875000, -39.000000) translate(29.875000, 27.000000)">
                    <path d="M20.5892578,0.325712522 C20.1210937,-0.123759131 19.3787109,-0.106040143 18.9328125,0.366466194 C18.4863281,0.838972531 18.5050781,1.58671381 18.9732422,2.0367761 L27.9626953,10.6310757 L1.171875,10.6310757 C0.525,10.6310757 5.1159077e-13,11.1602828 5.1159077e-13,11.8123416 C5.1159077e-13,12.4644003 0.525,12.9936074 1.171875,12.9936074 L27.9251953,12.9936074 L18.9732422,21.5884977 C18.5044922,22.03856 18.4863281,22.7863013 18.9328125,23.2588076 C19.1630859,23.5021484 19.471875,23.625 19.78125,23.625 C20.071875,23.625 20.3625,23.5169142 20.5892578,23.2989706 L30.8132812,13.4826515 C31.25625,13.0367236 31.5,12.4437282 31.5,11.8123416 C31.5,11.180955 31.25625,10.5879595 30.7927734,10.1219502 L20.5892578,0.325712522 Z" id="Path"></path>
                </g>
            </g>
        </g>
    </g>
</svg>