<svg xmlns="http://www.w3.org/2000/svg" width="67.634" height="64.603" viewBox="0 0 67.634 64.603">
  <g id="award" transform="translate(0 -10.588)">
    <g id="Group_108" data-name="Group 108" transform="translate(0 10.589)">
      <path id="Path_97" data-name="Path 97" d="M62.027,17.424a9.309,9.309,0,0,0-3.454-.661H55.045V13.088a2.478,2.478,0,0,0-2.5-2.5H15.139a2.478,2.478,0,0,0-2.5,2.5v3.675H9.113A8.987,8.987,0,0,0,0,25.728a9.986,9.986,0,0,0,.661,3.528l.588,1.4a14.605,14.605,0,0,0,11.538,8.892A20.494,20.494,0,0,0,31.307,57.48V70.191H23.37a2.5,2.5,0,0,0,0,5H44.315a2.5,2.5,0,1,0,0-5H36.3V57.477A20.494,20.494,0,0,0,54.82,39.545a14.749,14.749,0,0,0,11.538-8.892l.588-1.4A9.057,9.057,0,0,0,62.027,17.424ZM12.641,34.4A9.836,9.836,0,0,1,5.88,28.668l-.588-1.4a4.1,4.1,0,0,1,.367-3.9,4.036,4.036,0,0,1,3.454-1.837h3.528Zm49.68-7.055-.588,1.4a9.664,9.664,0,0,1-6.761,5.732V21.539H58.5a4.109,4.109,0,0,1,4.116,4.116,4.312,4.312,0,0,1-.295,1.69Z" transform="translate(0 -10.589)" fill="#b2b2b2"/>
    </g>
  </g>
</svg>
