<svg xmlns="http://www.w3.org/2000/svg" xmlns:xlink="http://www.w3.org/1999/xlink" width="32" height="39" xmlns:v="https://vecta.io/nano"><defs><path id="A" d="M.124.01h3.71V6.99H.124z"/></defs><g transform="matrix(.965926 .258819 -.258819 .965926 2.092741 -3.224259)" fill="none" fill-rule="evenodd"><path d="M25.555 17.842h0c-.283-.864-.69-1.682-1.206-2.43l-.552-.723a9.47 9.47 0 0 0-2.874-2.299 9.59 9.59 0 0 0-1.786-.709c-.62-.177-1.255-.29-1.892-.34-.62-.048-1.25-.035-1.87.04-.607.073-1.21.206-1.794.395l-.853.322a9.54 9.54 0 0 0-2.319 1.426c-1.455 1.21-2.5 2.813-3.026 4.633a9.07 9.07 0 0 0-.199.844l-.056.354-.02.145-.037.29-.044.67-.001.028c-.045 1.508.282 3.022.945 4.382.733 1.768.98 3.3.76 4.678l-.137 1.237c-.254.207-.45.5-.547.827-.064.22-.08.443-.053.657-.14.17-.243.37-.307.588a1.65 1.65 0 0 0 .075 1.121 4.83 4.83 0 0 0 .91 3.37l.236.297c.174.202.354.38.538.534l.025.02.29.225.034.024a4.84 4.84 0 0 0 .643.378l.042.02.318.137.074.028.352.116.36.087.066.013.36.054.053.005.476.024.27-.007.033-.002.367-.038.023-.003a4.87 4.87 0 0 0 .729-.165l.022-.007a4.89 4.89 0 0 0 2.938-2.533 1.66 1.66 0 0 0 .628-.889c.064-.22.08-.443.053-.657a1.66 1.66 0 0 0 .307-.589c.095-.33.082-.667-.018-.97l.016-.056c.187-.343.36-.7.522-1.082.548-1.286 1.574-2.452 3.14-3.566a9.48 9.48 0 0 0 3.141-3.221h0l.002-.004.326-.6.128-.273.06-.133.14-.328.283-.824a9.35 9.35 0 0 0-.095-5.523" fill="#000"/><path d="M24.224 16.756c-.24-.73-.582-1.424-1.017-2.057l-.465-.612c-.33-.393-.7-.756-1.103-1.082a7.94 7.94 0 0 0-1.316-.861 8.05 8.05 0 0 0-1.505-.6c-.53-.152-1.065-.247-1.595-.288a7.95 7.95 0 0 0-1.572.034 8 8 0 0 0-1.51.334l-.72.272c-.705.306-1.364.712-1.955 1.206a7.95 7.95 0 0 0-2.548 3.916c-.068.238-.122.476-.167.714l-.056.368-.04.3-.037.566v.02c-.04 1.316.25 2.595.813 3.74.713 1.715 1.152 3.554.854 5.417-.064.4-.107.792-.126 1.195l.02.006-.237.826-.026-.007c-.146-.042-.3.042-.34.19s.043.298.19.34l.026.007-.203.705-.026-.007c-.146-.042-.3.042-.34.188s.043.3.19.34l.028.008a3.45 3.45 0 0 0 .546 2.916l.166.2c.122.142.247.266.383.38l.215.168.024.017a3.33 3.33 0 0 0 .442.262l.037.018.228.098.044.017.246.082.253.06.046.01.246.037.04.004c.173.017.345.02.516.01l.028-.001.256-.026c.193-.03.367-.068.536-.12a3.46 3.46 0 0 0 2.269-2.275l.008.002c.147.042.3-.042.34-.188s-.043-.298-.19-.34l-.007-.002.203-.705.007.002c.146.042.3-.043.34-.19s-.043-.298-.19-.34l-.007-.002.238-.826c.198-.352.37-.708.528-1.08.737-1.737 2.086-3.065 3.602-4.142 1.086-.673 2.01-1.606 2.677-2.742l.01-.017.27-.5.126-.275.148-.342.238-.694c.457-1.6.397-3.206-.08-4.668" fill="#fff"/><path d="M24.224 16.756c-.24-.73-.582-1.424-1.017-2.057l-.465-.612c-.33-.393-.7-.756-1.103-1.082a7.94 7.94 0 0 0-1.316-.861 8.05 8.05 0 0 0-1.505-.6c-.53-.152-1.065-.247-1.595-.288a7.95 7.95 0 0 0-1.572.034 8 8 0 0 0-1.51.334l-.72.272c-.705.306-1.364.712-1.955 1.206a7.95 7.95 0 0 0-2.548 3.916c-.068.238-.122.476-.167.714l-.056.368-.04.3-.037.566v.02c-.04 1.316.25 2.595.813 3.74.713 1.715 1.152 3.554.854 5.417-.064.4-.107.792-.126 1.195l.02.006-.237.826-.026-.007c-.146-.042-.3.042-.34.19s.043.298.19.34l.026.007-.203.705-.026-.007c-.146-.042-.3.042-.34.188s.043.3.19.34l.028.008a3.45 3.45 0 0 0 .546 2.916l.166.2c.122.142.247.266.383.38l.215.168.024.017a3.33 3.33 0 0 0 .442.262l.037.018.228.098.044.017.246.082.253.06.046.01.246.037.04.004c.173.017.345.02.516.01l.028-.001.256-.026c.193-.03.367-.068.536-.12a3.46 3.46 0 0 0 2.269-2.275l.008.002c.147.042.3-.042.34-.188s-.043-.298-.19-.34l-.007-.002.203-.705.007.002c.146.042.3-.043.34-.19s-.043-.298-.19-.34l-.007-.002.238-.826c.198-.352.37-.708.528-1.08.737-1.737 2.086-3.065 3.602-4.142 1.086-.673 2.01-1.606 2.677-2.742l.01-.017.27-.5.126-.275.148-.342.238-.694c.457-1.6.397-3.206-.08-4.668z" stroke="#fff" stroke-width="2.444" stroke-linejoin="round"/><path d="M15.908 31.54l-.687 2.56c-.496 1.847-2.292 2.932-3.993 2.41s-2.687-2.46-2.192-4.308l.687-2.56 6.185 1.9z" fill="#1263a1"/><path d="M22.864 23.347l.01-.018.27-.5.126-.275.148-.342.238-.695a7.95 7.95 0 0 0-.08-4.672c-.24-.732-.582-1.426-1.017-2.06l-.465-.612c-.33-.393-.7-.756-1.103-1.083a7.94 7.94 0 0 0-1.315-.861c-.47-.246-.974-.448-1.505-.6s-1.065-.247-1.595-.288a7.94 7.94 0 0 0-1.572.034c-.516.062-1.022.175-1.5.334l-.72.273c-.705.306-1.364.713-1.955 1.207-1.182.99-2.09 2.328-2.548 3.92a7.72 7.72 0 0 0-.167.715l-.056.368-.04.3-.037.566v.02a7.95 7.95 0 0 0 .813 3.745c.713 1.717 1.152 3.558.854 5.422-.064.4-.107.793-.126 1.196l6.544 1.875c.198-.352.37-.71.528-1.08.737-1.74 2.086-3.068 3.602-4.146a7.96 7.96 0 0 0 2.677-2.745" fill="#ffcf00"/><g stroke-width=".5"><path d="M14.662 30.94c.366-2 .96-4.136 2.574-5.383-.663-.047-1.284-.478-1.557-1.08a1.88 1.88 0 0 1-.015-1.474c.124-.298.6-.905.758-.253.13.524-.09 1.214-.385 1.65-.314.462-.9.8-1.438.63l-.163-.046c-.54-.15-.862-.736-.883-1.294-.02-.525.164-1.225.552-1.602.482-.468.562.297.508.615-.084.497-.376.96-.798 1.242a1.9 1.9 0 0 1-1.896.095c.706 1.91.07 4.032-.685 5.922" stroke="#fff"/><path d="M9.486 30.435l7 2M8.78 31.66l7 2" stroke="#025383" stroke-linecap="round"/></g><path d="M9.477 34.963c.43.425 1.05.753 1.8.907s1.52.11 2.2-.086l-2.045-.327-1.955-.493" fill="#065382"/><path d="M22.655 19.743c-.13 1.376-1.125 2.4-2.22 2.3s-1.88-1.318-1.75-2.694 1.125-2.4 2.22-2.3 1.88 1.318 1.75 2.694m-3.135-4.456c.015.552-.197 1.016-.472 1.036s-.5-.4-.526-.963.197-1.016.472-1.036.5.4.526.963" fill="#fff"/><g fill="#000"><path d="M2.916 7.5a1.53 1.53 0 0 0-1.973.873 1.52 1.52 0 0 0 .876 1.966l5.647 2.166-3.94-4.575a1.61 1.61 0 0 0-.6-.43m9.366-5.17a1.53 1.53 0 0 0-2.095-.52 1.52 1.52 0 0 0-.522 2.087l3.118 5.167-.284-6.022c-.012-.24-.083-.5-.217-.712m19.915 25.22l-5.655-2.146 3.956 4.56a1.56 1.56 0 0 0 .612.427 1.53 1.53 0 0 0 1.97-.88 1.52 1.52 0 0 0-.883-1.963m3.323-9.135a1.53 1.53 0 0 0-1.908-1.007l-5.784 1.77 5.935 1.175c.238.046.498.038.746-.038a1.52 1.52 0 0 0 1.011-1.901"/><path d="M21.608 1.622c-.84-.088-1.6.52-1.678 1.354L19.3 8.97l3.4-4.98a1.54 1.54 0 0 0 .257-.699 1.52 1.52 0 0 0-1.36-1.67m9.785 8.558a1.52 1.52 0 0 0-.115-2.148 1.53 1.53 0 0 0-2.156.115l-4.045 4.484 5.696-2.036a1.55 1.55 0 0 0 .62-.415"/></g><path d="M3.343 7.532l4.162 4.48L1.54 9.89C.708 9.596.294 8.734.614 7.967s1.254-1.15 2.085-.855a1.64 1.64 0 0 1 .645.42" fill="#fff"/><path d="M3.306 8.01l3.183 2.874-3.75-2.1c-.235-.13-.32-.427-.187-.66a.49.49 0 0 1 .665-.186.52.52 0 0 1 .09.064" fill="#1064a2"/><g transform="translate(9.44 .914)"><mask id="B" fill="#fff"><use xlink:href="#A"/></mask><path d="M3.517 1.365l.315 5.624L.367 2.163C-.116 1.49.144.618.947.214S2.793.027 3.276.7c.15.207.227.44.24.665" fill="#fff" mask="url(#B)"/></g><path d="M11.578 2.35l.862 4.563-1.955-4.27c-.123-.268.015-.576.306-.69s.628.013.75.28c.017.037.03.077.036.114" fill="#1064a2"/><path d="M30.208 29.5l-4.172-4.482L32 27.126c.83.294 1.248 1.157.93 1.928s-1.246 1.16-2.077.865c-.256-.09-.477-.24-.645-.42" fill="#fff"/><path d="M31.22 28.766L28.02 25.89l3.744 2.06a.51.51 0 0 1 .199.675c-.125.243-.417.336-.652.206-.032-.018-.063-.04-.1-.064" fill="#1064a2"/><path d="M33.672 19.132l-6.12-1.16 5.963-1.747c.83-.243 1.712.2 1.967.993s-.21 1.63-1.042 1.874a1.67 1.67 0 0 1-.769.037" fill="#fff"/><path d="M33.294 19.255l-4.465-.232 4.404-.76c.276-.048.54.134.588.406a.5.5 0 0 1-.413.579.54.54 0 0 1-.114.007" fill="#1064a2"/><path d="M22.62 3.745l-3.71 4.737.687-5.704c.096-.795.913-1.37 1.825-1.288s1.575.795 1.48 1.6c-.03.245-.132.474-.28.665" fill="#fff"/><path d="M21.856 3.267L19.91 7.483l1.046-4.594c.066-.288.33-.463.59-.4s.416.366.35.654c-.01.04-.023.08-.04.114" fill="#1064a2"/><path d="M30.22 9.814l-5.945 2.04 4.22-4.494c.588-.626 1.596-.678 2.25-.115s.708 1.527.12 2.153a1.62 1.62 0 0 1-.647.416" fill="#fff"/><path d="M29.997 8.692l-3.74 2.033 3.22-2.88c.202-.18.502-.152.67.065s.14.54-.06.72a.5.5 0 0 1-.09.063" fill="#1064a2"/></g></svg>