<svg xmlns="http://www.w3.org/2000/svg" width="448.768" height="194.053" viewBox="0 0 448.768 194.053">
  <g id="Group_127" data-name="Group 127" transform="translate(-752.814 -1857)">
    <g id="grey-bg-cpncrd" transform="translate(840.166 1857)">
      <path id="Path_102" data-name="Path 102" d="M393.416,80.376a6.7,6.7,0,0,0,4.792-6.483V9.661A9.138,9.138,0,0,0,389.056.54H50.17A13.357,13.357,0,0,1,36.794,13.876V29.751a3.167,3.167,0,1,1,0,6.333V55.52a3.167,3.167,0,1,1,0,6.333V81.289a3.167,3.167,0,1,1,0,6.333v19.436a3.167,3.167,0,1,1,0,6.333v19.436a3.167,3.167,0,1,1,0,6.333V158.6a3.167,3.167,0,1,1,0,6.333v15.875A13.356,13.356,0,0,1,50.17,194.141H389.058a9.138,9.138,0,0,0,9.152-9.124V120.8a6.693,6.693,0,0,0-4.792-6.483,17.614,17.614,0,0,1,0-33.935Z" transform="translate(-36.794 -0.54)"/>
      <path id="Path_103" data-name="Path 103" d="M393.416,80.376a6.7,6.7,0,0,0,4.792-6.483V9.661A9.138,9.138,0,0,0,389.056.54H50.17A13.357,13.357,0,0,1,36.794,13.876V29.751a3.167,3.167,0,1,1,0,6.333V55.52a3.167,3.167,0,1,1,0,6.333V81.289a3.167,3.167,0,1,1,0,6.333v19.436a3.167,3.167,0,1,1,0,6.333v19.436a3.167,3.167,0,1,1,0,6.333V158.6a3.167,3.167,0,1,1,0,6.333v15.875A13.356,13.356,0,0,1,50.17,194.141H389.058a9.138,9.138,0,0,0,9.152-9.124V120.8a6.693,6.693,0,0,0-4.792-6.483,17.614,17.614,0,0,1,0-33.935Z" transform="translate(-36.794 -0.54)" fill="#f6f6f6"/>
    </g>
    <g id="red-bg-cpncrd" transform="translate(752.814 1857.436)">
      <path id="Path_104" data-name="Path 104" d="M83.251,161.61a3.171,3.171,0,0,1,3.178-3.167V139.007a3.167,3.167,0,1,1,0-6.333V113.238a3.167,3.167,0,1,1,0-6.333V87.469a3.167,3.167,0,1,1,0-6.333V61.7a3.167,3.167,0,1,1,0-6.333V35.93a3.167,3.167,0,1,1,0-6.333V13.708A13.354,13.354,0,0,1,73.056.37H18.544A5.578,5.578,0,0,0,13.2,4.5,25.375,25.375,0,0,1,0,20.285V174.074a25.359,25.359,0,0,1,13.2,15.779,5.581,5.581,0,0,0,5.344,4.134h54.51a13.357,13.357,0,0,1,13.376-13.336V164.777a3.171,3.171,0,0,1-3.178-3.167" transform="translate(0 -0.37)" fill="#f86d70" fill-rule="evenodd"/>
    </g>
  </g>
</svg>
