<svg xmlns="http://www.w3.org/2000/svg" width="17" height="18" fill="#f11f24" xmlns:v="https://vecta.io/nano"><path d="M12.098 3.303H1.815C.812 3.303 0 4.116 0 5.118V15.4c0 1.002.812 1.815 1.815 1.815h10.283c1.002 0 1.815-.812 1.815-1.815V5.118c0-1.002-.812-1.815-1.815-1.815zm.605 12.098c0 .334-.27.605-.605.605H1.815c-.334 0-.605-.27-.605-.605V5.118c0-.334.27-.605.605-.605h10.283c.334 0 .605.27.605.605V15.4zM15.122.28H4.234c-1.002 0-1.814.8-1.814 1.814 0 .334.27.605.605.605s.605-.27.605-.605.27-.605.605-.605h10.888c.334 0 .605.27.605.605V12.98c0 .334-.27.605-.605.605s-.605.27-.605.605.27.605.605.605c1.002 0 1.815-.812 1.815-1.815V2.094c0-1.002-.812-1.815-1.815-1.815z"/></svg>