<svg xmlns="http://www.w3.org/2000/svg" width="29" height="36" xmlns:v="https://vecta.io/nano"><path d="M27.475 17.767a.52.52 0 0 1-.515-.525v-1.417H20.9v7.04h6.06V19.48a.52.52 0 0 1 .515-.525.52.52 0 0 1 .515.525v15.435h.38a.52.52 0 0 1 .515.525.52.52 0 0 1-.515.525H.72a.52.52 0 0 1-.515-.525.52.52 0 0 1 .515-.525h.4v-5.51a.52.52 0 0 1 .515-.525.52.52 0 0 1 .515.525v5.51h5.914v-8.783H2.15v1.033a.52.52 0 0 1-.515.525.52.52 0 0 1-.515-.525v-11.55a.76.76 0 0 1-.167-.239L.078 13.4c-.105-.237-.085-.51.054-.728s.374-.35.63-.35h.36v-1.518c0-.682.545-1.237 1.214-1.237h.103V8.048c0-.682.545-1.237 1.214-1.237h.444V4.09c0-.777.62-1.41 1.382-1.41h2.587v-.99c0-.56.447-1.015.996-1.015h2.677L12.115.3c.183-.187.427-.3.686-.3h3.364c.26 0 .503.103.686.3l.376.384h2.677c.55 0 .996.455.996 1.015v.99h2.587c.762 0 1.382.632 1.382 1.41V6.81h.444c.67 0 1.214.555 1.214 1.237v1.518h.103c.67 0 1.214.555 1.214 1.237v1.518h.36c.255 0 .5.13.63.35s.16.49.054.728l-.874 1.976-.023.048v1.82a.52.52 0 0 1-.515.525zM1.818 14.774h0 25.308l.038-.032.606-1.37H1.198l.62 1.402zm.333 8.09h5.914v-7.04H2.15v7.04zm6.945-21.14v.956H19.87v-.956h-2.856a.51.51 0 0 1-.364-.154l-.51-.52h-3.314l-.51.52a.51.51 0 0 1-.364.154H9.096zM5.127 4.09h0V6.81H9.74V5.7c0-.527.42-.956.938-.956H18.3c.517 0 .938.43.938.956v1.1h4.612V4.09c0-.198-.158-.358-.352-.358h-18c-.194 0-.352.16-.352.358zM10.77 6.81h7.428V5.796H10.77V6.81zm-7.3 1.237v1.518h22.03V8.048c0-.103-.082-.187-.183-.187H3.65c-.1 0-.183.084-.183.187zM2.15 10.804v1.518h24.665v-1.518c0-.103-.082-.187-.183-.187H2.334c-.1 0-.183.084-.183.187zm0 13.1v1.168h7.976v-1.168H2.15zm6.945 2.218v8.783h1.03v-8.783h-1.03zm9.744 0v8.783h1.03v-8.783h-1.03zm2.062 8.783h6.06v-8.783H20.9v8.783zm6.06-9.833v-1.168h-8.12v1.168h8.12zm-7.09-2.218v-7.04H9.096v7.04h1.03v-.588c0-2.448 1.954-4.44 4.356-4.44.62 0 1.22.13 1.785.4a.53.53 0 0 1 .259.695.51.51 0 0 1-.682.263c-.43-.198-.89-.298-1.362-.298-1.834 0-3.326 1.52-3.326 3.39v12.64h6.65v-12.64a3.43 3.43 0 0 0-.495-1.779.53.53 0 0 1 .167-.723.51.51 0 0 1 .709.171c.425.7.65 1.506.65 2.332v.588h1.03zM5.15 17.07c1.157 0 2.1.96 2.1 2.14s-.94 2.14-2.1 2.14-2.1-.96-2.1-2.14.94-2.14 2.1-2.14zm0 3.227a1.08 1.08 0 0 0 1.068-1.088 1.08 1.08 0 0 0-1.068-1.088 1.08 1.08 0 0 0-1.068 1.088 1.08 1.08 0 0 0 1.068 1.088zm16.57-1.088c0-1.18.94-2.14 2.1-2.14s2.1.96 2.1 2.14-.94 2.14-2.1 2.14-2.1-.96-2.1-2.14zm3.166 0a1.08 1.08 0 0 0-1.068-1.088 1.08 1.08 0 0 0-1.068 1.088 1.08 1.08 0 0 0 1.068 1.088 1.08 1.08 0 0 0 1.068-1.088z" fill="#fff"/></svg>