<svg xmlns="http://www.w3.org/2000/svg" xmlns:xlink="http://www.w3.org/1999/xlink" width="52" height="52" xmlns:v="https://vecta.io/nano"><defs><filter x="-9.4%" y="-9.4%" width="118.8%" height="118.8%" id="A"><feOffset dy="-1" in="SourceAlpha"/><feGaussianBlur stdDeviation="1"/><feColorMatrix values="0 0 0 0 0 0 0 0 0 0 0 0 0 0 0 0 0 0 0.5 0" result="C"/><feMerge><feMergeNode in="C"/><feMergeNode in="SourceGraphic"/></feMerge></filter><path id="B" d="M30.34 13.416l-1.236 2.336c-.293.555.073 1.248.66 1.248h2.473c.587 0 .954-.693.66-1.248l-1.236-2.336a.73.73 0 0 0-1.321 0z"/><path id="C" d="M32.5 24h-4c-.276 0-.5-.197-.5-.44v-2.12c0-.243.224-.44.5-.44h4c.276 0 .5.197.5.44v2.12c0 .243-.224.44-.5.44z"/></defs><g filter="url(#A)" transform="translate(2 3)" fill-rule="evenodd"><path d="M36.508 38L37 36.388V1.896A.89.89 0 0 0 36.117 1H12.883a.89.89 0 0 0-.883.896v34.492L12.492 38h24.016z" fill="#407093"/><path d="M12 36v6.117c0 .487.395.883.883.883h23.234c.488 0 .883-.395.883-.883V36H12z" fill="#dae7ef"/><path d="M35.187 1H33v37h2.547L36 36.388V1.896C36 1.4 35.636 1 35.187 1z" fill="#2b4d66"/><path d="M33.744 36v2.862c0 .487-.395.883-.883.883H12v2.373c0 .487.395.883.883.883h23.234c.488 0 .883-.395.883-.883V36h-3.256 0z" fill="#c1d5e4"/><path d="M35.408 44H12.592C11.714 44 11 43.262 11 42.355v-40.7C11 .738 11.714 0 12.592 0h22.817C36.286 0 37 .738 37 1.645v40.7c0 .907-.714 1.645-1.592 1.645zM12.592 1.498c-.08 0-.142.066-.142.147v40.7c0 .08.064.147.142.147h22.817c.08 0 .142-.066.142-.147v-40.7c0-.08-.064-.147-.142-.147H12.592z" fill="#98b9d3" fill-rule="nonzero"/><path d="M47.743 38.384c-.03-.196-.074-.39-.125-.583l-2.9-11.002c-.218-.827-.62-1.593-1.175-2.242a5.67 5.67 0 0 1-.869-1.375L38.04 12.805c-.155-.347-.405-.62-.704-.805v10.083l.52 1.667c.09.286.135.584.134.883l-.008 4.887c-.002 1.2-.966 2.154-2.154 2.154h-.01c-.683-.006-1.326-.323-1.748-.862l-1.863-2.383c-.627-.81-1.633-1.313-2.657-1.316-.75-.01-1.51.227-2.15.727a1.05 1.05 0 0 0-.18 1.47l4.653 5.96a1.91 1.91 0 0 1 .394 1.176 3.88 3.88 0 0 0 3.037 3.779l2.022.45a.44.44 0 0 1 .344.43v6.024a.87.87 0 0 0 .871.872l8.587-.017a.87.87 0 0 0 .871-.872v-5.474a20.69 20.69 0 0 0-.257-3.252z" fill="#eaac9d"/><g fill="#dd5790"><circle cx="17" cy="9" r="2"/><circle cx="31" cy="9" r="2"/><circle cx="17" cy="16" r="2"/><circle cx="24" cy="22" r="2"/></g><g fill="#f6e266"><path d="M23.34 6.416l-1.236 2.336c-.293.555.073 1.248.66 1.248h2.473c.587 0 .954-.693.66-1.248L24.66 6.416a.73.73 0 0 0-1.321 0z"/><use xlink:href="#B"/><use xlink:href="#B" x="-14" y="7"/></g><path d="M27.172 41h-5.343c-.458 0-.828-.448-.828-1s.37-1 .828-1h5.343c.458 0 .828.448.828 1s-.37 1-.828 1z" fill="#407093"/><g fill="#61a2f9"><use xlink:href="#C"/><use xlink:href="#C" x="-6" y="-7"/></g><path d="M47.735 38.384a5.8 5.8 0 0 0-.129-.583L44.614 26.8a5.62 5.62 0 0 0-1.212-2.243 5.65 5.65 0 0 1-.896-1.375l-4.78-10.376c-.16-.347-.418-.62-.727-.805v3.932l3.34 7.25c.23.498.53.96.896 1.375a5.62 5.62 0 0 1 1.212 2.243L45.44 37.8l.13.583c.176 1.076.265 2.163.265 3.252v5.474c0 .482-.402.872-.898.872l-6.773.013.083.004 8.857-.017c.496 0 .898-.4.898-.872v-5.474c0-1.09-.09-2.177-.265-3.252z" fill="#df9380"/><path d="M20.598 27.84c-.638-.5-1.398-.736-2.15-.727-1.024.002-2.03.506-2.657 1.316l-1.863 2.383c-.422.54-1.065.856-1.748.862h-.01c-1.188 0-2.152-.964-2.154-2.154L10 24.634c0-.3.045-.597.134-.883l.523-1.673V12a1.82 1.82 0 0 0-.706.806L5.326 23.182c-.222.498-.515.96-.87 1.375-.555.65-.957 1.416-1.175 2.242L.382 37.8l-.125.583C.086 39.46 0 40.547 0 41.637v5.474a.87.87 0 0 0 .871.872L9.457 48a.87.87 0 0 0 .871-.872v-6.024a.44.44 0 0 1 .344-.43l2.022-.45a3.88 3.88 0 0 0 3.037-3.779 1.91 1.91 0 0 1 .394-1.176l4.653-5.96a1.05 1.05 0 0 0-.18-1.47z" fill="#eaac9d"/><path d="M20.588 27.567c-.333-.257-.698-.445-1.078-.567a1.06 1.06 0 0 1-.165.296l-4.778 6.04a1.92 1.92 0 0 0-.404 1.192c-.005 1.84-1.3 3.432-3.12 3.83l-2.7.688c-.207.045-.354.226-.354.435v8.515L9.147 48a.89.89 0 0 0 .894-.884V41c0-.21.147-.4.354-.435l2.076-.455c1.82-.398 3.114-2 3.12-3.83a1.92 1.92 0 0 1 .404-1.192l4.778-6.04c.365-.462.283-1.13-.184-1.5z" fill="#df9380"/></g></svg>