<svg width="56" height="53" viewBox="0 0 56 53" fill="none" xmlns="http://www.w3.org/2000/svg">
<g style="mix-blend-mode:overlay">
<path d="M32.3238 2.79787C32.3158 2.80373 32.3105 2.81238 32.306 2.81914C28.0286 9.61347 22.4827 15.323 15.8137 19.8043L22.6971 32.3771C30.0643 29.1726 37.8628 27.5761 45.8923 27.6331C45.9083 27.6331 45.9281 27.6327 45.9457 27.6038C45.9604 27.5793 45.9535 27.5681 45.9456 27.5536L32.402 2.81581C32.3941 2.80137 32.3883 2.78949 32.3598 2.78865C32.343 2.78814 32.3318 2.7919 32.3238 2.79787L32.3238 2.79787ZM8.42335 23.9939C7.80282 24.3336 7.57294 25.1133 7.91116 25.7311L13.4478 35.8439C13.697 36.2991 14.186 36.541 14.6745 36.5013C14.8522 36.4835 14.8995 36.4705 15.1129 36.3837C15.1373 36.372 20.636 33.3641 20.636 33.3641L13.8727 21.0105L8.42334 23.9939L8.42335 23.9939ZM39.143 10.3748L43.2093 17.8021C44.7593 16.5019 45.2351 14.2492 44.2314 12.4158C43.2277 10.5825 41.0736 9.76962 39.143 10.3748ZM5.51379 29.1569C5.18625 29.3362 5.06594 29.7473 5.24433 30.0731L8.35252 35.7504C8.53104 36.0765 8.94202 36.1963 9.26956 36.017L10.5548 35.3134L6.79903 28.4533L5.51379 29.1569ZM17.2428 37.8128L28.0316 47.2912C28.0406 47.2991 28.0553 47.3013 28.0672 47.2948L32.7363 44.7385C32.7448 44.7339 32.7513 44.7304 32.7532 44.7136C32.7551 44.6967 32.7495 44.6916 32.7418 44.6852L21.9702 35.2246L17.2428 37.8128L17.2428 37.8128Z" fill="white"/>
</g>
</svg>
