<svg xmlns="http://www.w3.org/2000/svg" xmlns:xlink="http://www.w3.org/1999/xlink" width="44" height="44" xmlns:v="https://vecta.io/nano"><g fill="#fff" fill-rule="evenodd"><use xlink:href="#B"/><use xlink:href="#B" x="3.228"/><use xlink:href="#C"/><use xlink:href="#C" x="17.755"/><use xlink:href="#D"/><use xlink:href="#D" x="17.755"/><use xlink:href="#B" x="33.896"/><use xlink:href="#B" x="37.123"/><path d="M41.97 3.682c-.8-.782-1.434-1.72-1.86-2.757-.246-.494-.75-.806-1.3-.806s-1.054.312-1.3.806c-.224.502-.48.988-.77 1.455-.95 1.484-3.014 2.495-3.014 5.28-.002.976.355 1.918 1.002 2.647-.595.194-1 .748-1.002 1.375v1.455c0 .803.65 1.455 1.453 1.455v2.91H9.032v-2.91c.802 0 1.453-.65 1.453-1.455v-1.455c.003-.632-.402-1.193-1.002-1.39.644-.725 1-1.662 1.002-2.633 0-1.956-1.024-3.04-1.925-3.978-.802-.787-1.435-1.73-1.86-2.77C6.455.417 5.95.105 5.4.105S4.346.417 4.1.91c-.224.502-.48.988-.77 1.455C2.38 3.864.316 4.875.316 7.66c-.002.976.355 1.918 1.002 2.647-.595.194-1 .748-1.002 1.375v1.455c0 .803.65 1.455 1.453 1.455V20.4h-.726c-.4 0-.726.326-.726.727v21.82c0 .402.325.727.726.727H43.17c.4 0 .726-.326.726-.727v-21.82c0-.402-.325-.727-.726-.727h-.726V14.59c.802 0 1.453-.65 1.453-1.455v-1.455c.003-.632-.402-1.193-1.002-1.39.644-.725 1-1.662 1.002-2.633 0-1.956-1.024-3.04-1.925-3.978zM38.81 1.5c.485 1.184 1.2 2.26 2.106 3.164.85.902 1.525 1.615 1.525 2.997 0 1.418-1.148 2.567-2.564 2.567h-2.135c-1.416 0-2.564-1.15-2.564-2.567 0-2.524 2.375-2.88 3.632-6.16zm3.632 20.365v1.455H35.18v-1.455h7.263zm0 12.364H35.18v-1.455h7.263v1.455zM15.57 21.865v1.455h-5.084v-1.455h5.084zm11.62 0v1.455H17.02v-1.455H27.2zm6.537 0v1.455h-5.084v-1.455h5.084zm8.716 9.455H35.18v-6.546h7.263v6.546zm-33.41 0H1.77v-6.546h7.263v6.546zM1.77 32.774h7.263v1.455H1.77v-1.455zm8.716-8h5.084v6.546h-5.084v-6.546zm6.537 0H27.2v2.182H17.02v-2.182zm11.62 0h5.084v6.546h-5.084v-6.546zm6.537-5.818V20.4H9.032v-1.455H35.18zM1.77 13.137v-1.455h7.263v1.455H1.77zM5.4 1.5c.485 1.184 1.2 2.26 2.106 3.164.85.902 1.525 1.615 1.525 2.997 0 1.418-1.148 2.567-2.564 2.567H4.333c-1.416 0-2.564-1.15-2.564-2.567 0-2.524 2.375-2.88 3.632-6.16zM3.22 14.59H7.58V20.4H3.22V14.59zM1.77 21.865h7.263v1.455H1.77v-1.455zm0 13.82h7.263v6.546H1.77v-6.546zm8.716-2.91h5.084v9.455h-5.084v-9.455zM17.02 28.4H27.2v13.82h-1.453v-6.844c0-1.884-.675-3.113-2.666-4.858a1.45 1.45 0 0 0-1.932 0c-2 1.746-2.666 2.975-2.666 4.858v6.844H17.02V28.4zm2.905 13.82v-6.844c0-1.266.327-2.182 2.18-3.767 1.845 1.622 2.18 2.502 2.18 3.767v6.844h-4.358zm8.716-9.455h5.084v9.455h-5.084v-9.455zm6.537 9.455v-6.546h7.263v6.546H35.18zM41 20.4h-4.358V14.59H41V20.4zm-5.81-7.273v-1.455h7.263v1.455H35.18z" fill-rule="nonzero"/></g><defs ><path id="B" d="M3.544 29.965c.446 0 .807-.36.807-.807v-1.614c0-.446-.36-.807-.807-.807s-.807.36-.807.807v1.614c0 .446.36.807.807.807z"/><path id="C" d="M13.228 34c-.446 0-.807.32-.807.717v5.02c0 .396.36.717.807.717s.807-.32.807-.717v-5.02c0-.396-.36-.717-.807-.717z"/><path id="D" d="M13.228 25.93c-.446 0-.807.36-.807.807v2.42c0 .446.36.807.807.807s.807-.36.807-.807v-2.42c0-.446-.36-.807-.807-.807z"/></defs></svg>