<svg xmlns="http://www.w3.org/2000/svg" width="53" height="44" fill="#fff" xmlns:v="https://vecta.io/nano"><path d="M11.38 33.877c-.307-.7-.728-1.387-1.17-2.012-.267-.377-.653-.94-1.193-.9-.304.028-.492.32-.708.505-.295.253-.577.564-.8.876-.356.478-.637.955-.764 1.486a5.41 5.41 0 0 0-.317 1.112c-.08.478.034.838.55.906.785.104 1.62-.162 2.4-.145l1.18-.016c.3-.002.576.038.82-.16.483-.395.208-1.194.003-1.662zm-.6 1.342a1.46 1.46 0 0 0-.231-.01c-.606.093-1.232-.033-1.838.05l-1.297.12c-.36.035-.615.076-.54-.382.214-1.33 1.026-2.3 1.852-3.275.2-.14.38-.213.553-.15.272.103.5.544.662.774.192.272.377.577.514.88.128.285.3.526.446.806.085.176.192.423.2.62.075.227-.03.415-.32.565zm6.583-24.104c-.058-.25-.075-.518-.174-.755-.144-.345-.4-.757-.838-.615-.43.14-.587.597-.636 1.006-.026.22-.124 1.23.257 1.17s.823-.034 1.203.035c.092.017.222-.024.238-.135.034-.248.007-.466-.05-.707zm-.846.4c-.15-.004-.298-.018-.44.004-.045-.43-.036-.964.224-1.3.356-.46.6.376.635.6.04.24.12.493.12.74-.176-.027-.346-.028-.54-.033z"/><path d="M52.298 26.427c-.232-.418-.846-.366-1.265-.34l-.066-.006c.14-.408 0-.98.01-1.375.012-.418.128-.893-.04-1.28l.46-.037c.527-.07.6-.452.686-.923.162-.874-.687-.9-1.463-.845l-.647-.076c.1-.62.155-1.392-.637-1.44l-3.107-.132c-.45-.002-.875.066-1.32.073-.54.008-1.086-.012-1.628-.016-1.003-.007-2 .053-3.007.047a58.58 58.58 0 0 0-1.467.01c.056-.314-.014-.7.015-.973.057-.518.124-1.06.066-1.577-.066-.6.028-1.18.022-1.777-.005-.497.06-1.062-.127-1.534l.27-.016c.674-.08.402-.845.36-1.308-.015-.16-.115-.254-.273-.273l-.4-.044c.067-.338.026-.75.025-1-.001-.764.07-1.6-.137-2.347h.05c.314-.001.575-.04.647-.4.096-.47-.213-.825-.604-.95.073-.23.072-.586.06-.796-.022-.345-.147-.74-.272-1.06-.16-.412-.37-.812-.605-1.193a4.23 4.23 0 0 0-.375-.78c-.22-.354-.63-1-1.104-1.218.045-.264.056-.706.056-.76l-.03-1.315c-.018-.312-.466-.3-.484 0l-.018 1.758.013.288c-.64.194-1.013 1.084-1.314 1.6-.2.332-.315.686-.416 1.057l-.314 1.16c-.058.33-.106.885.066 1.254-.372.14-.545.863-.2 1.132a.69.69 0 0 0 .248.12c-.12.444-.14.966-.187 1.402l-.048.726c-.453-.08-.927-.047-1.385-.05l-1.576-.003-.194.004c-.617-.095-1.265-.094-1.875-.077l-1.085.078c-.4.001-.808-.026-1.206.01-.73.066-1.46.07-2.196.07-.264-.046-.53-.082-.804-.073-.474.015-.942-.006-1.417-.013-.525-.008-1.05-.001-1.576.003-.458.003-.932-.03-1.385.05l-.048-.726c-.048-.436-.066-.958-.187-1.402.1-.024.176-.06.248-.12.335-.268.162-1-.2-1.132.172-.37.124-.923.066-1.254-.067-.38-.213-.784-.314-1.16s-.225-.725-.416-1.057c-.3-.525-.675-1.415-1.314-1.6.012-.108.012-.215.013-.288L16.922.766c-.018-.3-.466-.312-.484 0L16.4 2.1c.001.053.012.496.056.76-.474.207-.886.864-1.104 1.218a4.27 4.27 0 0 0-.375.78 7.15 7.15 0 0 0-.605 1.193c-.125.32-.25.715-.272 1.06-.013.2-.014.564.06.796-.4.127-.7.48-.604.95.072.35.333.4.647.4h.05c-.206.747-.136 1.583-.137 2.347 0 .25-.04.662.025 1l-.4.044c-.157.018-.257.1-.273.273-.043.464-.315 1.23.36 1.308a2.57 2.57 0 0 0 .269.016c-.187.472-.123 1.037-.127 1.534-.006.596.1 1.185.022 1.777-.058.518.01 1.06.066 1.577.03.262-.04.66.015.973l-1.467-.01c-1.007.006-2.004-.054-3.007-.047l-1.628.016-1.32-.073-3.107.132c-.8.048-.735.82-.637 1.44l-.647.076c-.776-.054-1.625-.03-1.463.845.087.47.16.853.686.923.152.02.306.03.46.037-.17.386-.054.86-.04 1.28.012.395-.13.967.01 1.375l-.066.006c-.42-.026-1.033-.078-1.265.34-.188.338-.2 1.356.185 1.596.205.128.483.048.707.054l.42.022c-.17 1.216-.145 2.424-.16 3.654l-.015 2.124c-.003.582.094 1.147.083 1.722l-.13 3.665c-.08.598-.047 1.208-.047 1.812l-.01.704c-.096.3-.17.653.002.87.268.338.927.26 1.3.305 1.263.16 2.522.06 3.8.133l3.506.146 2.115.01c.276.007.635.03.94-.05.102.142.202.296.293.35.217.128.494.134.737.144l3.018.003c.635.013 3.346.57 3.442-.535-.002.018.98-.073 1.07-.096.168-.042.363-.02.525-.073.192-.062.2-.245.205-.424l-.015-1.807-.1-3.63-.095-2.244c-.008-.38-.065-.254.288-.38.223-.08.5-.117.72-.222.43-.217.313-.6.075-.925-.482-.638-.683-1.336-.452-2.124.2-.72.768-1.348 1.317-1.836.26-.23.54-.42.777-.674l.043-.043c.467-.272.997-.586 1.554-.594.172-.002.37.053.57.14.2.167.407.3.583.497.24.255.517.442.777.674.55.488 1.106 1.116 1.317 1.836.232.788.03 1.486-.452 2.124-.238.314-.356.708.075.925.2.105.496.142.72.222.353.127.296.001.288.38l-.095 2.244-.088 3.402c-.008.53-.06 1.085-.004 1.612.035.335-.05.85.397.884.203.015.392.07.594.096.258.03.52.02.778.038.096 1.106 2.806.548 3.442.535L38.6 43.7c.244-.01.52-.015.737-.144.092-.054.2-.208.293-.35.304.08.663.057.94.05l2.115-.01 3.506-.146 3.8-.133c.364-.047 1.023.033 1.3-.305.172-.217.098-.578.002-.87l-.01-.704c0-.604.034-1.214-.047-1.812-.162-1.202-.1-2.45-.13-3.665-.01-.575.086-1.14.083-1.722l-.015-2.124-.16-3.654.42-.022c.224-.006.5.074.707-.054.386-.24.374-1.258.185-1.596zM34.488 6.72c.07-.36.197-.74.297-1.093.187-.663.553-1.208.908-1.786.244-.397.528-.375.798-.18l.24.32c.242.3.426.618.645.93l.267.417.474 1.094a2.85 2.85 0 0 1 .102.659c.005.162-.002.333-.054.5l-.037.117c.002-.008.007-.04-.015-.03-.248.106-.77-.05-1.04-.043-.766.02-1.507.142-2.28.012-.236-.04-.24.044-.306-.217-.058-.222-.042-.47.001-.692zm-.3 1.796c-.01-.182.05-.222.162-.287l.065.02c.803.183 1.73.1 2.54.01.294-.03.593.04.887.045.364.007.645-.067.97.157.026.018.053.038.067.067.032.062-.006.14-.065.18-.04.025-.08.04-.124.048-.124.022-.262-.01-.383-.012-.652-.005-1.304.002-1.955-.002-.363-.003-.713-.1-1.075-.096-.254-.005-.508.03-.76.02-.063-.002-.17.02-.227-.006a.87.87 0 0 0-.147-.051c.02-.003.053-.02.05-.094zm3.94 3.653c-.005.053-.1.305-.052.355-.384-.024-.77-.023-1.15.033l-.68-.058c-.468.003-.955-.04-1.42.001-.133.012-.263.06-.395.072l.048-2.155c.043-.406.116-.834.035-1.234l.265-.01c.66-.02 1.308.077 1.97.07l1.513-.004c-.26.95-.047 1.963-.136 2.93zm-4.155 1l.084.01c.17.018.325.025.495.012.765-.055 1.516-.072 2.28.012a4.13 4.13 0 0 0 .938-.002c.196-.023.47-.018.657-.1l.444.046a1.3 1.3 0 0 0 .021.28c.002.01.085.232.098.266-.022-.046-.713-.033-.773-.025-.703.093-1.4.012-2.107.027-.6.012-1.28.066-1.876.003-.26-.027-.507-.22-.453-.53l.193.006zm4.294 2.683c-.005.544-.116 1.094-.047 1.634.077.606-.047 1.2-.104 1.8-.023.24-.03.558.056.817l-1.026.043c.107-.337.042-.717.043-1.07l.07-1.758c.023-.613.087-1.264.007-1.875-.036-.277-.18-.837-.123-1.192l.838-.044.42.01c-.203.5-.127 1.1-.132 1.634zm-1.518 4.273c-.006.014-.01.027-.01.04l-1.3.022-.1.004-.023-1.682c.001-.478.08-.942.078-1.423l.006-2.865 1.275.047.133-.003c-.03.197-.01.4-.013.613-.012.563.1 1.114.082 1.685l-.072 1.928c-.01.488.133 1.172-.037 1.634zm-1.774-3.143c-.001.515-.1 1.014-.1 1.527l.004 1.716-.775.058c.002-.04.015-.088.017-.142l.004-1.698c-.004-.42.065-.818.073-1.235.02-.937.1-2.04-.118-2.977l.35-.01.623-.01c-.244.85-.088 1.896-.1 2.77zm-15.872-5.116c.453.08.926.047 1.383.05l1.576.003c.33-.005.65-.033.97-.07.4.028.815.015 1.16.02.732.01 1.488.07 2.212-.02 1.03-.128 2.103-.014 3.155-.04a10.7 10.7 0 0 0 1.278.108l1.576-.003c.457-.003.93.03 1.383-.05l.026.647-.114-.006c-.687.006-.513.706-.414 1.17l.008.03-.427.044c-.64.016-1.288-.014-1.928-.014a20.22 20.22 0 0 0-1.335.047c-.937-.246-2-.004-2.957-.001-.617.002-1.228.023-1.84-.036-.314-.03-.74-.042-1.078.07l-1.788-.08-1.928.014c-.13-.003-.278-.028-.427-.044l.008-.03c.1-.466.273-1.166-.414-1.17a1.12 1.12 0 0 0-.114.006l.026-.647zm14.405 5.342l-.077 2.932c.003.057.016.107.037.15l-2.62.065c-.553-.004-1.093.07-1.645.077-.217.002-.407.02-.592.048l-.488.004c-.68-.001-1.363-.015-2.04.05-.536.05-1.075-.001-1.614-.023a4.31 4.31 0 0 0-.768-.077l-1.645-.077c-.874.006-1.746-.046-2.62-.065a.39.39 0 0 0 .037-.149c.05-.986-.042-1.956-.077-2.932s.108-2.04-.1-3c.314.07.666.077.953.078h1.932c.812-.001 1.642.077 2.442-.044l.04.003 1.893.1 1.796-.05h.866l1.53-.023h1.932c.287-.001.64-.007.953-.078-.22.97-.075 2.028-.1 3zM14.68 7.083a2.86 2.86 0 0 1 .102-.659l.474-1.094.267-.417.645-.93.24-.32c.27-.196.553-.218.798.18.356.578.72 1.123.908 1.786l.297 1.093a1.61 1.61 0 0 1 .001.692c-.068.262-.07.177-.306.217-.772.13-1.513.008-2.28-.012-.27-.007-.793.15-1.04.043-.022-.01-.016.023-.015.03l-.037-.117a1.41 1.41 0 0 1-.054-.5zm-.47 1.673a.32.32 0 0 1-.124-.048c-.06-.038-.096-.117-.065-.18.015-.028.04-.05.067-.067.323-.224.605-.15.97-.157.294-.005.593-.074.887-.045.808.08 1.736.174 2.54-.01.023-.005.043-.014.065-.02.112.065.17.105.162.287-.004.074.03.092.05.094a.86.86 0 0 0-.147.051c-.06.024-.164.004-.227.006-.254.008-.508-.026-.76-.02-.362.006-.712.093-1.075.096-.652.005-1.304-.003-1.955.002-.12.001-.26.034-.383.012zm.56 3.413c-.1-.967.125-1.982-.137-2.93l1.513.004 1.97-.07.265.01c-.08.4-.008.828.035 1.234.076.715.003 1.437.048 2.155-.132-.012-.262-.06-.395-.072-.465-.042-.95.002-1.42-.001-.23-.002-.454.032-.68.058a5.46 5.46 0 0 0-1.15-.033c.038-.05-.047-.302-.052-.355zm-.86 1.517l.098-.266a1.3 1.3 0 0 0 .021-.28l.444-.046c.188.1.46.086.657.1.3.037.627.036.938.002.763-.085 1.514-.067 2.28-.012.17.012.324.006.495-.012l.084-.01.193-.006c.054.3-.192.502-.453.53-.596.063-1.285.01-1.876-.003-.697-.015-1.404.066-2.107-.027-.06-.008-.75-.02-.773.025zm4.78 3.522l.073 1.235.004 1.698a.39.39 0 0 0 .033.142c-.28.001-.535-.03-.8-.058l.004-1.716c0-.514-.088-1.012-.1-1.527-.002-.873.154-1.92-.1-2.77l.623.01.35.01c-.2.938-.137 2.04-.117 2.977zm-2.577 1.283l-.072-1.928c-.02-.57.095-1.122.082-1.685-.004-.202.017-.415-.013-.613l.133.003 1.275-.047c-.052.942.012 1.92.006 2.865-.003.48.077.945.078 1.423l-.022 1.69-.1-.004-1.3-.022c-.002-.013-.005-.026-.01-.04-.17-.46-.026-1.145-.037-1.634zm-.472-1.17l.07 1.758c.001.352-.064.73.043 1.07l-1.026-.043c.087-.26.08-.576.056-.817-.057-.602-.18-1.195-.104-1.8.068-.54-.042-1.1-.047-1.634-.005-.523.07-1.135-.132-1.634l.42-.01.838.044c.058.355-.086.916-.123 1.192-.08.6-.017 1.26.006 1.875zM3.43 21.06c.074-.347.064-.347.417-.356l1.548-.08c.453-.043.9-.03 1.354-.035.42-.004.815.082 1.236.08l2.712.064c1 .115 2.017-.006 3.013.035l2.948.137 2.55.07 5.273.127c.56.03 1.12.084 1.68.035.757-.066 1.524-.033 2.285-.034.72.04 1.448-.046 2.165-.056l3.074-.074 2.55-.07 2.948-.137c.996-.04 2.023.08 3.013-.035.897-.104 1.808-.065 2.712-.064.42.001.815-.085 1.236-.08l1.354.035 1.548.08c.353.01.344.01.417.356.03.144.038.3.05.453-.834-.053-1.673-.038-2.508.06-.978.115-1.984.06-2.97.058-.97-.002-1.942.024-2.907-.06-.442-.038-.868.048-1.3.052-.527.006-1.055-.015-1.582-.002l-2.847.07h-3.232l-1.586.002-.136-.008c-.282-.018-.546-.038-.817-.003l-1.118.038c-1.027 0-2.063-.035-3.1.01l-1.7.08a.21.21 0 0 0-.08-.05c-.447-.148-.847-.092-1.306-.067h-.288a2.95 2.95 0 0 0-.733-.003l-.564-.007c-1.077-.001-2.155 0-3.232 0-.953 0-1.896-.044-2.847-.07-.527-.014-1.055.007-1.582.002-.442-.005-.868-.1-1.3-.052-.965.083-1.938.056-2.907.06-.987.002-1.992.058-2.97-.058a13.66 13.66 0 0 0-2.508-.06l.05-.452zm-1.69 1.68c-.232.005-.303-.03-.3-.312.01-.218-.1-.14.14-.248.543.068 1.084-.006 1.64-.05.9-.07 1.906.005 2.806.118.882.1 1.826.03 2.715.03l3.018-.05c.44-.037.87.05 1.3.056l1.47.003 2.96.07h3.232l1.848-.016.336.04c.9.1 1.816-.03 2.716-.037l2.862.005c.678 0 1.473.094 2.188.013l1.468-.005h3.25l2.96-.07 1.47-.003c.44-.005.87-.093 1.3-.056 1.002.083 2.012.05 3.018.05.9-.001 1.833.08 2.715-.03.9-.113 1.897-.2 2.806-.118.557.044 1.097.118 1.64.05.23.107.13.03.14.248.013.28-.057.317-.3.312-1.295-.03-2.58.043-3.872.063l-2.104.03c-.694-.043-1.37.053-2.06-.006-2.208-.187-4.412.008-6.618.014l-2.892.142-3.63.107-1.46.036c-.398-.008-.806.01-1.196.102l-1.234.05a8.25 8.25 0 0 1-.352-.003c-.44-.13-.9-.156-1.367-.147-.5.01-.965-.027-1.46-.036l-3.63-.107-2.892-.142-6.618-.014c-.7.058-1.367-.037-2.06.006-.714.044-1.394-.02-2.104-.03l-3.87-.065zm48.652 1.085c.008.327-.067.65-.078.978l-.006.937c-.007.064.013.066 0 .127-.008.04-.066.106-.082.153l-.01.037-1.62-.046a.16.16 0 0 0 0-.03l-.13-1.434c-.03-.187-.348-.187-.377 0-.07.45-.163 1.015-.024 1.462l-.77.052c-.2.016-.4.007-.6-.01-.001-.405.034-.825-.046-1.225-.036-.18-.153-.4-.335-.255-.164.122-.12.458-.118.63.001.14-.06.252-.083.4-.022.13-.025.272-.02.4l-.233-.01a12.47 12.47 0 0 0-.801.014.68.68 0 0 0 .009-.238c-.03-.216-.06-1.173-.367-1.17-.24.004-.243.417-.238.577.007.204.08.733-.1.867-.182.13-.848.037-1.075.036.186.001.06-.704.047-.796-.022-.154-.08-1.03-.373-.75-.193.185-.173.445-.176.692-.004.27-.093.566-.063.834L41.83 26c.026-.217-.017-.44-.016-.656.001-.24-.01-.452-.122-.67-.1-.195-.33-.28-.4-.022-.042.136-.034.432-.038.582l-.013.76c-.248.005-.496.02-.743.055.045-.342.005-1.08-.216-1.366-.313-.405-.5.38-.444.615.055.273.07.527.035.8-.227.004-.454.004-.682-.01-.042-.28-.177-.594-.207-.807l-.224-1.242c-.068-.245-.196-.464-.305-.685l.875.05a4.5 4.5 0 0 0 .673-.048c.408.072.824.1 1.268.112l1.355.001 1.197.065 1.256-.04 1.363.04 2.36-.13c.527-.025 1.07.017 1.607.027-.024.117-.012.237-.008.4zM33.354 35.37c-.08-1.063.002-2.18-.002-3.253l.002-1.576c.001-.425-.096-1 .024-1.428l.1-.005c.292-.03.577-.03.86-.02-.06.766-.005 1.53.023 2.297v2.655l-.012 2.785c-.004.708-.187 1.553-.042 2.256l-.12-.005c-.126-.007-.494-.042-.6-.094-.376-.205-.27-.75-.256-1.08.017-.43-.033-.823-.06-1.244-.027-.428.1-.854.068-1.3zm.226 4.234l.154-.007c.584.123 1.254.06 1.817.06.638.001 1.443.112 2.108-.07.248.01.504-.014.732.082.432.182.208.488.2.817-.278-.014-.56.026-.837.046l-1.635.116-1.804-.012a4.87 4.87 0 0 1-.87-.044c-.013-.002-.466-.04-.45-.022a.16.16 0 0 0-.108-.053c.024-.134.022-.27.05-.437.055-.338.315-.46.632-.476zm3.192-8.353c.12.92.116 1.854.1 2.78l-.006 2.908c-.074.73-.113 1.456-.012 2.18-.47.027-.965-.023-1.43-.023a35.69 35.69 0 0 1-.786-.006c.172-.702.1-1.557.097-2.268l-.012-2.785-.115-4.94.656.03c.496.012.98-.037 1.47-.06l.02.903c-.022.435-.047.846.01 1.28zm1.055 3.52l-.005 3.406c0 .14.084.626.004.725-.07.087-.378.147-.58.178.003-.256-.054-.494-.07-.773-.03-.462.03-.9.068-1.367.083-.998-.013-2.02-.006-3.02l-.1-2.576c-.086-.757.022-1.54-.126-2.283l.214-.003c.194 0 .435.025.683.038-.096.88-.053 1.787-.122 2.663-.08 1 .045 2 .05 3.013zm-.385-6.26c-.545-.001-1.06.05-1.6.08-.512.027-1.014-.07-1.523-.084-.516-.014-1.082.144-1.422-.314l-.804-1.2c-.072-.122-.136-.263-.205-.4l4.064.042 2.852.06c.03.007.06.007.095-.001l.678-.024-.067.142-.612 1.275c-.162.286-.248.4-.585.444-.283.027-.588-.006-.873-.007zm-21.778 5.4l-.006 3.02c.038.457.097.905.068 1.367-.018.28-.075.517-.07.773-.202-.03-.5-.1-.58-.178-.08-.1.004-.585.004-.725l-.005-3.406.05-3.013-.122-2.663.683-.038.214.003c-.148.743-.04 1.526-.126 2.283-.098.854-.115 1.716-.1 2.576zm-.423 5.668c.665.182 1.47.07 2.108.07.563 0 1.233.064 1.817-.06l.154.007c.317.015.578.138.633.476l.05.437c-.04.003-.077.02-.108.053.016-.018-.437.02-.45.022a4.77 4.77 0 0 1-.87.044c-.6-.01-1.203.01-1.804.012-.557.003-1.083-.077-1.635-.116-.277-.02-.56-.06-.837-.046.001-.33-.223-.635.2-.817.228-.096.485-.073.732-.082zm.887-8.335c.056-.432.03-.843.01-1.278-.015-.3.022-.605.02-.903l1.47.06.656-.03c-.15 1.632-.108 3.303-.115 4.94l-.012 2.785c-.002.7-.075 1.565.097 2.268l-.786.006-1.43.023c.1-.725.062-1.45-.012-2.18-.097-.957.002-1.947-.006-2.908l.1-2.78zm2.43-2.163a5.93 5.93 0 0 1 .861.02c.035.004.068.004.1.005.12.428.023 1.003.024 1.428l.002 1.576-.002 3.253c-.033.435.095.86.068 1.288l-.06 1.244c.013.33.12.874-.256 1.08-.096.052-.463.087-.6.094l-.12.005c.145-.703-.037-1.548-.042-2.256l-.012-2.785v-2.655l.023-2.296zm.02-.583c-.5.014-1 .1-1.523.084l-1.6-.08-.872.007c-.337-.033-.422-.158-.585-.444-.236-.416-.413-.847-.612-1.275l-.067-.142.678.024c.033.008.065.008.095.001l2.852-.06L21 26.58l-.205.4a14.06 14.06 0 0 1-.804 1.21c-.34.458-.905.3-1.422.314zm-5.953-3.816c-.22.286-.26 1.024-.216 1.366-.246-.034-.494-.05-.743-.055-.027-.252-.007-.508-.013-.76-.004-.15.004-.446-.038-.582-.08-.26-.3-.173-.4.022-.1.218-.123.43-.122.67.001.215-.042.44-.016.656l-.882.047c.03-.27-.06-.564-.063-.834-.003-.247.017-.507-.176-.692-.293-.28-.35.596-.373.75-.013.092-.14.797.047.796-.226.001-.893.094-1.075-.036-.188-.134-.116-.663-.1-.867.005-.16.001-.573-.238-.577-.308-.005-.336.953-.367 1.17a.68.68 0 0 0 .009.238L7.04 26h-.233c.005-.137.003-.278-.02-.4s-.084-.248-.083-.4c.001-.172.046-.508-.118-.63-.18-.135-.298.075-.335.255-.08.4-.046.82-.046 1.225a3.88 3.88 0 0 1-.6.01l-.77-.052c.14-.446.046-1.013-.024-1.462-.03-.187-.348-.187-.377 0-.074.475-.076.957-.13 1.434a.15.15 0 0 0 0 .03c.002.02-1.497.046-1.62.046l-.01-.037c-.015-.047-.074-.114-.082-.153-.013-.06.007-.063 0-.127-.033-.305.005-.63-.006-.937-.01-.327-.085-.652-.078-.978.003-.153.016-.273-.008-.4l1.607-.027 2.36.13c.455.03.9-.013 1.363-.04.434-.025.826.02 1.256.04.4.02.798-.06 1.197-.065l1.355-.001 1.268-.112.673.048.875-.05c-.1.22-.237.44-.305.685-.1.393-.167.838-.224 1.242-.03.213-.165.526-.207.807l-.682.01a2.45 2.45 0 0 1 .035-.8c.047-.235-.13-1.02-.444-.615zm1.964-.087l.195-.938.092-.3.063.001 1.347.084 3 .15.102.5.415 1.28.175.558c-1-.003-2.008-.022-3.005.058l-1.546.1c-.366.006-.738-.042-1.104-.04a3.63 3.63 0 0 0 .117-.432l.15-1.02zm6.088 1.337c-.012-.02-.027-.042-.047-.06-.143-.138-.172-.358-.236-.54l-.3-.853-.308-.88c-.001-.003.464.067.527.076.323.047.628.03.938.126-.048.288-.12.558-.03.85.093.3.3.527.645.5.3-.033.624-.068.838-.315.237-.274.276-.627.265-.975l.566-.032c-.066.153-.076.344-.067.5.02.335.25.685.578.793.337.1.656-.106.828-.387.175-.286.13-.613.113-.932l.727.047c-.063.283-.1.6.093.835.164.2.444.33.702.377.643.116.96-.673.883-1.222l.448-.022.094-.006c-.017.316-.06.64.114.922s.5.498.828.387c.327-.108.558-.458.578-.793.01-.155-.001-.346-.067-.5l.566.032c-.01.348.028.7.265.975.213.246.53.282.838.315.346.037.552-.18.645-.5.088-.3.017-.562-.03-.85.3-.096.615-.08.938-.126l.527-.076c-.122.283-.206.587-.308.88l-.3.853c-.064.18-.093.4-.236.54-.02.02-.035.04-.047.06l-1.013.054c-.218.002-.423-.001-.628-.004-.232-.017-.463-.037-.704-.018l-.444.001-.26-.034-1.17-.016-1.946.074c-.577-.02-1.153-.002-1.73.013-.43-.04-.86-.04-1.292-.034-.254-.023-.486-.002-.718.015l-.614.004-1.028-.054zm.903-2.092c.305.036.636.04.95.03-.003.212-.001.43-.128.6s-.318.175-.516.2c-.18.024-.195.01-.26-.146a.73.73 0 0 1-.055-.4 1.42 1.42 0 0 0 .01-.296zm2.182-.033l.454-.012.345.001c.01.163.027.33.01.5-.022.2-.203.492-.428.407-.2-.072-.288-.3-.32-.483-.018-.097-.08-.285-.06-.404zm2.293.045l.04.002.9-.01c-.032.358-.01.883-.487.734-.128-.04-.316-.096-.383-.227-.05-.098-.024-.246-.038-.353l-.024-.147zm2.285-.056l.345-.001.454.012c.02.12-.04.307-.06.404-.034.184-.13.4-.32.483-.226.085-.407-.216-.428-.407-.02-.162 0-.327.01-.5zm2.992.34a.73.73 0 0 1-.055.4c-.065.155-.08.17-.26.146-.198-.026-.4-.025-.516-.2s-.125-.4-.128-.6a6.39 6.39 0 0 0 .95-.03 1.47 1.47 0 0 0 .01.296zm2.182-.046c.015-.053.06-.328.1-.5l3.002-.15c.455-.002.895-.066 1.347-.084l.063-.001c.023.1.062.196.092.3l.195.938.15 1.02a3.63 3.63 0 0 0 .117.432c-.366-.001-.738.046-1.104.04l-1.546-.1c-.997-.08-2.004-.06-3.005-.058.08-.195.127-.418.175-.558l.415-1.28zM1.698 27.4c-.355-.036-.513.15-.522-.243-.002-.083.034-.476-.027-.404.03-.037.085-.064.145-.083.893.202 1.92.136 2.8.07.522-.04.993.013 1.5.043.48.03.957-.064 1.435-.073.456-.01.9.075 1.345.07h1.67l1.497-.067c.305-.02 1-.22 1.268-.025.08.058.125.16.162.248.05.117.087.24.125.36l.03.1c.01.032.027.063.035.096a.48.48 0 0 0 .031.088 2.29 2.29 0 0 0-.47-.006l-.028-.01c-.03-.008-.057-.013-.084-.017l-.557.016c-.336.01-.676-.008-1.013-.01l-2.272-.03c-.662-.001-1.314.103-1.982.1l-2.253-.074L2.6 27.44c-.325.01-.603-.022-.925-.054zm9.086 15.096l-1.4.002c-.508.001-.997-.096-1.507-.08a5.55 5.55 0 0 1-.316-.001c.007-.722-.34-1.417-.278-2.138.037-.42.108-.604.48-.837.072-.046.18-.07.24-.14.157-.18.064-.38.038-.6-.083-.68.262-1.788.917-2.076 1.406-.618 1.318 1.655 1.085 2.396-.03.1.022.208.106.26.324.203.543.348.635.738a4.94 4.94 0 0 1 .14.804c.037.557-.134 1.104-.15 1.66zm1.377-3.268l-.22 3.017c0 .054.013.1.034.137l-.015.12-.67-.006c.01-.732.168-1.428.028-2.16-.128-.673-.25-.983-.765-1.336.08-.223.163-.432.14-.68l-.08-.895c-.082-.475-.28-.996-.756-1.186-.945-.377-1.666.393-1.988 1.175-.138.336-.247.673-.28 1.035-.017.18.074.475.016.57-.084.14-.414.24-.537.4-.292.378-.286.975-.228 1.426a9.61 9.61 0 0 0 .335 1.556l-.9-.043a9.54 9.54 0 0 0-.293.002c.05-.562.007-1.15-.02-1.7L5.8 38.222c-.098-.8-.283-1.703-.15-2.495.15-.894.443-1.847.848-2.656.345-.7.82-1.475 1.358-2.023.275-.28.708-.855 1.085-.982.436-.147.973.4 1.237.658.728.708 1.184 1.656 1.518 2.602.312.882.596 1.797.622 2.74.03 1.046-.13 2.1-.154 3.156zm1.16 1.765c-.116.224-.156.5-.187.74-.03.24-.022.472-.017.7-.682.207-.598-.664-.58-1.074l.16-2.14.15-3.26c-.054-1.012-.352-1.998-.705-2.94-.35-.935-.812-1.87-1.532-2.58-.434-.427-1.2-1.18-1.84-.833-.75.4-1.393 1.2-1.846 1.885-.512.787-.97 1.524-1.294 2.4-.158.43-.235.918-.36 1.365a3.83 3.83 0 0 0-.1 1.47l.148 1.353c.1.58.052 1.176.15 1.75.144.84-.012 1.688.132 2.516-.415.007-.828.01-1.24-.04-.496-.058-1.003-.034-1.502-.07-.13-.01-.26 0-.392-.003.065-.4-.012-.905-.012-1.274l.065-1.745c.127-1.222.084-2.485.08-3.718-.002-.546-.098-1.075-.1-1.624l-.015-2.124-.047-2.046.02-1.578h.27c1.7-.046 3.393.274 5.1.167l2.562-.084 1.54.003.087-.004 1.408-.084c.014 0 .026-.002.038-.004.13.3.286.643.536.807.165.108.38.152.613.164-.198 1.72.098 3.476-.053 5.2-.088 1.006-.018 2.046-.02 3.055l-.006 1.55a.76.76 0 0 0 .066.271c-.102.016-.203.04-.3.07-.542.177-.454.562-.506 1.024-.036.323-.307.43-.452.713zm6.913.995c-.046.268-.155.506-.134.744-.035.066-.048.147-.028.24.03.15-1.976.066-2.14.044-.737-.103-1.502-.016-2.245-.01l-.984.01c-.22.003-.52.068-.732-.004-.42-.143-.344-1.075-.274-1.425.068-.344.2-.43.416-.674l.1-.115c.833.178 1.712.245 2.56.25l3.242-.06a.27.27 0 0 0 .157-.074c.08.117.15.215.165.4.018.218-.064.474-.1.7zm12.197-1.562c-.026.054-.253.2-.318.34-.1.236-.084.515-.056.764.032.3.046.67.14.993l-.652-.052-.45-.07.04-2.756c-.01-.98-.123-2.014.003-2.987.05-.385.02-.775.016-1.162-.004-.32.098-.745.023-1.046-.06-.248-.205-.32-.43-.42-.153-.068-.443-.27-.644-.282.076-.088.136-.22.183-.3a3.01 3.01 0 0 0 .372-.94c.126-.653-.01-1.327-.314-1.912-.222-.425-.544-.815-.903-1.152-.173-.38-.564-.745-.832-.98-.4-.35-1.044-.793-1.574-.888-.587-.105-1.247.178-1.73.5a2.12 2.12 0 0 0-.243.184 1.72 1.72 0 0 0-.215.138l-.85.603c-.57.414-1.12.974-1.45 1.606-.305.585-.44 1.26-.314 1.912.064.33.202.65.372.94.047.08.107.212.183.3-.202.012-.5.214-.644.282-.224.1-.368.172-.43.42-.075.3.027.727.023 1.046-.005.388-.034.777.016 1.162.126.972.013 2.006.003 2.987l.04 2.756c-.135.01-.273.046-.45.07-.218.03-.435.04-.652.052.095-.324.1-.702.14-.993.027-.25.053-.53-.056-.764-.065-.14-.292-.285-.318-.34-.165-.34.107-.814-.303-1.15a.75.75 0 0 0-.209-.119c.244-.396.16-.988.14-1.442-.018-.414.084-.817.058-1.224-.03-.45-.072-.843-.02-1.294.056-.474-.067-.986-.068-1.47l.015-1.827.003-1.673c.001-.4.07-.865-.04-1.253a1.42 1.42 0 0 0 .285-.277c.344-.425.65-.888.932-1.355.135-.223.357-.495.435-.77l.55-.013.563-.017a1.31 1.31 0 0 0 .331.04l.65-.022 2.634.06c.298-.003.58-.076.875-.082h1.086c.333-.002.865.073 1.278-.015l.987.036.35.01.198.005c.077.276.3.548.435.77a12.21 12.21 0 0 0 .932 1.355 1.43 1.43 0 0 0 .285.277c-.1.388-.04.862-.04 1.253l.003 1.673.015 1.827c-.001.484-.123.996-.068 1.47.053.45.01.842-.02 1.294-.026.407.076.8.058 1.224-.02.454-.103 1.047.14 1.442-.076.03-.147.067-.2.12-.4.336-.137.8-.302 1.15zM38.93 43c-.212.072-.513.007-.732.004l-.984-.01c-.743-.005-1.508-.092-2.245.01-.164.023-2.172.108-2.14-.044.02-.092.006-.173-.028-.24.02-.238-.1-.476-.134-.744-.037-.215-.118-.47-.1-.7.014-.174.086-.272.165-.4.04.04.098.067.157.074 1.075.12 2.155.065 3.242.06.848-.004 1.727-.072 2.56-.25.027.036.06.07.1.115.215.244.347.33.416.674.07.35.145 1.282-.274 1.425zm6.4-.592l-.316.001c-.5-.015-1 .08-1.507.08l-1.4-.002c-.016-.556-.187-1.102-.15-1.66.017-.253.082-.553.14-.804.092-.4.312-.535.635-.738.085-.053.137-.16.106-.26-.233-.74-.32-3.014 1.085-2.396.655.288 1 1.395.918 2.076-.026.212-.12.4.038.6.06.07.17.093.24.14.37.232.442.416.48.837.063.72-.285 1.416-.278 2.138zM47.1 38.22c-.1.8-.135 1.617-.172 2.428l-.02 1.7-.293-.002-.9.043c.155-.5.27-1.056.335-1.556.058-.45.064-1.048-.228-1.426-.122-.16-.452-.26-.537-.4-.058-.095.033-.4.016-.57-.034-.362-.143-.7-.28-1.035-.322-.782-1.044-1.553-1.988-1.175-.476.2-.673.7-.756 1.186-.05.283-.056.6-.08.895-.022.247.062.456.14.68-.515.353-.637.663-.765 1.336-.14.734.018 1.43.028 2.16l-.67.006-.015-.12c.022-.038.034-.083.034-.137.004-1.018-.198-2.007-.22-3.017l-.155-3.155c.026-.943.3-1.858.622-2.74.334-.946.8-1.894 1.518-2.602.264-.257.8-.805 1.237-.658.376.127.8.702 1.085.982.538.548 1.013 1.335 1.358 2.023a9.74 9.74 0 0 1 .848 2.656c.134.792-.05 1.705-.15 2.495zm3.37-8.5l-.047 2.046-.015 2.124c-.003.55-.1 1.078-.1 1.624l.08 3.718c.06.584.066 1.154.065 1.745 0 .37-.077.864-.012 1.274-.13.003-.26-.006-.392.003l-1.502.07c-.4.048-.825.046-1.24.04.144-.828-.013-1.675.132-2.516.1-.574.06-1.17.15-1.75l.148-1.353c.05-.493.022-.992-.1-1.47l-.36-1.365c-.325-.887-.782-1.624-1.294-2.4-.453-.696-1.096-1.484-1.846-1.885-.652-.35-1.406.406-1.84.833-.72.708-1.182 1.644-1.532 2.58-.353.943-.65 1.93-.705 2.94-.03.563.07 1.14.08 1.703l.07 1.557c.015.716.13 1.425.16 2.14.018.4.1 1.28-.58 1.074.004-.24.013-.47-.017-.7-.03-.248-.07-.514-.187-.74-.145-.282-.416-.4-.452-.713-.052-.463.036-.847-.506-1.024a1.79 1.79 0 0 0-.3-.07c.037-.078.057-.168.066-.27.04-.507-.006-1.042-.006-1.55l-.02-3.055c-.15-1.723.145-3.478-.053-5.2.232-.013.448-.057.613-.164.25-.164.407-.497.536-.807l.038.004 1.408.084.087.004c.5.04 1.036-.005 1.54-.003l2.562.084c1.697.107 3.4-.213 5.1-.167l.27-.002c-.038.53.03 1.038.02 1.58zm1.25-2.56c-.01.393-.167.207-.522.243-.322.032-.6.066-.925.054-.645-.022-1.28.08-1.923.088l-2.253.074c-.668.013-1.32-.092-1.982-.1l-3.176.04c-.07-.001-.146-.01-.217-.004-.047.005-.087.02-.135.017l-.44-.02-.264-.003c-.064 0-.126.028-.187.023.017-.1.067-.197.098-.294l.08-.24c.043-.12.095-.277.203-.355.27-.195.964.006 1.268.025l1.497.067c.553.03 1.116-.008 1.67-.002.454.005.9-.08 1.345-.07.48.01.956.102 1.435.073.516-.03.987-.083 1.5-.043.882.067 1.9.133 2.8-.07.06.02.114.046.145.083-.06-.073-.025.32-.027.404zm-5.24 7.804a5.52 5.52 0 0 0-.317-1.112c-.127-.53-.408-1.008-.764-1.486-.233-.312-.515-.623-.8-.876-.215-.185-.404-.478-.708-.505-.54-.05-.927.513-1.193.9-.442.625-.863 1.312-1.17 2.012-.205.467-.48 1.267.003 1.662.243.198.53.158.82.16l1.18.016c.787-.017 1.624.25 2.4.145.517-.068.63-.428.55-.906zm-1.005.424l-1.297-.12c-.605-.083-1.232.044-1.838-.05a1.46 1.46 0 0 0-.231.01c-.287-.15-.393-.338-.32-.565.008-.196.115-.444.2-.62.135-.28.318-.52.446-.806a5.41 5.41 0 0 1 .514-.88c.162-.23.4-.67.662-.774.17-.065.363.008.553.15.827.984 1.638 1.944 1.852 3.275.074.457-.182.417-.54.382zM37.184 10.75c-.048-.4-.205-.866-.636-1.006-.437-.142-.694.27-.838.615-.1.237-.115.506-.174.755-.057.24-.084.46-.05.707.015.1.146.152.238.135.38-.07.818-.094 1.203-.035s.283-.952.257-1.17zm-.36.757c-.142-.022-.3-.007-.44-.004l-.54.033c0-.247.08-.5.12-.74.034-.214.28-1.05.635-.6.26.337.27.87.224 1.3zm-4.142 4.195c-.154-.423-.6-.495-1.006-.465-.322.024-.63.108-.956.103-.372-.007-.75-.08-1.122-.097l-.47-.04c-.028-.017-.062-.025-.096-.018l-.037.005-.294-.023-.223-.038c-.258-.025-.52-.013-.78-.012-.495.002-.98.082-1.473.08-.875-.004-1.903-.134-2.792.04l-.133.008-1.122.097c-.325.006-.635-.078-.956-.103-.397-.03-.852.042-1.006.465-.104.286-.05.662-.044.962l-.016.847c.01.296.048.637.085.934.035.284.067.626.142.9.163.594.68.347 1.116.3l2.053-.155.806-.023c.374.05.78.023 1.092.028l1.656.022c.488.004 1.013.06 1.494-.047l.745.02c.666.005 1.4.085 2.053.155.436.046.952.293 1.116-.3.076-.275.107-.617.142-.9l.085-.934c.01-.276-.02-.565-.016-.847.006-.3.06-.676-.044-.962zm-.492.888l-.083 1.144c-.043.3-.018.605-.08.915-.005.024-.035.25-.06.306-.088.192.138.164-.206.18-.452.023-.947-.085-1.406-.1l-1.756-.06a4.26 4.26 0 0 0-.4.019c-.286-.016-.577.003-.862.004l-1.698.02-.695.004a4.64 4.64 0 0 0-.642-.047l-1.756.06c-.46.016-.955.123-1.406.1-.344-.017-.118.012-.206-.18-.025-.055-.055-.282-.06-.306-.063-.3-.038-.607-.08-.915-.05-.366-.067-.76-.083-1.144-.015-.366-.055-.8.382-.888.2-.047.45.003.657.024.553.056 1.098-.07 1.65-.104l.12-.008c.42.054.856.033 1.27.038l1.87.027 1.82-.068c.13-.004.264-.005.386-.035l.637.046c.55.033 1.096.16 1.65.104.207-.02.448-.07.657-.024.438.1.398.523.383.888z"/></svg>