<?xml version="1.0" encoding="UTF-8"?>
<svg width="22px" height="22px" viewBox="0 0 22 22" version="1.1" xmlns="http://www.w3.org/2000/svg" xmlns:xlink="http://www.w3.org/1999/xlink">
    <!-- Generator: Sketch 52.2 (67145) - http://www.bohemiancoding.com/sketch -->
    <title>play-button</title>
    <desc>Created with Sketch.</desc>
    <g id="Page-1" stroke="none" stroke-width="1" fill="none" fill-rule="evenodd">
        <g id="HOME-Revised-Xtreme" transform="translate(-42.000000, -799.000000)" fill="#FD0000" fill-rule="nonzero">
            <g id="Group-10" transform="translate(20.000000, 527.000000)">
                <g id="Group-9" transform="translate(0.000000, 33.000000)">
                    <g id="Group-3" transform="translate(22.000000, 239.000000)">
                        <g id="play-button">
                            <path d="M11,0 C4.92494922,0 0,4.92486328 0,11 C0,17.0751367 4.92494922,22 11,22 C17.0750508,22 22,17.0751367 22,11 C22,4.92486328 17.0750508,0 11,0 Z M14.801875,11.5830859 L9.301875,15.0205859 C9.19058594,15.0900664 9.06404297,15.125 8.9375,15.125 C8.82285938,15.125 8.70804688,15.0964687 8.60414844,15.0387188 C8.38560938,14.9175469 8.25,14.6875781 8.25,14.4375 L8.25,7.5625 C8.25,7.31242188 8.38560938,7.08245313 8.60414844,6.96128125 C8.8226875,6.83942188 9.08991016,6.8468125 9.301875,6.97941406 L14.801875,10.4169141 C15.0027969,10.5428125 15.125,10.7630273 15.125,11 C15.125,11.2369727 15.0027969,11.4572305 14.801875,11.5830859 Z" id="Shape"></path>
                        </g>
                    </g>
                </g>
            </g>
        </g>
    </g>
</svg>