<?xml version="1.0" encoding="UTF-8"?>
<svg width="52px" height="84px" viewBox="0 0 52 84" version="1.1" xmlns="http://www.w3.org/2000/svg" xmlns:xlink="http://www.w3.org/1999/xlink">
    <!-- Generator: Sketch 52.2 (67145) - http://www.bohemiancoding.com/sketch -->
    <title>Group 15 Copy</title>
    <desc>Created with Sketch.</desc>
    <g id="Page-1" stroke="none" stroke-width="1" fill="none" fill-rule="evenodd">
        <g id="HOME--with-info-drawer-360-Copy" transform="translate(-29.000000, -499.000000)" fill-rule="nonzero">
            <g id="other" transform="translate(29.000000, 499.000000)">
                <g id="Group-15-Copy" transform="translate(0.000000, 0.062500)">
                    <g id="cricket-(2)" transform="translate(8.035714, 24.263158)">
                        <path d="M36.1339286,18.1003289 C36.1339286,25.1550029 32.1053484,31.2677526 26.2265982,34.2539534 C24.4759376,35.1427078 22.5601336,35.7551494 20.5388214,36.03224 C19.813955,36.1320039 19.0757502,36.1881432 18.3265357,36.1984661 C18.2402237,36.1999509 18.1532764,36.2006579 18.0669643,36.2006579 C17.7085891,36.2006579 17.3524017,36.1903351 16.9991785,36.1689116 C15.7234108,36.0950255 14.4838477,35.8881444 13.2928395,35.5616314 C12.534027,35.3547503 11.7958928,35.0984468 11.0805539,34.797741 C10.6285269,34.6078997 10.1860274,34.3995338 9.7531966,34.1741988 C8.41031302,33.4760635 7.16559799,32.6131161 6.04685768,31.6135679 C5.24160744,30.8940091 4.50043846,30.1034631 3.83457202,29.2516871 C3.35156302,28.6340841 2.90765206,27.9831793 2.50721474,27.3049826 C1.56406274,25.7076992 0.859098267,23.9530986 0.440241106,22.089896 C0.151875419,20.8065402 0,19.4714996 0,18.1003289 C0,16.7291583 0.151875419,15.3941177 0.440241106,14.1109033 C0.859098267,12.2477007 1.56406274,10.4930294 2.50721474,8.89581675 C2.90765206,8.21762005 3.35156302,7.56671525 3.83457202,6.94911223 C4.50043846,6.0972655 5.24160744,5.30679019 6.04685768,4.58723141 C6.56233076,4.12623866 7.10433969,3.69480035 7.67069667,3.29581537 C10.6101071,1.21901473 14.1961878,0 18.0669643,0 C28.0450805,0 36.1339286,8.10378595 36.1339286,18.1003289 Z" id="Path" fill="#F4A14E"></path>
                        <g id="Group" transform="translate(0.000000, 14.070178)" fill="#F9AF6B">
                            <path d="M0,4.03015137 C0,2.65898075 0.151875419,1.32394008 0.440241106,0.0407257401 L5.60442878,0.0407257401 C5.97091997,0.0407257401 6.30275929,0.189205001 6.54320518,0.430094926 C6.78287476,0.670914146 6.93185664,1.00336628 6.93185664,1.37060499 C6.93185664,2.10494099 6.33748174,2.70041353 5.60449935,2.70041353 L1.32735728,2.70041353 C0.594374895,2.70034282 0,3.29581537 0,4.03015137 Z" id="Path"></path>
                            <path d="M8.99664247,6.68976845 C8.99664247,7.42410445 8.40226758,8.01957699 7.66928519,8.01957699 L0.440241106,8.01957699 C0.151875419,6.73636266 0,5.40132199 0,4.03015137 C0,4.76448737 0.594374895,5.35995991 1.32735728,5.35995991 L7.66921462,5.35995991 C8.03570581,5.35995991 8.36754513,5.50843917 8.60799102,5.7493291 C8.84766059,5.99014832 8.99664247,6.32260045 8.99664247,6.68976845 Z" id="Path"></path>
                        </g>
                        <path d="M36.1339286,18.1003289 C36.1339286,19.0991701 36.052839,20.0787797 35.8979289,21.034067 C35.4156256,23.9965818 34.2158662,26.7175703 32.4829197,29.0122819 C30.8295808,31.2012905 28.6903393,33.0024853 26.2265982,34.2539534 C15.2241698,30.5430324 7.30053563,20.1238892 7.30053563,7.85108839 C7.30053563,6.29962152 7.42735725,4.77770909 7.67069667,3.29574466 C10.6101071,1.21901473 14.1961878,0 18.0669643,0 C19.9318843,0 21.7312411,0.282959049 23.4236075,0.808999859 C28.2906077,2.32058944 32.2771257,5.83721468 34.4201076,10.396235 C35.5196518,12.7337935 36.1339286,15.3454023 36.1339286,18.1003289 Z" id="Path" fill="#4BC999"></path>
                        <path d="M6.04692826,3.98207237 L6.04692826,31.6134972 C5.24167801,30.8939384 4.50050903,30.1033924 3.8346426,29.2516164 C3.3516336,28.6340134 2.90772264,27.9831086 2.50728531,27.3049119 L2.50728531,3.98207237 C2.50728531,3.33343011 3.03235646,2.8073893 3.67980307,2.8073893 L4.87441051,2.8073893 C5.52185711,2.8073893 6.04692826,3.33343011 6.04692826,3.98207237 Z" id="Path" fill="#C69A6A"></path>
                        <g id="Group" transform="translate(11.291853, 0.777749)" fill="#5BD3A2">
                            <path d="M23.1283255,9.61848652 L4.19781681,9.61848652 C3.83132561,9.61848652 3.49948629,9.47000726 3.25981672,9.22911734 C3.01944141,8.98829811 2.87116527,8.65584598 2.87116527,8.28860727 C2.87116527,7.55427127 3.46476385,6.95879873 4.19781681,6.95879873 L8.23303094,6.95879873 C8.59952213,6.95879873 8.93136145,6.81031947 9.17180734,6.56942955 C9.41225323,6.32853962 9.56045879,5.99615819 9.56045879,5.62891948 C9.56045879,4.89458348 8.9660839,4.29911094 8.23310151,4.29911094 L7.1070215,4.29911094 C6.74053031,4.29911094 6.40869099,4.15063168 6.1682451,3.90974176 C5.92857553,3.66892254 5.77959365,3.3364704 5.77959365,2.9692317 C5.77959365,2.23489569 6.37396854,1.63942315 7.10695093,1.63942315 L10.8346738,1.63942315 C11.201165,1.63942315 11.5330043,1.49094389 11.7734502,1.25005397 C12.0138255,1.00994179 12.1621016,0.677489656 12.1621016,0.310321655 C12.1621016,0.214305067 12.1517978,0.121187359 12.1318959,0.031039236 C16.9988256,1.54277023 20.9853436,5.05939546 23.1283255,9.61848652 Z" id="Path"></path>
                            <path d="M24.6060762,20.2563185 C24.1237729,23.2188333 22.9240136,25.9398218 21.1910671,28.2345334 L17.317397,28.2345334 C16.9509058,28.2345334 16.6190665,28.0860542 16.3786206,27.8451642 C16.138951,27.604345 15.9899691,27.2718929 15.9899691,26.9046542 C15.9899691,26.1703182 16.584344,25.5748456 17.3173264,25.5748456 L17.686076,25.5748456 C18.0525672,25.5748456 18.3844065,25.4263664 18.6248524,25.1854765 C18.864522,24.9446572 19.0135038,24.6122051 19.0135038,24.2449664 C19.0135038,23.5106304 18.4191289,22.9151579 17.6861466,22.9151579 L14.068237,22.9151579 C13.7017458,22.9151579 13.3699064,22.7666786 13.1294606,22.5257887 C12.889791,22.2849695 12.7408091,21.9525173 12.7408091,21.5852786 C12.7408091,20.8509426 13.335184,20.2561771 14.0681664,20.2561771 L24.6060762,20.2561771 L24.6060762,20.2563185 Z" id="Path"></path>
                            <path d="M15.2798527,13.8310553 L15.2798527,13.8309139 C15.2798527,13.0965779 14.685619,12.5012467 13.9526366,12.5012467 L1.34316588,12.5012467 C0.610183489,12.5012467 0.0159497419,13.0965779 0.0159497419,13.8309139 L0.0159497419,13.8310553 C0.0159497419,14.5653913 0.610183489,15.1607224 1.34316588,15.1607224 L3.44479138,15.1607224 C4.17777377,15.1607224 4.77200752,15.7560535 4.77200752,16.4903895 L4.77200752,16.4905309 C4.77200752,17.2248669 5.36624126,17.8201981 6.09922365,17.8201981 L16.60721,17.8201981 C17.3401924,17.8201981 17.9344262,17.2248669 17.9344262,16.4905309 L17.9344262,16.4903895 C17.9344262,15.7560535 17.3401924,15.1607224 16.60721,15.1607224 C15.8740865,15.1607224 15.2798527,14.5653913 15.2798527,13.8310553 Z" id="Path"></path>
                        </g>
                        <path d="M4.94075014,2.81106593 C4.32428556,2.84507475 3.8346426,3.35556059 3.8346426,3.98207237 L3.8346426,29.2516164 C3.3516336,28.6340134 2.90772264,27.9831086 2.50728531,27.3049119 L2.50728531,3.98207237 C2.50728531,3.33343011 3.03235646,2.8073893 3.67980307,2.8073893 L4.87441051,2.8073893 C4.89727651,2.8073893 4.91866045,2.80958114 4.94075014,2.81106593 Z" id="Path" fill="#B58657"></path>
                        <path d="M13.2928395,3.98207237 L13.2928395,35.5616314 C12.534027,35.3547503 11.7958928,35.0984468 11.0805539,34.797741 C10.6285269,34.6078997 10.1860274,34.3995338 9.7531966,34.1741988 L9.7531966,3.98207237 C9.7531966,3.33343011 10.2782678,2.8073893 10.9257144,2.8073893 L12.1203218,2.8073893 C12.767839,2.8073893 13.2928395,3.33343011 13.2928395,3.98207237 Z" id="Path" fill="#C69A6A"></path>
                        <path d="M12.186732,2.81106593 C11.5702674,2.84507475 11.0806245,3.35556059 11.0806245,3.98207237 L11.0806245,34.7976703 C10.6285975,34.6078289 10.186098,34.3994631 9.75326718,34.1741281 L9.75326718,3.98207237 C9.75326718,3.33343011 10.2783383,2.8073893 10.9257849,2.8073893 L12.1203924,2.8073893 C12.1424821,2.8073893 12.1645717,2.80958114 12.186732,2.81106593 Z" id="Path" fill="#B58657"></path>
                        <path d="M20.5388214,3.98207237 L20.5388214,36.03224 C19.813955,36.1320039 19.0757502,36.1881432 18.3265357,36.1984661 C18.2402237,36.1999509 18.1532764,36.2006579 18.0669643,36.2006579 C17.7085891,36.2006579 17.3524017,36.1903351 16.9991785,36.1689116 L16.9991785,3.98207237 C16.9991785,3.33343011 17.5242496,2.8073893 18.1716962,2.8073893 L19.3663037,2.8073893 C20.0137503,2.8073893 20.5388214,3.33343011 20.5388214,3.98207237 Z" id="Path" fill="#C69A6A"></path>
                        <path d="M19.4327139,2.81106593 C18.8162493,2.84507475 18.3266063,3.35556059 18.3266063,3.98207237 L18.3266063,36.1984661 C18.2402237,36.1999509 18.1532764,36.2006579 18.0669643,36.2006579 C17.7085891,36.2006579 17.3524017,36.1903351 16.9991785,36.1689116 L16.9991785,3.98207237 C16.9991785,3.33343011 17.5242496,2.8073893 18.1716962,2.8073893 L19.3663037,2.8073893 C19.3884639,2.8073893 19.4105536,2.80958114 19.4327139,2.81106593 Z" id="Path" fill="#B58657"></path>
                        <g id="Group" transform="translate(4.587315, 4.030151)" fill="#D3AA81">
                            <path d="M0.62387486,8.22907416 C0.311655134,8.22907416 0.0585059117,7.97552815 0.0585059117,7.66266113 L0.0585059117,0.619582744 C0.0585059117,0.306786435 0.31158456,0.0531697163 0.62387486,0.0531697163 C0.936094587,0.0531697163 1.18924381,0.30671573 1.18924381,0.619582744 L1.18924381,7.66266113 C1.18917324,7.97545744 0.936094587,8.22907416 0.62387486,8.22907416 Z" id="Path"></path>
                            <path d="M7.95870949,8.22907416 C7.64648976,8.22907416 7.39334054,7.97552815 7.39334054,7.66266113 L7.39334054,0.619582744 C7.39334054,0.306786435 7.64641919,0.0531697163 7.95870949,0.0531697163 C8.27092922,0.0531697163 8.52407844,0.30671573 8.52407844,0.619582744 L8.52407844,7.66266113 C8.52400786,7.97545744 8.27092922,8.22907416 7.95870949,8.22907416 Z" id="Path"></path>
                            <path d="M15.0379954,8.22907416 C14.7257757,8.22907416 14.4726264,7.97552815 14.4726264,7.66266113 L14.4726264,0.619582744 C14.4726264,0.306786435 14.7257051,0.0531697163 15.0379954,0.0531697163 C15.3502151,0.0531697163 15.6033643,0.30671573 15.6033643,0.619582744 L15.6033643,7.66266113 C15.6032938,7.97545744 15.3502151,8.22907416 15.0379954,8.22907416 Z" id="Path"></path>
                        </g>
                        <path d="M35.6678574,2.72169556 L28.6563932,9.74533023 C28.2743757,10.1287602 28.0819201,10.630408 28.0819201,11.1320558 C28.0819201,11.6351884 28.2743757,12.1375432 28.6563932,12.5202662 L26.5717054,14.6088038 L25.8939825,15.2884853 L25.0135003,16.1698864 L24.3357774,16.8495679 L10.8608568,30.3487367 C10.2672582,30.9434315 9.30561579,30.9434315 8.71201721,30.3487367 L5.84049908,27.4726227 C5.24760624,26.8779279 5.2469005,25.9145096 5.84049908,25.3198148 L6.2638024,24.8957298 L7.54253414,23.6146366 L10.9339715,20.2169362 L12.1993648,18.9492061 L19.3154197,11.8198683 L19.9938484,11.1408939 L20.8736248,10.2587857 L21.5513477,9.57981121 L23.6360355,7.49127364 C24.4014819,8.25742663 25.6411156,8.25742663 26.4065621,7.49127364 L33.41725,0.466154175 C33.7277053,0.155903224 34.1354824,0 34.5418479,0 C34.9496249,0 35.3574726,0.155903224 35.6679279,0.466154175 C36.2887681,1.08898932 36.2887681,2.09815337 35.6678574,2.72169556 Z" id="Path" fill="#FFD15C"></path>
                        <g id="Group" transform="translate(19.266724, 9.545095)" fill="#FF525D">
                            <polygon id="Path" points="7.30498179 5.06370843 6.62725891 5.74338992 1.60690121 0.713761018 2.28455352 0.0347865697"></polygon>
                            <polygon id="Path" points="5.7467767 6.6247911 5.06912439 7.30447259 0.0486961147 2.27477298 0.727124738 1.59586924"></polygon>
                        </g>
                        <path d="M11.9920181,22.6446428 C11.9920181,24.4731295 10.5120091,25.9558717 8.68689284,25.9558717 C7.72899086,25.9558717 6.86692848,25.5480487 6.26373183,24.8957298 L7.54246357,23.6146366 L10.9339009,20.2169362 C11.5849468,20.8213175 11.9920181,21.6849011 11.9920181,22.6446428 Z" id="Path" fill="#EDBB4C"></path>
                        <path d="M12.9875361,21.0621367 L12.9875361,21.0931759 C12.9875361,22.9216627 11.5075271,24.4044048 9.6824108,24.4044048 C7.85651822,24.4044048 6.37650921,22.9216627 6.37650921,21.0931759 C6.37650921,19.7522668 7.17145564,18.5982294 8.31517916,18.0774207 C8.73184853,17.8875794 9.19495564,17.7818763 9.68234023,17.7818763 C11.4972232,17.7818763 12.9705983,19.2469424 12.9875361,21.0621367 Z" id="Path" fill="#EF4152"></path>
                        <path d="M12.9875361,21.0621367 C12.540661,22.0114848 11.5776071,22.6682581 10.4603489,22.6682581 C8.91767008,22.6682581 7.66695625,21.4153052 7.66695625,19.8697068 C7.66695625,19.1878335 7.91029567,18.5628065 8.31517916,18.0774207 C8.73184853,17.8875794 9.19495564,17.7818763 9.68234023,17.7818763 C11.4972232,17.7818763 12.9705983,19.2469424 12.9875361,21.0621367 Z" id="Path" fill="#FF525D"></path>
                        <path d="M35.6678574,2.72169556 L28.6563932,9.74533023 C28.2743757,10.1287602 28.0819201,10.630408 28.0819201,11.1320558 C28.0819201,11.6351884 28.2743757,12.1375432 28.6563932,12.5202662 L23.6359649,7.49134435 C24.4014113,8.25749733 25.641045,8.25749733 26.4064915,7.49134435 L33.4171794,0.466224879 C33.7277053,0.155903224 34.1354824,0 34.5418479,0 C34.9496249,0 35.3574726,0.155903224 35.6679279,0.466154175 C36.2887681,1.08898932 36.2887681,2.09815337 35.6678574,2.72169556 Z" id="Path" fill="#B58657"></path>
                        <path d="M22.2512309,16.3183657 C21.8624383,15.9288551 21.2322117,15.9288551 20.8434191,16.3183657 L13.8825566,23.2920831 C13.493764,23.6815937 13.493764,24.312984 13.8825566,24.7024946 C14.2713492,25.0920052 14.9015757,25.0920052 15.2903683,24.7024946 L22.2512309,17.7287773 C22.6399529,17.3392667 22.6399529,16.7078763 22.2512309,16.3183657 Z" id="Path" fill="#FFDC8D"></path>
                        <g id="Group" transform="translate(9.315778, 18.383147)" fill="#FF6E7C">
                            <ellipse id="Oval" cx="1.74564985" cy="1.43636009" rx="1" ry="1"></ellipse>
                            <ellipse id="Oval" cx="0.562828282" cy="0.575675306" rx="1" ry="1"></ellipse>
                        </g>
                        <path d="M18.9196403,1.3964828 L16.6270413,1.3964828 C16.3730452,0.887481754 15.8492444,0.537141402 15.2425896,0.537141402 C14.6359348,0.537141402 14.112134,0.887481754 13.8580673,1.3964828 L9.44535247,1.3964828 C9.19128578,0.887481754 8.66748497,0.537141402 8.06083018,0.537141402 C7.4541754,0.537141402 6.93037458,0.887481754 6.6763079,1.3964828 L4.38385008,1.3964828 C3.99491633,1.3964828 3.67966192,1.7123194 3.67966192,2.1019714 C3.67966192,2.49162341 3.99491633,2.80746001 4.38385008,2.80746001 L6.6893641,2.80746001 C6.94822982,3.30210806 7.46483208,3.64000443 8.06097133,3.64000443 C8.65711058,3.64000443 9.17378341,3.30210806 9.43257856,2.80746001 L13.8709824,2.80746001 C14.1298481,3.30210806 14.6464504,3.64000443 15.2425896,3.64000443 C15.8387289,3.64000443 16.3554017,3.30210806 16.6141969,2.80746001 L18.9197109,2.80746001 C19.3086446,2.80746001 19.623899,2.49162341 19.623899,2.1019714 C19.623899,1.7123194 19.3085741,1.3964828 18.9196403,1.3964828 Z" id="Path" fill="#C69A6A"></path>
                        <path d="M18.9196403,1.97130965 L16.6141969,1.97130965 C16.3553311,2.46595771 15.8387289,2.80385408 15.2425896,2.80385408 C14.6464504,2.80385408 14.1297776,2.46595771 13.8709824,1.97130965 L9.43250799,1.97130965 C9.17364226,2.46595771 8.65704,2.80385408 8.06090076,2.80385408 C7.46476151,2.80385408 6.94808868,2.46595771 6.68929353,1.97130965 L4.38385008,1.97130965 C4.15130849,1.97130965 3.94579677,1.85789978 3.81756367,1.68389623 C3.73125157,1.80098273 3.67966192,1.94529043 3.67966192,2.1019714 C3.67966192,2.49162341 3.99491633,2.80746001 4.38385008,2.80746001 L6.6893641,2.80746001 C6.94822982,3.30210806 7.46483208,3.64000443 8.06097133,3.64000443 C8.65711058,3.64000443 9.17378341,3.30210806 9.43257856,2.80746001 L13.8709824,2.80746001 C14.1298481,3.30210806 14.6464504,3.64000443 15.2425896,3.64000443 C15.8387289,3.64000443 16.3554017,3.30210806 16.6141969,2.80746001 L18.9197109,2.80746001 C19.3086446,2.80746001 19.623899,2.49162341 19.623899,2.1019714 C19.623899,1.94529043 19.5723094,1.80098273 19.4859973,1.68389623 C19.3577642,1.85789978 19.1521819,1.97130965 18.9196403,1.97130965 Z" id="Path" fill="#B58657"></path>
                        <g id="Group" transform="translate(7.763149, 0.989862)" fill="#D3AA81">
                            <ellipse id="Oval" cx="0.611100952" cy="0.608411448" rx="1" ry="1"></ellipse>
                            <ellipse id="Oval" cx="7.89462823" cy="0.608411448" rx="1" ry="1"></ellipse>
                        </g>
                    </g>
                    <g id="iphone" fill="#23283E">
                        <path d="M42.65625,0 C41.0570672,0 9.61997969,0 8.53125,0 C3.82711875,0 0,4.37647852 0,9.75585938 L0,73.4941406 C0,78.8735215 3.82711875,83.25 8.53125,83.25 L42.65625,83.25 C47.3603813,83.25 51.1875,78.8735215 51.1875,73.4941406 L51.1875,9.75585938 C51.1875,4.37647852 47.3603813,0 42.65625,0 Z M46.7460937,74.880609 C46.7460937,76.751746 45.408367,78.2740385 43.7640904,78.2740385 L7.98005022,78.2740385 C6.33577358,78.2740385 4.99804687,76.751746 4.99804687,74.880609 L4.99804687,8.36939103 C4.99804687,6.49825401 6.33577358,4.97596154 7.98005022,4.97596154 L13.2923401,4.97596154 L13.9134914,7.07632472 C14.3217276,8.45728085 15.4593619,9.38741987 16.7396851,9.38741987 L35.0044556,9.38741987 C36.2847787,9.38741987 37.422413,8.45728085 37.8306492,7.07632472 L38.4518005,4.97596154 L43.7640904,4.97596154 C45.408367,4.97596154 46.7460937,6.49825401 46.7460937,8.36939103 L46.7460937,74.880609 Z" id="Shape"></path>
                    </g>
                </g>
            </g>
        </g>
    </g>
</svg>