<svg xmlns="http://www.w3.org/2000/svg" xmlns:xlink="http://www.w3.org/1999/xlink" width="40" height="47" xmlns:v="https://vecta.io/nano"><defs><filter x="-11.1%" y="-9.3%" width="122.2%" height="118.6%" id="A"><feOffset in="SourceAlpha"/><feGaussianBlur stdDeviation="1"/><feColorMatrix values="0 0 0 0 0 0 0 0 0 0 0 0 0 0 0 0 0 0 0.5 0" result="C"/><feMerge><feMergeNode in="C"/><feMergeNode in="SourceGraphic"/></feMerge></filter><path id="B" d="M9.387 2.956c-.33 0-.6-.37-.6-.828V.84c0-.457.268-.828.6-.828s.6.37.6.828V2.13c0 .457-.268.828-.6.828z"/></defs><g filter="url(#A)" transform="translate(2 2)" fill-rule="evenodd"><path d="M13.95 32.12h1.378c2.476-3.55 11.727-1.444 8.714 10.44H5.237c-3.014-11.882 6.238-13.988 8.714-10.44z" fill="#bcd151"/><path d="M16.64 30.766c3.253.86 6.29 4.47 4.277 11.794h3.077c2.666-9.707-3.532-12.89-7.353-11.794z" fill="#8d9f25"/><path d="M14.14 34.56c1.38 0 2.5-1.4 2.5-3.128V27.56h-5v3.872c0 1.728 1.12 3.128 2.5 3.128z" fill="#f6bb93"/><path d="M11.64 31.175c1.555.376 3.328.477 5 .302V28.56h-5v2.615z" fill="#e49775"/><g transform="translate(2.64 16.56)" fill="#f6bb93"><path d="M2.515 4.93H5.77V.07H2.515C1.156.07.055 1.16.055 2.5s1.102 2.43 2.46 2.43z"/><path d="M22.533 4.93H19.28V.07h3.254c1.36 0 2.46 1.088 2.46 2.43s-1.102 2.43-2.46 2.43z"/></g><path d="M4.925 20.56l-1.878-8.128C.49 10.09-.04 5.143 1.507 1.627c.223-.507.837-.658 1.25-.306 1.017.87 3.022 1.696 6.77.247 7.3-2.822 13.45.977 13.8 2.923.395 0 2.312.286 2.312 2.273 0 1.7-2.635 10.69-3.772 13.796H4.925h0z" fill="#52668d"/><path d="M26.055 4.49c-.3-1.53-4.622-4.203-10.415-3.908 4.373.25 7.493 2.54 7.74 3.908.395 0 2.312.286 2.312 2.273 0 1.7-2.636 10.69-3.772 13.796h2.502c1.27-3.105 4.217-12.106 4.217-13.796 0-1.987-2.143-2.273-2.585-2.273z" fill="#243b5d"/><path d="M3.64 23.475c0 6.78 20 6.78 20 0 0-3.885-.54-10.463-1.72-13.02-.28-.607-.89-1.23-1.387-1.516-.42-.242-.863-.38-1.313-.38-.503 0-.994.155-1.486.38-1.276.58-2.564 1.618-4.093 1.618s-2.817-1.04-4.093-1.618c-.493-.224-.983-.38-1.486-.38-.45 0-.892.137-1.313.38a3.8 3.8 0 0 0-1.39 1.519C4.183 13 3.64 19.516 3.64 23.475z" fill="#f6bb93"/><path d="M23.027 10.454c-.263-.607-.833-1.23-1.3-1.516-.395-.242-.8-.38-1.23-.38-.343 0-.68.082-1.016.213.09.048.182.103.27.165.41.286.908.91 1.138 1.516.968 2.557 1.412 9.135 1.412 13.02 0 3.24-3.747 4.93-7.66 5.075 4.887.157 10-1.535 10-5.075 0-3.885-.508-10.463-1.613-13.02z" fill="#e49775"/><g fill="#243b5d"><g transform="translate(9.64 16.56)"><use xlink:href="#B"/><use xlink:href="#B" x="-8.727"/></g><path d="M18.64 16.56c-.635 0-1.27-.114-1.764-.342-.256-.118-.312-.345-.127-.508s.543-.2.8-.08c.592.273 1.592.273 2.185 0 .255-.118.613-.082.8.08s.13.4-.127.508c-.495.228-1.13.342-1.764.342z"/><path d="M12.068 16.56a.81.81 0 0 1-.335-.069c-.592-.273-1.592-.273-2.185 0-.256.118-.613.082-.8-.08s-.13-.4.127-.508c.99-.456 2.54-.456 3.528 0 .256.118.312.345.127.508-.112.098-.286.15-.463.15z"/></g><path d="M30.238 2.6c-3.163-.318-6.06 1.928-6.53 5.067-.485 3.228 1.693 6.2 4.835 6.78a4.41 4.41 0 0 1-1.08 1.565c-.222.206-.063.578.24.556a4.42 4.42 0 0 0 .588-.081c1.296-.268 2.34-1.083 2.94-2.152 2.288-.63 4.08-2.588 4.37-5.086.385-3.317-2.022-6.314-5.36-6.65z" fill="#7cccf2"/><path d="M29.35 2.6c-.387-.04-.77-.04-1.144-.002l.024.002c2.703.335 4.65 3.333 4.34 6.65-.235 2.5-1.684 4.458-3.536 5.086-.486 1.07-1.33 1.884-2.378 2.152.043.056.12.088.213.08a4.24 4.24 0 0 0 .576-.081c1.27-.268 2.3-1.083 2.877-2.152 2.24-.63 3.994-2.588 4.278-5.086.377-3.317-1.98-6.314-5.25-6.65z" fill="#4facdb"/><path d="M6.64 42.56v-2.496c0-.278.28-.504.626-.504s.626.226.626.504v2.496H6.64zm16 0v-2.496c0-.278-.28-.504-.626-.504s-.626.226-.626.504v2.496h1.253z" fill="#8d9f25" fill-rule="nonzero"/><path d="M21.64 40.027c0-.208-.153-.387-.372-.467-.045.895-.242 1.893-.628 3h1v-2.533z" fill="#828c1f"/><g fill="#243b5d"><g transform="translate(28.64 2.56)"><path d="M1.474 7.96c-.305 0-.552-.288-.552-.644V7.23c0-.356.247-.644.552-.644s.552.288.552.644v.086c0 .356-.247.644-.552.644z"/><path d="M1.474 6.156c-.305 0-.552-.288-.552-.644V4.376c0-.545.38-.99.848-.99h.206c.247 0 .477-.116.646-.326s.254-.486.24-.776c-.027-.5-.39-.934-.827-.965-.4-.03-.768.258-.897.697-.1.336-.413.515-.7.4S-.006 1.935.093 1.6C.383.613 1.2-.032 2.102.035c1 .072 1.8 1.005 1.86 2.17.035.648-.156 1.265-.536 1.737-.363.45-.87.716-1.4.73v.838c0 .356-.247.644-.552.644z"/></g><path d="M19.1 24.56c-.138 0-.277-.094-.382-.282-.594-1.058-1.56-1.058-2.154 0-.21.376-.553.376-.764 0s-.21-.985 0-1.362c1.016-1.81 2.668-1.808 3.683 0 .21.376.21.985 0 1.362-.106.188-.244.282-.382.282z"/></g></g></svg>