<?xml version="1.0" encoding="UTF-8"?>
<svg width="52px" height="84px" viewBox="0 0 52 84" version="1.1" xmlns="http://www.w3.org/2000/svg" xmlns:xlink="http://www.w3.org/1999/xlink">
    <!-- Generator: Sketch 52.2 (67145) - http://www.bohemiancoding.com/sketch -->
    <title>Group 4</title>
    <desc>Created with Sketch.</desc>
    <g id="Page-1" stroke="none" stroke-width="1" fill="none" fill-rule="evenodd">
        <g id="HOME--with-info-drawer-360-Copy" transform="translate(-279.000000, -367.000000)">
            <g id="Group-4" transform="translate(279.000000, 367.000000)">
                <g id="iphone" transform="translate(0.000000, 0.312500)" fill="#23283E" fill-rule="nonzero">
                    <path d="M42.65625,0 C41.0570672,0 9.61997969,0 8.53125,0 C3.82711875,0 0,4.37647852 0,9.75585938 L0,73.4941406 C0,78.8735215 3.82711875,83.25 8.53125,83.25 L42.65625,83.25 C47.3603813,83.25 51.1875,78.8735215 51.1875,73.4941406 L51.1875,9.75585938 C51.1875,4.37647852 47.3603813,0 42.65625,0 Z M46.7460937,74.880609 C46.7460937,76.751746 45.408367,78.2740385 43.7640904,78.2740385 L7.98005022,78.2740385 C6.33577358,78.2740385 4.99804687,76.751746 4.99804687,74.880609 L4.99804687,8.36939103 C4.99804687,6.49825401 6.33577358,4.97596154 7.98005022,4.97596154 L13.2923401,4.97596154 L13.9134914,7.07632472 C14.3217276,8.45728085 15.4593619,9.38741987 16.7396851,9.38741987 L35.0044556,9.38741987 C36.2847787,9.38741987 37.422413,8.45728085 37.8306492,7.07632472 L38.4518005,4.97596154 L43.7640904,4.97596154 C45.408367,4.97596154 46.7460937,6.49825401 46.7460937,8.36939103 L46.7460937,74.880609 Z" id="Shape"></path>
                </g>
                <text id="Predict-&amp;-Win" font-family="Tondo-Bold, Tondo" font-size="4.04999989" font-weight="bold" fill="#565656">
                    <tspan x="12.5720996" y="16.2937496">Predict &amp; Win</tspan>
                </text>
                <g id="Group-16" transform="translate(4.950000, 20.393749)">
                    <path d="M6.07499984,0 L35.4374991,8.8817842e-16 C38.7926288,2.7185108e-16 41.5124989,2.71987007 41.5124989,6.07499984 L41.5124989,55.1812485 C41.5124989,56.8588134 40.1525639,58.2187485 38.474999,58.2187485 L3.03749992,58.2187485 C1.35993504,58.2187485 -2.38646763e-16,56.8588134 -4.4408921e-16,55.1812485 L8.8817842e-16,6.07499984 C4.77293527e-16,2.71987007 2.71987007,1.50450576e-15 6.07499984,8.8817842e-16 Z" id="Rectangle" fill="#FFA3A3"></path>
                    <rect id="Rectangle" fill="#FFFFFF" x="4.04999989" y="23.2874994" width="34.4249991" height="7.5937498" rx="2.02499995"></rect>
                    <rect id="Rectangle" fill="#FFFFFF" x="4.04999989" y="34.4249991" width="34.4249991" height="7.5937498" rx="2.02499995"></rect>
                    <rect id="Rectangle" fill="#FFFFFF" x="4.04999989" y="45.5624988" width="34.4249991" height="7.5937498" rx="2.02499995"></rect>
                    <rect id="Rectangle" fill="#DBDBDB" x="4.04999989" y="4.55624988" width="34.4249991" height="5.06249987"></rect>
                    <rect id="Rectangle-Copy-6" fill="#DBDBDB" x="4.04999989" y="13.6687496" width="26.3249993" height="5.06249987"></rect>
                </g>
            </g>
        </g>
    </g>
</svg>