<svg xmlns="http://www.w3.org/2000/svg" width="17" height="18" fill-rule="evenodd" xmlns:v="https://vecta.io/nano"><g fill="#39304f"><path d="M16.66 3.995v1.122c0 1.423-1.127 2.663-2.622 2.884l-.024.002L13.94 8l-.022.072c-.613 1.992-2.31 3.504-4.333 3.86a.79.79 0 0 0-.539.747v3.382h3.076c.266 0 .52.103.71.288a.97.97 0 0 1 .294.694c0 .052-.02.102-.06.14s-.09.058-.142.058H4.486c-.053 0-.104-.02-.142-.058s-.06-.087-.06-.14a.97.97 0 0 1 .294-.694c.188-.184.443-.288.71-.288h2.99v-3.416a.79.79 0 0 0-.572-.726l-.07-.01-.046-.007-.048-.01c-1.945-.42-3.522-1.888-4.117-3.832L3.4 7.996l-.105-.01C1.82 7.734.75 6.526.75 5.117V3.995c0-.977.84-1.773 1.873-1.773H3.2l.017-.092c.16-.8.854-1.38 1.65-1.38h7.63c.797 0 1.49.58 1.65 1.38l.02.092h.63c.502 0 .973.185 1.327.523s.546.778.546 1.25zm-2.486 2.39a5.86 5.86 0 0 1-.036.629l-.02.173.16-.05c.948-.29 1.612-1.12 1.612-2.022V3.995c0-.544-.495-.986-1.103-.986h-.615v3.377zM1.518 5.12c0 .89.62 1.694 1.543 2l.163.056L3.205 7c-.024-.215-.034-.416-.034-.61V3.01h-.55c-.608 0-1.103.442-1.103.986V5.12zm7.156 6.118c2.6 0 4.732-2.175 4.732-4.85l-.002-3.91c0-.518-.41-.94-.916-.94h-7.63c-.505 0-.916.42-.916.94v3.91c0 2.675 2.122 4.85 4.732 4.85z"/><path d="M14.04 8.002l.008.112.008-.001-.017-.11zm-.024.002l-.008-.112h-.002l.01.112zM13.94 8l-.01-.112-.075.007-.022.072.107.033zm-.022.072l-.107-.033h0l.107.033zm-4.333 3.86l-.02-.11-.008.001-.008.002.035.107zm-.54.747l-.113-.002v.002h.113zm0 3.382h-.113v.113h.113v-.113zm-4.7 1.12l.08-.08-.08.08zm3.933-1.12v.113H8.4v-.113h-.112zm0-3.416H8.4v-.006l-.112.006zm-.572-.726l.03-.108-.007-.002h-.007l-.018.11zm-.07-.01l.016-.11h-.004l-.013.112zm-.046-.007l-.024.1h.002l.023-.1zm-.048-.01l.024-.1h0l-.024.1zM3.424 8.07l-.108.033h0l.108-.033zM3.4 7.996l.108-.033-.022-.073-.076-.006-.01.112zm-.105-.01l-.02.11h.01l.01-.112zM3.2 2.222v.113h.093l.017-.092-.11-.02zm.017-.092l-.1-.022V2.1l.11.02zm10.93 0l-.1.022v.001l.1-.023zm.02.092l-.1.023.02.1h.092v-.113zm1.957.523l-.078.08h0l.077-.082zm-1.976 4.27l.112.012h0l-.112-.012zm-.02.173l-.112-.012-.02.17.163-.05-.033-.108zm.16-.05l-.033-.108h0l.033.108zm-.107-4.13v-.113h-.112v.113h.112zM3.06 7.12l.037-.106h-.001l-.035.107zm.163.056l-.037.106.167.058-.02-.176-.112.012zM3.205 7l.112-.012v-.001L3.205 7zM3.17 3.01h.112V2.9H3.17v.113zm10.235 3.376h.113 0-.113zm-.002-3.91h-.112 0 .112zm3.37 2.64V3.995h-.225v1.122h.225zm-2.718 2.996c1.545-.23 2.718-1.512 2.718-2.996h-.225c0 1.362-1.08 2.56-2.526 2.773l.033.223zm-.032.003l.024-.002-.016-.224h-.024l.016.224zm-.07.007l.074-.007-.02-.224-.074.007.02.224zm.074-.007l.022-.072-.215-.067-.022.072.215.067zm-4.42 3.938c2.066-.363 3.796-1.906 4.42-3.938l-.215-.066c-.6 1.952-2.264 3.434-4.245 3.782l.04.222zm-.447.638c.005-.3.19-.553.462-.64l-.07-.214c-.365.12-.61.46-.617.852l.225.003zm0 3.38V12.69h-.225v3.382h.225zm-.112.113h3.076v-.225H9.046v.225zm3.076 0a.9.9 0 0 1 .631.256l.157-.16c-.21-.205-.493-.32-.788-.32v.225zm.63.256a.86.86 0 0 1 .26.614h.225c0-.29-.118-.57-.328-.775l-.157.16zm.26.614c0 .02-.01.043-.025.06l.157.16c.06-.058.093-.137.093-.22h-.225zm-.025.06a.09.09 0 0 1-.063.025v.225c.082 0 .162-.032.22-.1l-.157-.16zm-.063.025H4.486v.225h8.438v-.225zm-8.438 0a.09.09 0 0 1-.063-.025l-.157.16c.06.058.138.1.22.1v-.225zm-.063-.025c-.016-.016-.025-.037-.025-.06h-.225c0 .083.034.162.093.22l.157-.16zm-.025-.06a.86.86 0 0 1 .26-.614l-.157-.16c-.21.205-.328.484-.328.775h.225zm.26-.614a.9.9 0 0 1 .631-.256v-.225c-.295 0-.58.115-.788.32l.157.16zm.63-.256h2.99v-.225H5.29v.225zm2.876-3.528v3.416H8.4v-3.416h-.225zm-.5-.617c.28.08.476.328.49.623l.225-.01c-.02-.39-.278-.72-.654-.828l-.062.216zm-.056-.007l.07.01.035-.222-.072-.01-.033.223zm-.053-.008l.056.01.025-.224-.037-.005-.045.22zm-.05-.01l.048.01.048-.22-.048-.01-.048.22zm-4.2-3.91c.606 1.982 2.215 3.48 4.2 3.91l.047-.22c-1.904-.4-3.45-1.85-4.033-3.755l-.215.066zm-.022-.074l.022.074.215-.065-.022-.074-.215.065zm-.007.07l.105.01.02-.224-.105-.01-.02.224zM.638 5.117c0 1.468 1.115 2.72 2.64 2.98l.038-.222C1.89 7.63.863 6.466.863 5.117H.638zm0-1.122v1.122h.225V3.995H.638zM2.623 2.1c-1.09 0-1.985.84-1.985 1.886h.225c0-.91.784-1.66 1.76-1.66V2.1zm.567 0h-.567v.225H3.2V2.1zm-.093 0L3.08 2.2l.22.04.017-.092-.22-.04zM4.858.638c-.853 0-1.592.62-1.762 1.47l.22.044A1.59 1.59 0 0 1 4.858.863V.638zm7.63 0h-7.63v.225h7.63V.638zm1.76 1.47c-.168-.85-.907-1.47-1.76-1.47v.225c.742 0 1.39.54 1.54 1.3l.22-.044zm.02.09l-.02-.092-.22.045.02.092.22-.045zm.52-.1h-.63v.225h.63V2.1zm1.404.554a2.02 2.02 0 0 0-1.404-.554v.225c.474 0 .917.174 1.25.492l.155-.163zm.58 1.332c0-.504-.208-.977-.58-1.332l-.155.163a1.6 1.6 0 0 1 .511 1.169h.225zM14.25 7.027l.037-.64h-.225c0 .194-.012.396-.035.617l.224.024zm-.02.173l.02-.173-.224-.024-.02.173.224.024zm.017-.17l-.16.05.066.215.16-.05-.066-.215zm1.532-1.914c0 .846-.624 1.638-1.532 1.914l.066.215c.99-.3 1.69-1.172 1.69-2.13h-.225zm0-1.122v1.122h.225V3.995h-.225zm-.99-.874c.558 0 .99.403.99.874h.225c0-.618-.557-1.1-1.216-1.1v.225zm-.615 0h.615v-.225h-.615v.225zm.113 3.265V3.01h-.225v3.377h.225zm-11.19.626C2.214 6.72 1.63 5.956 1.63 5.12h-.225c0 .945.657 1.787 1.62 2.107l.07-.214zm.164.057l-.163-.056-.073.213.163.056.073-.213zm-.167-.058l.02.176.224-.024-.02-.176-.224.024zm-.035-.623a5.56 5.56 0 0 0 .035.624l.224-.025c-.024-.21-.034-.407-.034-.6h-.225zm0-3.377V6.39h.225V3.01h-.225zm-.437.112h.55V2.9h-.55v.225zm-.99.874c0-.47.432-.874.99-.874V2.9c-.658 0-1.216.48-1.216 1.1h.225zm0 1.122V3.997h-.225V5.12h.225zm11.663 1.268c0 2.615-2.074 4.737-4.62 4.737v.225c2.675 0 4.844-2.228 4.844-4.962h-.225zm-.002-3.91l.002 3.91h.225l-.002-3.91h-.225zm-.803-.826c.44 0 .803.368.803.826h.225c0-.577-.458-1.05-1.028-1.05v.225zm-7.63 0h7.63v-.225h-7.63v.225zm-.803.826c0-.458.363-.826.803-.826v-.225c-.57 0-1.028.474-1.028 1.05h.225zm0 3.91v-3.91H3.83v3.91h.225zm4.62 4.737c-2.545 0-4.62-2.122-4.62-4.737H3.83C3.83 9.12 6 11.35 8.674 11.35v-.225z" fill-rule="nonzero"/></g><path d="M6.403 2.26h-.68c-.627 0-1.137.523-1.137 1.164V4.88a.39.39 0 0 0 .385.394.39.39 0 0 0 .385-.394V3.425c0-.208.165-.377.368-.377h.68a.39.39 0 0 0 .385-.394c-.003-.217-.175-.393-.387-.393z" fill="#fe5d5d"/></svg>