<svg xmlns="http://www.w3.org/2000/svg" width="46" height="43" fill="#fff" xmlns:v="https://vecta.io/nano"><path d="M42.22 31.054v-8.827h1.478v-1.47H42.22v-2.942h-1.478V11.93h1.478v-1.47h-1.035a3.6 3.6 0 0 0 .296-1.411 3.58 3.58 0 0 0-1.61-2.992 3.49 3.49 0 0 1-1.189-1.341l-.157-.314V2.366H37.05V4.4l-.157.313a3.5 3.5 0 0 1-1.189 1.341c-1.008.67-1.6 1.787-1.6 2.993 0 .484.106.967.296 1.4h-1.035v1.47h1.478v5.885h-.74v-.86a2.19 2.19 0 0 0-.649-1.561l-1.567-1.56L30.4 15.3l-.58-.576.093-.186a4.59 4.59 0 0 0 .486-2.048c0-1.974-1.264-3.72-3.145-4.345a13.41 13.41 0 0 1-2.707-1.255c.418-.402.68-.963.68-1.585 0-.958-.62-1.767-1.478-2.07V.895H22.27v2.342c-.858.305-1.478 1.114-1.478 2.07a2.19 2.19 0 0 0 .68 1.584 13.39 13.39 0 0 1-2.707 1.255c-1.88.624-3.145 2.37-3.145 4.345a4.59 4.59 0 0 0 .486 2.048l.093.186-.58.576-1.478-1.47-1.567 1.56a2.18 2.18 0 0 0-.65 1.56v.86h-.74v-5.88h1.478v-1.47H11.63a3.6 3.6 0 0 0 .296-1.411 3.58 3.58 0 0 0-1.61-2.992 3.49 3.49 0 0 1-1.189-1.341L8.97 4.4V2.366H7.494V4.4l-.157.313a3.5 3.5 0 0 1-1.189 1.341c-1.008.67-1.6 1.787-1.6 2.993a3.6 3.6 0 0 0 .296 1.411H3.8v1.47h1.478v5.885H3.8v2.942H2.322v1.47H3.8v8.827H.105v11.77h45.8v-11.77H42.22zm-1.478 0h-7.4v-8.827h7.4v8.827zm-17.907-8.827l-2.955 1.47a3.66 3.66 0 0 0-2.042 3.3v4.066h-3.694v-8.827h8.692zm-3.5 4.413a2.19 2.19 0 0 1 1.196-1.626l2.47-1.23 2.47 1.23a2.19 2.19 0 0 1 1.196 1.626h-7.33zm-.03 1.47h1.478v2.942h-1.478V28.1zm2.955 0h1.478v2.942H22.27V28.1zm2.955 0h1.478v2.942h-1.478V28.1zm.913-4.413l-2.955-1.47h8.692v8.827H28.18v-4.066c0-1.402-.783-2.662-2.042-3.3zm9.657-13.7c-.15-.293-.226-.622-.226-.95a2.12 2.12 0 0 1 .95-1.768 5 5 0 0 0 1.266-1.223c.347.477.77.895 1.266 1.223.596.395.95 1.056.95 1.768a2.12 2.12 0 0 1-.226.951l-.23.46h-3.52l-.23-.46zm.513 1.932h2.955v5.885H36.3V11.93zm-4.956 4.503l.522-.52.522.52a.73.73 0 0 1 .216.521v.86h-1.478v-.86a.73.73 0 0 1 .216-.521zM17.1 15.9l.522.52a.73.73 0 0 1 .216.521v.86H16.36v-.86a.73.73 0 0 1 .216-.521l.522-.52zm2.217 1.04a.73.73 0 0 1 .216-.521l.522-.52.522.52a.73.73 0 0 1 .216.521v.86h-1.478v-.86zM23 8.892c.265.52.606 1.003 1.02 1.415a4.03 4.03 0 0 1 1.196 2.874v1.385l-.74.736L23 13.83l-1.478 1.47-.74-.736V13.18c0-1.086.424-2.106 1.196-2.874a5.54 5.54 0 0 0 1.021-1.415zm-.74 8.06a.73.73 0 0 1 .216-.521l.522-.52.522.52a.73.73 0 0 1 .216.521v.86H22.27v-.86zm2.955 0a.73.73 0 0 1 .216-.521l.522-.52.522.52a.73.73 0 0 1 .216.521v.86h-1.478v-.86zm2.955 0a.73.73 0 0 1 .216-.521l.522-.52.522.52a.73.73 0 0 1 .216.521v.86h-1.478v-.86zm.74-4.46a3.11 3.11 0 0 1-.329 1.39l-.278.553-.87.866-.74-.736V13.18a5.49 5.49 0 0 0-1.629-3.914c-.213-.212-.4-.45-.56-.7.728.385 1.486.718 2.27.978 1.277.423 2.135 1.6 2.135 2.95zM23 4.573a.74.74 0 0 1 .739.736.74.74 0 0 1-.739.736.74.74 0 0 1-.739-.736.74.74 0 0 1 .739-.736.74.74 0 0 1-.739-.736.74.74 0 0 1 .739-.736.74.74 0 0 1 .739-.736zm-3.776 4.97c.785-.26 1.542-.593 2.27-.978-.16.253-.348.5-.56.7a5.49 5.49 0 0 0-1.63 3.914v1.385l-.74.736-.87-.866-.278-.554a3.1 3.1 0 0 1-.329-1.389c0-1.34.858-2.526 2.135-2.95zm-5.83 7.408a.73.73 0 0 1 .216-.521l.522-.52.522.52a.73.73 0 0 1 .216.521v.86h-1.478v-.86zM6.242 9.997c-.15-.293-.226-.622-.226-.95a2.12 2.12 0 0 1 .95-1.768 5 5 0 0 0 1.266-1.223c.347.477.77.895 1.266 1.223.596.395.95 1.056.95 1.768a2.12 2.12 0 0 1-.226.951l-.23.46h-3.52l-.23-.46zm.513 1.932H9.7v5.885H6.755V11.93zm-1.478 7.356h35.466v1.47H5.277v-1.47zm0 2.942h7.4v8.827h-7.4v-8.827zm39.16 10.298V38.4H34.093v-.988c0-.982-.385-1.906-1.082-2.6l-1.873-1.866-1.873 1.866a3.65 3.65 0 0 0-1.082 2.601v.988h-1.478V35.47h-7.4v2.942h-1.478v-.988c0-.982-.385-1.906-1.082-2.6l-1.873-1.866-1.873 1.866a3.65 3.65 0 0 0-1.082 2.601v.988H1.583v-5.885h42.855zM6.016 39.88v1.47H4.538v-1.47h1.478zm1.478 0H8.97v1.47H7.494v-1.47zm2.955 0h1.478v1.47H10.45v-1.47zm2.955-1.47h2.955v2.942h-2.955V38.4zm.06-1.47a2.15 2.15 0 0 1 .6-1.077l.828-.825.828.825a2.22 2.22 0 0 1 .59 1.077h-2.837zm4.374 2.942h1.478v1.47h-1.478v-1.47zm7.4-1.47h-4.433v-1.47h4.433v1.47zm-4.433 1.47h1.478v1.47h-1.478v-1.47zm2.955 0h1.478v1.47H23.75v-1.47zm2.955 0h1.478v1.47h-1.478v-1.47zm2.955-1.47h2.955v2.942H29.66V38.4zm.06-1.47a2.15 2.15 0 0 1 .6-1.077l.828-.825.828.825a2.22 2.22 0 0 1 .59 1.077H29.72zm4.374 2.942h1.478v1.47h-1.478v-1.47zm2.955 0h1.478v1.47H37.05v-1.47zm2.955 0h1.478v1.47h-1.478v-1.47zm-38.42 0H3.06v1.47H1.583v-1.47zm41.377 1.47v-1.47h1.478v1.47h-1.48zM6.317 24.188v4.66h4.66v-4.66h-4.66zm3.106 3.106H7.87V25.74h1.553v1.553zm30.28 1.553v-4.66h-4.66v4.66h4.66zm-3.106-3.106h1.553v1.553h-1.553V25.74z"/></svg>