<svg xmlns="http://www.w3.org/2000/svg" width="22" height="22" fill-rule="evenodd" xmlns:v="https://vecta.io/nano"><path d="M11 0C4.925 0 0 4.925 0 11s4.925 11 11 11 11-4.925 11-11C21.994 4.928 17.072.006 11 0zm6.056 7.627l-7.857 7.857c-.307.307-.804.307-1.11 0L4.944 12.34c-.312-.3-.32-.8-.02-1.11s.8-.32 1.11-.02l2.607 2.607 7.302-7.302c.312-.3.8-.293 1.11.02.294.304.294.787 0 1.092z" fill="#14a80d" fill-rule="nonzero"/><path d="M17.056 7.627l-7.857 7.857c-.307.307-.804.307-1.11 0L4.944 12.34c-.312-.3-.32-.8-.02-1.11s.8-.32 1.11-.02l2.607 2.607 7.302-7.302c.312-.3.8-.293 1.11.02.294.304.294.787 0 1.092z" fill="#fff"/></svg>