<svg xmlns="http://www.w3.org/2000/svg" xmlns:xlink="http://www.w3.org/1999/xlink" width="49" height="57" xmlns:v="https://vecta.io/nano"><defs><filter x="-8.8%" y="-8.3%" width="117.6%" height="116.7%" id="A"><feOffset dy="-1" in="SourceAlpha"/><feGaussianBlur stdDeviation="1"/><feColorMatrix values="0 0 0 0 0 0 0 0 0 0 0 0 0 0 0 0 0 0 0.5 0" result="C"/><feMerge><feMergeNode in="C"/><feMergeNode in="SourceGraphic"/></feMerge></filter><path id="B" d="M.186.015H5.75v9.97H.186z"/></defs><g filter="url(#A)" transform="matrix(.965926 .258819 -.258819 .965926 5.304502 -1.502662)" fill="none" fill-rule="evenodd"><path d="M35.678 23.854h0a13.07 13.07 0 0 0-1.714-3.386l-.784-1.007a13.34 13.34 0 0 0-1.863-1.783c-.7-.543-1.437-1.02-2.222-1.42-.805-.41-1.66-.742-2.538-.988a13.9 13.9 0 0 0-2.689-.474c-.883-.067-1.777-.048-2.657.056a13.83 13.83 0 0 0-2.55.55l-1.213.45a13.61 13.61 0 0 0-3.296 1.986c-2.067 1.687-3.554 3.918-4.3 6.452-.11.37-.202.757-.282 1.175l-.08.494-.03.202-.052.402-.062.934-.001.04c-.063 2.1.4 4.21 1.343 6.104 1.04 2.463 1.394 4.595 1.08 6.515-.098.595-.162 1.16-.195 1.723a2.3 2.3 0 0 0-.777 1.151 2.25 2.25 0 0 0-.076.916c-.197.238-.346.516-.436.82-.158.537-.107 1.085.106 1.56a6.63 6.63 0 0 0 1.294 4.694l.335.414.014.016c.233.265.49.513.75.728l.036.03.414.314.05.034a6.91 6.91 0 0 0 .914.527l.06.03.45.19.105.04.5.162.512.12.093.018.5.075.076.007.676.033.385-.01.047-.002.522-.053.033-.004c.35-.05.697-.128 1.036-.23l.03-.01c1.844-.568 3.348-1.854 4.175-3.528a2.31 2.31 0 0 0 .893-1.238 2.25 2.25 0 0 0 .075-.916c.198-.238.346-.516.436-.82.135-.46.117-.93-.025-1.353l.023-.078c.266-.478.5-.973.742-1.507.778-1.79 2.237-3.416 4.46-4.967 1.832-1.12 3.374-2.67 4.463-4.486h0l.003-.005.014-.023.45-.81.18-.38.085-.185.2-.457.403-1.148c.746-2.534.7-5.194-.135-7.692" fill="#000"/><path d="M33.26 22.558a11.12 11.12 0 0 0-1.461-2.88l-.67-.856a11.34 11.34 0 0 0-1.586-1.514 11.45 11.45 0 0 0-1.891-1.205 11.76 11.76 0 0 0-2.164-.84c-.763-.213-1.53-.346-2.293-.403a11.73 11.73 0 0 0-2.26.047c-.742.088-1.47.245-2.17.467l-1.034.38a11.63 11.63 0 0 0-2.81 1.689c-1.7 1.383-3.005 3.257-3.662 5.482-.098.333-.176.666-.24 1l-.08.515-.056.42-.053.792-.001.028c-.057 1.842.36 3.634 1.168 5.238 1.025 2.4 1.655 4.976 1.227 7.584-.092.558-.154 1.11-.18 1.673l.027.008-.34 1.157-.037-.01c-.2-.06-.43.06-.5.264s.06.418.272.476l.037.01-.29.987-.037-.01c-.2-.06-.43.06-.5.264s.06.418.272.476l.04.01c-.397 1.458-.063 2.95.784 4.083l.24.294c.175.198.356.373.55.533l.02.016.29.22.035.024c.2.137.412.26.635.367l.053.025.327.138.064.023.354.115.364.085.066.013.353.052.06.006a4.88 4.88 0 0 0 .742.016l.04-.002.37-.037.024-.004c.254-.036.504-.092.747-.166 1.508-.463 2.762-1.617 3.26-3.185l.012.003c.21.06.43-.06.5-.264s-.06-.418-.27-.476l-.01-.003.29-.987v.003c.21.06.43-.06.5-.264s-.06-.418-.272-.476l-.01-.003.342-1.157a14.9 14.9 0 0 0 .759-1.512c1.06-2.432 3-4.29 5.178-5.8 1.562-.943 2.89-2.248 3.848-3.84l.014-.024.387-.7.182-.385.213-.478.342-.97c.657-2.226.57-4.488-.115-6.536" fill="#fff"/><path d="M33.26 22.558a11.12 11.12 0 0 0-1.461-2.88l-.67-.856a11.34 11.34 0 0 0-1.586-1.514 11.45 11.45 0 0 0-1.891-1.205 11.76 11.76 0 0 0-2.164-.84c-.763-.213-1.53-.346-2.293-.403a11.73 11.73 0 0 0-2.26.047c-.742.088-1.47.245-2.17.467l-1.034.38a11.63 11.63 0 0 0-2.81 1.689c-1.7 1.383-3.005 3.257-3.662 5.482-.098.333-.176.666-.24 1l-.08.515-.056.42-.053.792-.001.028c-.057 1.842.36 3.634 1.168 5.238 1.025 2.4 1.655 4.976 1.227 7.584-.092.558-.154 1.11-.18 1.673l.027.008-.34 1.157-.037-.01c-.2-.06-.43.06-.5.264s.06.418.272.476l.037.01-.29.987-.037-.01c-.2-.06-.43.06-.5.264s.06.418.272.476l.04.01c-.397 1.458-.063 2.95.784 4.083l.24.294c.175.198.356.373.55.533l.02.016.29.22.035.024c.2.137.412.26.635.367l.053.025.327.138.064.023.354.115.364.085.066.013.353.052.06.006a4.88 4.88 0 0 0 .742.016l.04-.002.37-.037.024-.004c.254-.036.504-.092.747-.166 1.508-.463 2.762-1.617 3.26-3.185l.012.003c.21.06.43-.06.5-.264s-.06-.418-.27-.476l-.01-.003.29-.987v.003c.21.06.43-.06.5-.264s-.06-.418-.272-.476l-.01-.003.342-1.157a14.9 14.9 0 0 0 .759-1.512c1.06-2.432 3-4.29 5.178-5.8 1.562-.943 2.89-2.248 3.848-3.84l.014-.024.387-.7.182-.385.213-.478.342-.97c.657-2.226.57-4.488-.115-6.536z" stroke="#fff" stroke-width="2.957" stroke-linejoin="round"/><path d="M22.09 43.347l-.98 3.658c-.708 2.64-3.275 4.188-5.705 3.442s-3.84-3.516-3.132-6.155l.98-3.658 8.836 2.713z" fill="#1263a1"/><path d="M31.33 31.786l.014-.025.387-.7.182-.385.213-.478.342-.973a10.85 10.85 0 0 0-.115-6.541c-.343-1.025-.836-1.996-1.46-2.883l-.67-.857c-.474-.55-1.005-1.06-1.586-1.516a11.45 11.45 0 0 0-1.891-1.206 11.75 11.75 0 0 0-2.164-.841c-.763-.213-1.53-.346-2.293-.404a11.72 11.72 0 0 0-2.26.048c-.742.087-1.47.245-2.17.467l-1.034.382c-1.013.43-1.96.998-2.8 1.7-1.7 1.384-3.005 3.26-3.662 5.487a10.57 10.57 0 0 0-.24 1.001l-.08.515-.056.42-.053.793-.001.028c-.057 1.844.36 3.637 1.168 5.243 1.025 2.403 1.656 4.98 1.227 7.59a14.64 14.64 0 0 0-.181 1.675l9.408 2.626a14.94 14.94 0 0 0 .759-1.513c1.06-2.435 3-4.295 5.178-5.804a11.29 11.29 0 0 0 3.848-3.842" fill="#ffcf00"/><g stroke-width=".605"><path d="M19.874 42.76c.55-2.89 1.44-5.975 3.86-7.775-.994-.068-1.926-.69-2.336-1.562-.313-.666-.312-1.456-.023-2.13.186-.43.898-1.307 1.137-.366.193.758-.133 1.754-.577 2.383-.47.667-1.35 1.142-2.156.912l-.244-.067c-.81-.215-1.293-1.064-1.324-1.87-.03-.758.246-1.77.83-2.314.723-.676.843.428.762.888-.127.718-.563 1.39-1.197 1.794-.83.53-1.964.585-2.844.137 1.058 2.757.106 5.824-1.027 8.554" stroke="#fff"/><g stroke="#025383" stroke-linecap="round"><path d="M12.408 41.46l10 3"/><path d="M11.96 43.652l10 3"/></g></g><path d="M12.804 48.067c.646.425 1.574.753 2.7.907a10.31 10.31 0 0 0 3.301-.086l-3.068-.327-2.932-.493" fill="#065382"/><g fill="#fff"><path d="M31.51 26.805c-.195 1.927-1.687 3.362-3.332 3.205s-2.82-1.845-2.626-3.77 1.687-3.362 3.332-3.205 2.82 1.845 2.626 3.77"/><path d="M26.995 20.8c.015.828-.197 1.524-.472 1.554s-.51-.616-.526-1.444.197-1.523.472-1.554.51.616.526 1.444"/></g><g transform="translate(.047 .744)" fill="#000"><path d="M3.187 8.375C2.063 7.95.8 8.5.368 9.61s.127 2.353 1.252 2.78l8.068 3.062-5.63-6.47c-.227-.26-.525-.475-.872-.607"/><path d="M16.58 1.082a2.2 2.2 0 0 0-2.993-.735c-1.032.612-1.366 1.933-.746 2.95l4.454 7.304-.406-8.513c-.018-.34-.118-.693-.31-1.007"/><path d="M45.032 36.737l-8.08-3.033 5.652 6.45a2.21 2.21 0 0 0 .874.604c1.126.423 2.386-.134 2.815-1.244s-.136-2.352-1.262-2.775"/><path d="M49.78 23.818c-.354-1.135-1.574-1.773-2.726-1.424l-8.264 2.503 8.48 1.66a2.24 2.24 0 0 0 1.066-.053c1.152-.35 1.798-1.552 1.444-2.687"/><path d="M29.9.08c-1.198-.124-2.27.733-2.397 1.914l-.9 8.476 4.872-7.04a2.16 2.16 0 0 0 .368-.988C31.958 1.26 31.088.204 29.9.08"/><path d="M43.867 12.177a2.13 2.13 0 0 0-.164-3.037c-.896-.794-2.275-.72-3.08.162l-5.778 6.34 8.137-2.878a2.21 2.21 0 0 0 .886-.587"/></g><path d="M4.057 9.35l5.946 6.272-8.523-2.97C.292 12.238-.3 11.032.158 9.957s1.79-1.6 2.978-1.197a2.35 2.35 0 0 1 .921.588" fill="#fff"/><path d="M3.358 10.772l4.775 3.832-5.625-2.787c-.353-.175-.48-.57-.28-.882s.644-.423.997-.248c.048.024.095.054.134.086" fill="#1064a2"/><g transform="translate(12.688 .634)"><mask id="C" fill="#fff"><use xlink:href="#B"/></mask><path d="M5.276 1.95l.473 8.035L.55 3.1C-.174 2.13.215.883 1.42.306S4.2.04 4.914 1a1.77 1.77 0 0 1 .361.95" fill="#fff" mask="url(#C)"/></g><path d="M15.284 2.392l1.292 6.39-2.933-5.978c-.184-.375.022-.807.46-.965s.942.02 1.126.394c.025.05.043.107.054.16" fill="#1064a2"/><path d="M41.808 40.5l-5.96-6.275 8.518 2.952c1.187.41 1.783 1.62 1.33 2.7s-1.78 1.622-2.968 1.21c-.366-.127-.68-.336-.922-.587" fill="#fff"/><path d="M43.748 39.777l-4.804-3.837 5.616 2.747c.352.173.486.575.3.9s-.625.447-.977.275a.76.76 0 0 1-.134-.085" fill="#1064a2"/><path d="M46.806 25.92l-8.414-1.545 8.2-2.33c1.142-.324 2.353.268 2.704 1.325s-.3 2.175-1.433 2.5c-.352.1-.72.11-1.058.05" fill="#fff"/><path d="M47.032 25.907l-6.25-.232 6.166-.76c.387-.048.755.134.823.406s-.19.53-.578.58a1.05 1.05 0 0 1-.16.007" fill="#1064a2"/><path d="M31.847 4.366l-5.566 6.768 1.03-8.148c.143-1.135 1.37-1.96 2.738-1.84s2.362 1.136 2.218 2.27a1.89 1.89 0 0 1-.42.949" fill="#fff"/><path d="M30.088 3.378l-2.92 5.902 1.57-6.43c.1-.404.494-.648.883-.546s.625.512.526.915a.81.81 0 0 1-.058.159" fill="#1064a2"/><path d="M42.7 12.916l-8.492 2.857 6.03-6.292c.84-.877 2.28-.95 3.215-.16a2.04 2.04 0 0 1 .172 3.014 2.32 2.32 0 0 1-.924.582" fill="#fff"/><path d="M41.687 11.08l-5.61 2.71 4.828-3.842a.74.74 0 0 1 1.006.087.66.66 0 0 1-.091.96.76.76 0 0 1-.135.085" fill="#1064a2"/></g></svg>