<svg xmlns="http://www.w3.org/2000/svg" width="44" height="44" fill="#fff" fill-rule="evenodd" xmlns:v="https://vecta.io/nano"><path d="M43.313 15.813v-1.375a.69.69 0 0 0-.201-.486l-1.174-1.174v-.29a3.7 3.7 0 0 0-2.062-3.321V7.563H38.5v1.604a3.7 3.7 0 0 0-.915.64c-.123-.113-.285-.18-.46-.18a3.7 3.7 0 0 0-2.061-3.209V4.813h-1.375v1.603a3.7 3.7 0 0 0-2.061 3.209h-.002V7.563a.69.69 0 0 0-.687-.687h-.745c-.158-.94-.636-1.774-1.318-2.384V2.063H27.5v1.61a4.1 4.1 0 0 0-1.204-.232 5.51 5.51 0 0 0-3.609-2.023V0h-1.375v1.418a5.51 5.51 0 0 0-3.609 2.023c-.175.007-.347.025-.516.054V2.063h-1.375v1.93c-1.043.605-1.798 1.652-2.005 2.884h-.745a.69.69 0 0 0-.687.688v2.063h-.002a3.7 3.7 0 0 0-2.061-3.209V4.813H8.938v1.603a3.7 3.7 0 0 0-2.061 3.209c-.176.001-.34.07-.46.18a3.7 3.7 0 0 0-.915-.64V7.563H4.125v1.603a3.7 3.7 0 0 0-2.062 3.321v.29L.89 13.95a.69.69 0 0 0-.201.486v1.375A.69.69 0 0 0 0 16.5v26.813A.69.69 0 0 0 .688 44h42.625a.69.69 0 0 0 .688-.687V16.5a.69.69 0 0 0-.687-.687zm-2.347-2.062l.972.972v1.1h-2.874l-.412-2.062h2.314zm-1.778-3.388c.798.357 1.33 1.133 1.372 2.013h-2.275l-.213-.958a2.33 2.33 0 0 1 1.115-1.055zm-4.813-2.75c.798.357 1.33 1.133 1.372 2.013h-2.745c.042-.88.575-1.656 1.372-2.013zM36.568 11l1.068 4.813h-6.008L31.625 11h4.943zM13.75 8.25h.688a.69.69 0 0 0 .688-.687c0-1.516 1.234-2.75 2.75-2.75l.138.003c.238.01.463-.1.598-.294a4.13 4.13 0 0 1 6.777 0 .69.69 0 0 0 .598.294l.138-.003c1.516 0 2.75 1.234 2.75 2.75a.69.69 0 0 0 .688.688h.688v2.08a5.52 5.52 0 0 0-1.665-1.275l-.1-.045c-.194-.097-.42-.097-.615 0l-.1.045c-.645.323-1.207.758-1.665 1.275-.014-2.39-1.453-4.502-3.673-5.4l-.196-.08a.69.69 0 0 0-.511 0l-.196.08c-2.22.888-3.66 3-3.673 5.4a5.52 5.52 0 0 0-1.665-1.275L16.12 9c-.194-.097-.42-.097-.615 0l-.1.045a5.52 5.52 0 0 0-1.665 1.275V8.25zm16.5 5.724v1.838h-4.125v-1.838a4.1 4.1 0 0 1 2.063-3.573 4.1 4.1 0 0 1 2.063 3.573zm-5.5-3.608v5.447h-5.5v-5.447c0-1.817 1.077-3.43 2.75-4.125 1.673.696 2.75 2.308 2.75 4.125zm-11 3.608a4.1 4.1 0 0 1 2.063-3.573 4.1 4.1 0 0 1 2.063 3.573v1.838H13.75v-1.838zM9.625 7.612c.798.357 1.33 1.133 1.372 2.013H8.253c.042-.88.575-1.656 1.372-2.013zM7.432 11h4.943l-.002 4.813H6.364L7.432 11zm-2.62-.638a2.33 2.33 0 0 1 1.115 1.055l-.213.958H3.44c.042-.88.575-1.656 1.372-2.013zm-2.75 4.36l.972-.972H5.35l-.412 2.063H2.063v-1.1zm-.687 5.215H2.75v6.188H1.375v-6.187zm0 7.563H18.63a4.8 4.8 0 0 0-.98 1.375H1.375V27.5zm2.75-1.375v-6.187h2.24c-.553.713-.864 1.598-.864 2.527v3.66H4.125zM11 23.375v-.9c0-.93-.3-1.814-.864-2.527h2.24v6.188H11V24.75H9.625v1.375h-2.75v-3.66c0-.922.458-1.777 1.225-2.288l.15-.1.15.1c.767.51 1.225 1.367 1.225 2.288v.9H11zm2.75 2.75v-6.187h1.375v6.188H13.75zm2.75 0v-6.187h3.614c-.553.713-.864 1.598-.864 2.527v3.66H16.5zm-1.375 16.5H1.375V41.25h13.75v1.375zm-11.687-2.75v-4.348c0-.922.458-1.777 1.225-2.288l.15-.1.15.1c.767.51 1.225 1.367 1.225 2.288v4.348h-2.75zm6.875 0v-4.348c0-.922.458-1.777 1.225-2.288l.15-.1.15.1c.767.51 1.225 1.367 1.225 2.288v4.348h-2.75zm4.813-7.562v7.563h-.687v-4.348c0-1.382-.687-2.665-1.837-3.432l-.532-.354c-.23-.154-.532-.154-.763 0l-.532.354c-1.15.767-1.837 2.05-1.837 3.432v4.348H7.563v-4.348c0-1.382-.687-2.665-1.837-3.432l-.532-.354c-.23-.154-.532-.154-.763 0l-.532.354c-1.15.767-1.837 2.05-1.837 3.432v4.348h-.687V30.25H15.81c-.432.577-.684 1.293-.684 2.063zM27.5 42.625h-1.375v-8.247a4.96 4.96 0 0 0-1.871-3.892l-1.825-1.46a.69.69 0 0 0-.859 0l-1.825 1.46a4.96 4.96 0 0 0-1.871 3.892v2.06h1.375v-2.06a3.59 3.59 0 0 1 1.355-2.818L22 30.443l1.395 1.116a3.59 3.59 0 0 1 1.355 2.818v8.247h-5.5v-4.812h-1.375v4.813H16.5V32.313c0-1.008.72-1.863 1.712-2.033a.69.69 0 0 0 .535-.455l.01-.032c.48-1.36 1.767-2.277 3.208-2.292H22h.034c1.44.014 2.727.932 3.208 2.29l.01.033a.69.69 0 0 0 .535.455c.992.17 1.712 1.024 1.712 2.033v10.313zm-6.875-16.5v-3.66c0-.922.458-1.777 1.225-2.288l.15-.1.15.1c.767.51 1.225 1.367 1.225 2.288v3.66h-2.75zm3.26-6.187H27.5v6.188h-2.75v-3.66c0-.93-.3-1.814-.864-2.527zm18.74 22.688h-13.75V41.25h13.75v1.375zm-11.687-2.75v-4.348c0-.922.458-1.777 1.225-2.288l.15-.1.15.1c.767.51 1.225 1.367 1.225 2.288v4.348h-2.75zm6.875 0v-4.348c0-.922.458-1.777 1.225-2.288l.15-.1.15.1c.767.51 1.225 1.367 1.225 2.288v4.348h-2.75zm4.813-11h-5.5v1.375h5.5v9.625h-.687v-4.348c0-1.382-.687-2.665-1.837-3.432l-.532-.354c-.23-.154-.532-.154-.763 0l-.532.354c-1.15.767-1.837 2.05-1.837 3.432v4.348h-1.375v-4.348c0-1.382-.687-2.665-1.837-3.432l-.532-.354c-.23-.154-.532-.154-.763 0l-.532.354c-1.15.767-1.837 2.05-1.837 3.432v4.348h-.687v-7.562c0-.77-.252-1.485-.684-2.062h7.56v-1.375h-9.4a4.8 4.8 0 0 0-.98-1.375h17.256v1.375zm-13.75-2.75v-6.187h1.375v6.188h-1.375zm2.75 0v-6.187h2.24C33.3 20.65 33 21.535 33 22.465v3.66h-1.375zm2.75 0v-3.66c0-.922.458-1.777 1.225-2.288l.15-.1.15.1c.767.51 1.225 1.367 1.225 2.288v3.66h-2.75zm3.26-6.187h2.24v6.188H38.5v-3.66c0-.93-.3-1.814-.864-2.527zm4.99 6.188H41.25v-6.187h1.375v6.188zm0-7.562H1.375v-1.375h41.25v1.375z" fill-rule="nonzero"/><path d="M16.36 6.77h.564v1.128h-.564zm10.717 0h.564v1.128h-.564zM9.026 12.4h1.128v2.256H9.026zm24.82 0h1.128v2.256h-1.128z"/></svg>