<?xml version="1.0" encoding="UTF-8"?>
<svg width="48px" height="48px" viewBox="0 0 48 48" version="1.1" xmlns="http://www.w3.org/2000/svg" xmlns:xlink="http://www.w3.org/1999/xlink">
    <!-- Generator: Sketch 52.2 (67145) - http://www.bohemiancoding.com/sketch -->
    <title>medal</title>
    <desc>Created with Sketch.</desc>
    <g id="Page-1" stroke="none" stroke-width="1" fill="none" fill-rule="evenodd">
        <g id="HOME-Revised-Copy-3" transform="translate(-336.000000, -436.000000)" fill="#7CC12A" fill-rule="nonzero">
            <g id="Group-2" transform="translate(36.000000, 420.000000)">
                <g id="medal" transform="translate(300.000000, 16.000000)">
                    <path d="M34.807034,20.6827147 C34.6424978,20.1796412 34.2048062,19.8131757 33.6783462,19.7371588 L27.5969357,18.8602544 L24.8758669,13.3828676 C24.640176,12.9087 24.1543957,12.6085235 23.6224837,12.6085235 L23.6222041,12.6085235 C23.0900126,12.6086625 22.6042322,12.9091169 22.368821,13.3835625 L19.6508277,18.862339 L13.5698365,19.7424397 C13.0432367,19.8185956 12.6059645,20.1854779 12.4417078,20.6885515 C12.2774512,21.191625 12.4147278,21.7438941 12.7958033,22.113 L17.1973225,26.3759228 L16.160199,32.3971015 C16.0703121,32.9185191 16.2861524,33.4453566 16.7167145,33.7562338 C16.9602337,33.9320316 17.2484867,34.0213897 17.5381376,34.0213897 C17.7606879,34.0213897 17.9842167,33.9685809 18.1888735,33.8615735 L23.6272367,31.0174015 L29.0671376,33.8586551 C29.5380999,34.1047721 30.1088743,34.0636368 30.5392966,33.7524816 C30.9697189,33.4414654 31.1851398,32.914489 31.0951132,32.3932103 L30.0547744,26.3725875 L34.454057,22.1074412 C34.834713,21.7380574 34.9715703,21.1857882 34.807034,20.6827147 Z M27.5763861,24.8929676 C27.247034,25.2123221 27.0967567,25.6723147 27.1746213,26.1231353 L27.8598861,30.088661 L24.2768543,28.2172831 C23.8696376,28.0045191 23.3830185,28.0046581 22.9758018,28.217561 L19.3937485,30.0908846 L20.0769164,26.1249419 C20.1546413,25.6741213 20.0040843,25.2141287 19.6745925,24.8949132 L16.7755673,22.0871515 L20.7807737,21.5075051 C21.2360791,21.4416331 21.6295962,21.1571603 21.8331346,20.7470581 L23.6233225,17.1385478 L25.4156072,20.7462243 C25.6194253,21.1563265 26.0130821,21.4405213 26.4683876,21.5061154 L30.4738735,22.0836772 L27.5763861,24.8929676 Z" id="Shape"></path>
                    <path d="M23.6616127,-5.86197757e-14 C36.6684309,-5.86197757e-14 47.25,10.5300857 47.25,23.4732181 C47.25,27.0086459 46.4792041,30.4075679 44.9593861,33.5755495 C44.6480194,34.2243132 43.9978872,34.6036765 43.320719,34.6036765 C43.058525,34.6036765 42.7925206,34.5469796 42.5401249,34.4270856 C41.6357824,33.9973452 41.2527433,32.9195634 41.6844107,32.0196363 C42.9694335,29.3413421 43.6210173,26.4658729 43.6210173,23.4732181 C43.6210173,12.5213368 34.6672284,3.61126433 23.6616127,3.61126433 C20.2345829,3.61126433 16.8549114,4.48952381 13.8880366,6.15106653 C13.0147219,6.64039284 11.9082451,6.33199087 11.4168809,5.46294011 C10.9255166,4.59388935 11.2350688,3.49281486 12.1083835,3.00384967 C15.6174283,1.03859962 19.6123939,-5.86197757e-14 23.6616127,-5.86197757e-14 Z M40.5540987,37.6089615 C41.2656714,38.2954037 41.2827291,39.4250802 40.5919846,40.132221 L40.5445824,40.1805771 C40.192836,40.5386976 39.7263545,40.7183824 39.2596935,40.7183824 C38.8073969,40.7183824 38.3547411,40.5495822 38.0055085,40.2107327 C37.2960904,39.5223277 37.2826238,38.3924727 37.9753434,37.6874732 L38.0152044,37.6467898 C38.7057693,36.9396491 39.842526,36.9226977 40.5540987,37.6089615 Z M35.7008979,41.8838311 C36.1850455,42.759102 35.8652466,43.8594788 34.9868436,44.3419002 C31.5219006,46.2444427 27.5871565,47.25 23.6081017,47.25 C10.5905944,47.25 2.48689958e-13,36.6971678 2.48689958e-13,23.7260762 C2.48689958e-13,20.3295835 0.711148665,17.0519771 2.11383311,13.9840956 C2.5296989,13.0746245 3.60659154,12.6732702 4.51931708,13.0874722 C5.43204261,13.5018551 5.83501475,14.574908 5.41914895,15.484379 C4.23347744,18.0779821 3.63219725,20.8509099 3.63219725,23.7260762 C3.63219725,34.7016152 12.5934695,43.6309348 23.6082833,43.6309348 C26.9760699,43.6309348 30.3046306,42.7808164 33.2340328,41.1723229 C34.1124358,40.6899015 35.2169318,41.0085602 35.7008979,41.8838311 Z M9.07281529,7.70601133 C9.79998105,8.37883241 9.84028918,9.50997262 9.16296873,10.2323079 L9.13129806,10.266092 C8.77662256,10.6468329 8.29400475,10.8397059 7.80994736,10.8397059 C7.37267619,10.8397059 6.93450529,10.6824045 6.58846724,10.3642266 C5.85896217,9.69390804 5.81487516,8.56294657 6.48967635,7.83828753 L6.52962458,7.79556589 C7.20694502,7.07340937 8.34564953,7.03301151 9.07281529,7.70601133 Z" id="Combined-Shape"></path>
                </g>
            </g>
        </g>
    </g>
</svg>