<?xml version="1.0" encoding="UTF-8"?>
<svg width="150px" height="90px" viewBox="0 0 150 90" version="1.1" xmlns="http://www.w3.org/2000/svg" xmlns:xlink="http://www.w3.org/1999/xlink">
    <!-- Generator: Sketch 52.2 (67145) - http://www.bohemiancoding.com/sketch -->
    <title>Group 43</title>
    <desc>Created with Sketch.</desc>
    <defs>
        <polygon id="path-1" points="0.172469242 0.0787737588 144.161086 0.0787737588 144.161086 86.1165976 0.172469242 86.1165976"></polygon>
        <polygon id="path-3" points="0.0616660995 0.109231547 6.38666723 0.109231547 6.38666723 6.61572497 0.0616660995 6.61572497"></polygon>
        <polygon id="path-5" points="0 0.0107654196 4.21662736 0.0107654196 4.21662736 4.34848028 0 4.34848028"></polygon>
        <polygon id="path-7" points="0.331273364 0.186122709 38.859486 0.186122709 38.859486 69.0697674 0.331273364 69.0697674"></polygon>
        <polygon id="path-9" points="0 74.6511628 85.5140187 74.6511628 85.5140187 0 0 0"></polygon>
    </defs>
    <g id="Page-1" stroke="none" stroke-width="1" fill="none" fill-rule="evenodd">
        <g id="PREDICTION-CLOSED" transform="translate(-105.000000, -557.000000)">
            <g id="Group-11" transform="translate(0.000000, 465.000000)">
                <g id="Group-43" transform="translate(105.000000, 92.000000)">
                    <g id="Group-3" transform="translate(0.700935, 3.488372)">
                        <mask id="mask-2" fill="white">
                            <use xlink:href="#path-1"></use>
                        </mask>
                        <g id="Clip-2"></g>
                        <path d="M79.7595341,7.6932539 C64.2337677,12.6295521 15.0566097,-11.7114227 18.9052258,21.5366945 C19.5065969,26.4804982 22.7042566,33.4634482 20.0036404,38.0789818 C18.047201,41.5354967 14.4603955,43.5608168 10.9957683,44.9047098 C1.94584793,48.5686155 -1.42357541,55.4449073 0.868060876,65.2590392 C6.99839619,91.7043402 40.3701265,85.4328398 57.8892237,77.591489 C70.3482357,71.7561019 85.0421584,70.7539102 97.9434717,75.6902083 C108.050552,79.7096413 114.351064,88.1415623 126.213465,85.671438 C136.733888,83.569087 138.321413,73.6783192 135.249502,64.4709538 C133.504097,58.7746174 132.250977,56.367698 135.712827,50.8692717 C138.629635,45.4083734 143.764297,41.2704313 144.159393,34.8729162 C144.245473,27.9436903 141.04821,20.9611354 134.860356,18.3365543 C129.79789,16.1895648 125.208668,17.0562612 120.200548,15.7360701 C109.060506,12.6184912 101.901572,-4.61786429 88.0819384,1.30995986 C84.6363519,2.92958394 82.6973666,6.66222491 78.9427643,7.7493482" id="Fill-1" fill="#84DCF2" mask="url(#mask-2)"></path>
                    </g>
                    <g id="Group-42">
                        <path d="M74.9503571,11.224547 C76.3547222,11.224547 76.3571032,9.05568959 74.9503571,9.05568959 C73.5459921,9.05568959 73.5436111,11.224547 74.9503571,11.224547" id="Fill-4" fill="#84DCF2"></path>
                        <path d="M10.292619,44.57073 C13.1013492,44.57073 13.1061111,40.2330152 10.292619,40.2330152 C7.48388889,40.2330152 7.47912698,44.57073 10.292619,44.57073" id="Fill-6" fill="#84DCF2"></path>
                        <path d="M141.517778,61.8672892 C144.326508,61.8672892 144.33127,57.5295743 141.517778,57.5295743 C138.709048,57.5295743 138.704286,61.8672892 141.517778,61.8672892" id="Fill-8" fill="#84DCF2"></path>
                        <path d="M67.5842857,10.1401183 C70.3930159,10.1401183 70.3977778,5.80240344 67.5842857,5.80240344 C64.7755556,5.80240344 64.7707937,10.1401183 67.5842857,10.1401183" id="Fill-10" fill="#84DCF2"></path>
                        <path d="M145.882857,54.9812063 C149.534048,54.9812063 149.540397,49.3421769 145.882857,49.3421769 C142.231667,49.3421769 142.225317,54.9812063 145.882857,54.9812063" id="Fill-12" fill="#84DCF2"></path>
                        <path d="M2.92674603,51.7279201 C6.57793651,51.7279201 6.58428571,46.0888908 2.92674603,46.0888908 C-0.724444444,46.0888908 -0.730793651,51.7279201 2.92674603,51.7279201" id="Fill-14" fill="#84DCF2"></path>
                        <path d="M124.05746,17.8395228 C127.708651,17.8395228 127.715,12.2004934 124.05746,12.2004934 C120.40627,12.2004934 120.399921,17.8395228 124.05746,17.8395228" id="Fill-16" fill="#84DCF2"></path>
                        <g id="Group-20" transform="translate(70.634921, 0.000000)">
                            <mask id="mask-4" fill="white">
                                <use xlink:href="#path-3"></use>
                            </mask>
                            <g id="Clip-19"></g>
                            <path d="M3.22416667,6.61572497 C7.4372619,6.61572497 7.44440476,0.109152679 3.22416667,0.109152679 C-0.988928571,0.109152679 -0.996071429,6.61572497 3.22416667,6.61572497" id="Fill-18" fill="#84DCF2" mask="url(#mask-4)"></path>
                        </g>
                        <path d="M148.229325,60.0777846 C150.336071,60.0777846 150.339246,56.8244985 148.229325,56.8244985 C146.122579,56.8244985 146.119405,60.0777846 148.229325,60.0777846" id="Fill-21" fill="#84DCF2"></path>
                        <path d="M2.1627381,42.6729798 C4.26948413,42.6729798 4.27265873,39.4196936 2.1627381,39.4196936 C0.0559920635,39.4196936 0.0528174603,42.6729798 2.1627381,42.6729798" id="Fill-23" fill="#84DCF2"></path>
                        <path d="M130.877897,20.9844055 C132.984643,20.9844055 132.987817,17.7311193 130.877897,17.7311193 C128.771151,17.7311193 128.767976,20.9844055 130.877897,20.9844055" id="Fill-25" fill="#84DCF2"></path>
                        <path d="M130.332262,15.0200475 C131.736627,15.0200475 131.739008,12.8511901 130.332262,12.8511901 C128.927897,12.8511901 128.925516,15.0200475 130.332262,15.0200475" id="Fill-27" fill="#84DCF2"></path>
                        <path d="M19.7869444,11.2784924 C22.5956746,11.2784924 22.6004365,6.94077755 19.7869444,6.94077755 C16.9782143,6.94077755 16.9734524,11.2784924 19.7869444,11.2784924" id="Fill-29" fill="#84DCF2"></path>
                        <path d="M143.973135,86.0503256 C146.781865,86.0503256 146.786627,81.7126107 143.973135,81.7126107 C141.164405,81.7126107 141.159643,86.0503256 143.973135,86.0503256" id="Fill-31" fill="#84DCF2"></path>
                        <g id="Group-35" transform="translate(0.000000, 83.599596)">
                            <mask id="mask-6" fill="white">
                                <use xlink:href="#path-5"></use>
                            </mask>
                            <g id="Clip-34"></g>
                            <path d="M2.10829365,4.34848028 C4.91702381,4.34848028 4.92178571,0.0107654196 2.10829365,0.0107654196 C-0.700436508,0.0107654196 -0.705198413,4.34848028 2.10829365,4.34848028" id="Fill-33" fill="#84DCF2" mask="url(#mask-6)"></path>
                        </g>
                        <path d="M26.3345635,8.02520627 C27.7389286,8.02520627 27.7413095,5.85634884 26.3345635,5.85634884 C24.9301984,5.85634884 24.9278175,8.02520627 26.3345635,8.02520627" id="Fill-36" fill="#84DCF2"></path>
                        <path d="M144.245952,77.3748959 C145.650317,77.3748959 145.652698,75.2060384 144.245952,75.2060384 C142.841587,75.2060384 142.839206,77.3748959 144.245952,77.3748959" id="Fill-38" fill="#84DCF2"></path>
                        <path d="M8.65571429,83.6824034 C10.0600794,83.6824034 10.0624603,81.513546 8.65571429,81.513546 C7.25134921,81.513546 7.24896825,83.6824034 8.65571429,83.6824034" id="Fill-40" fill="#84DCF2"></path>
                    </g>
                    <g id="Group-30" transform="translate(32.242991, 3.488372)">
                        <g id="Group-3" transform="translate(23.130841, 5.581395)">
                            <mask id="mask-8" fill="white">
                                <use xlink:href="#path-7"></use>
                            </mask>
                            <g id="Clip-2"></g>
                            <path d="M35.5148598,69.0698081 L3.67589953,69.0698081 C1.82858645,69.0698081 0.331273364,67.581964 0.331273364,65.7463334 L0.331273364,3.5095974 C0.331273364,1.67437305 1.82858645,0.186122709 3.67589953,0.186122709 L35.5148598,0.186122709 C37.3621729,0.186122709 38.859486,1.67437305 38.859486,3.5095974 L38.859486,65.7463334 C38.859486,67.581964 37.3621729,69.0698081 35.5148598,69.0698081" id="Fill-1" fill="#2F302F" mask="url(#mask-8)"></path>
                        </g>
                        <mask id="mask-10" fill="white">
                            <use xlink:href="#path-9"></use>
                        </mask>
                        <g id="Clip-5"></g>
                        <polygon id="Fill-4" fill="#FFFFFF" mask="url(#mask-10)" points="25.2336449 64.8837209 60.2803738 64.8837209 60.2803738 10.4651163 25.2336449 10.4651163"></polygon>
                        <path d="M42.4065421,72.5581395 C40.6647899,72.5581395 39.2523364,71.1525729 39.2523364,69.4184003 C39.2523364,67.6846364 40.6647899,66.2790698 42.4065421,66.2790698 C44.1482942,66.2790698 45.5607477,67.6846364 45.5607477,69.4184003 C45.5607477,71.1525729 44.1482942,72.5581395 42.4065421,72.5581395" id="Fill-6" fill="#FFFFFF" mask="url(#mask-10)"></path>
                        <path d="M42.4065421,71.1627907 C41.4387845,71.1627907 40.6542056,70.3817791 40.6542056,69.4184216 C40.6542056,68.4550641 41.4387845,67.6744186 42.4065421,67.6744186 C43.3742997,67.6744186 44.1588785,68.4550641 44.1588785,69.4184216 C44.1588785,70.3817791 43.3742997,71.1627907 42.4065421,71.1627907" id="Fill-7" fill="#2F302F" mask="url(#mask-10)"></path>
                        <path d="M45.4813852,8.37209302 L40.0326335,8.37209302 C39.6018579,8.37209302 39.2523364,8.06005137 39.2523364,7.67461075 C39.2523364,7.28917013 39.6018579,6.97674419 40.0326335,6.97674419 L45.4813852,6.97674419 C45.9125907,6.97674419 46.2616822,7.28917013 46.2616822,7.67461075 C46.2616822,8.06005137 45.9125907,8.37209302 45.4813852,8.37209302" id="Fill-8" fill="#FFFFFF" mask="url(#mask-10)"></path>
                        <path d="M29.4392523,34.1860465 C32.2406154,34.1860465 32.2453649,30 29.4392523,30 C26.6378892,30 26.6331398,34.1860465 29.4392523,34.1860465" id="Fill-9" fill="#F7C3D2" mask="url(#mask-10)"></path>
                        <path d="M55.3738318,34.1860465 C58.1751949,34.1860465 58.1799443,30 55.3738318,30 C52.5724687,30 52.5677193,34.1860465 55.3738318,34.1860465" id="Fill-10" fill="#F7C3D2" mask="url(#mask-10)"></path>
                        <path d="M53.9719626,1.06891926 L53.9719626,15.6752668 C53.9719626,17.0992851 56.0747664,17.1016993 56.0747664,15.6752668 L56.0747664,1.06891926 C56.0747664,-0.355099028 53.9719626,-0.357513301 53.9719626,1.06891926" id="Fill-11" fill="#F29100" mask="url(#mask-10)"></path>
                        <path d="M55.0235294,21.627907 C57.3579986,21.627907 57.361517,18.1395349 55.0235294,18.1395349 C52.6886205,18.1395349 52.685102,21.627907 55.0235294,21.627907" id="Fill-12" fill="#F29100" mask="url(#mask-10)"></path>
                        <path d="M37.1495327,26.5116279 L33.6448598,30" id="Stroke-13" stroke="#325875" stroke-width="2.30999996" stroke-linecap="round" stroke-linejoin="round" mask="url(#mask-10)"></path>
                        <path d="M37.1495327,30 L33.6448598,26.5116279" id="Stroke-14" stroke="#325875" stroke-width="2.30999996" stroke-linecap="round" stroke-linejoin="round" mask="url(#mask-10)"></path>
                        <path d="M51.1682243,26.5116279 L47.6635514,30" id="Stroke-15" stroke="#325875" stroke-width="2.30999996" stroke-linecap="round" stroke-linejoin="round" mask="url(#mask-10)"></path>
                        <path d="M51.1682243,30 L47.6635514,26.5116279" id="Stroke-16" stroke="#325875" stroke-width="2.30999996" stroke-linecap="round" stroke-linejoin="round" mask="url(#mask-10)"></path>
                        <path d="M49.7663551,33.4883721 L49.7663551,36.5704063 C49.7663551,37.1801149 49.271554,37.6744186 48.6621335,37.6744186 L48.0664349,37.6744186 C47.4566107,37.6744186 46.9626168,37.1801149 46.9626168,36.5704063 L46.9626168,33.4883721" id="Fill-17" fill="#F29BB4" mask="url(#mask-10)"></path>
                        <polygon id="Fill-18" fill="#EF82A2" mask="url(#mask-10)" points="49.0654206 34.1860465 48.364486 37.6744186 47.6635514 34.1860465"></polygon>
                        <path d="M32.9439252,33.8372093 L51.8691589,33.8372093" id="Stroke-19" stroke="#325875" stroke-width="1.92499997" stroke-linecap="round" stroke-linejoin="round" mask="url(#mask-10)"></path>
                        <path d="M23.5145532,51.7288621 C21.7367058,52.3492512 20.8741658,52.1812208 20.0891528,50.5089374 C19.5773114,49.4201485 19.1734396,48.3101052 18.4460647,47.3324009 C17.7592798,46.4096374 16.8541201,45.416293 15.6968957,45.091461 C14.6346522,44.7934978 13.5468369,45.1853013 12.4833757,45.2659078 C9.89900265,45.4628122 6.6915712,44.8781145 6.26050411,41.9887135 C5.94755427,39.8913413 5.97231424,37.9808478 5.03752373,36.0077939 C4.58129076,35.0445266 3.13750012,35.8834755 3.59210948,36.8427326 C4.62269268,39.0187061 4.10963354,41.4100313 4.92549499,43.5996398 C5.80711245,45.9677054 8.40082124,46.5917037 10.69051,46.860793 C12.1180646,47.0284223 13.9320372,46.3278278 15.2678581,46.714017 C16.9474773,47.1992599 17.8112351,49.4490225 18.444441,50.8851009 C19.5874589,53.4785437 21.1700677,54.2974413 23.9598268,53.3241483 C24.9688973,52.9716454 24.5341771,51.3727499 23.5145532,51.7288621" id="Fill-20" fill="#2F302F" mask="url(#mask-10)"></path>
                        <path d="M5.72942784,33.7969877 C5.21891995,34.407051 4.59340299,34.7890956 3.85039475,35.1307462 C3.06560264,35.49165 3.75607077,36.5664336 4.53962177,36.2062848 C5.50561522,35.7623278 6.25069197,35.2115343 6.90847766,34.4259267 C7.13229028,34.158269 6.95398485,33.7286576 6.66356626,33.5734991 C6.31233352,33.386252 5.95365416,33.5289524 5.72942784,33.7969877" id="Fill-21" fill="#2F302F" mask="url(#mask-10)"></path>
                        <path d="M3.50467587,32.0476022 C3.50795289,33.4754997 3.69328659,34.8956213 3.70493822,36.3243372 C3.71185637,37.1931897 4.91343045,37.195236 4.9065123,36.3243372 C4.89486067,34.8956213 4.70952697,33.4754997 4.70624995,32.0476022 C4.70406527,31.1787497 3.50249119,31.1771127 3.50467587,32.0476022" id="Fill-22" fill="#2F302F" mask="url(#mask-10)"></path>
                        <path d="M1.56097538,33.241923 C2.46129933,34.3353301 3.37548696,35.4263603 4.61220912,36.176295 C5.34902315,36.6235619 6.02508162,35.4929155 5.29112188,35.0476294 C4.1624549,34.3630615 3.33348815,33.3144207 2.51226875,32.3176771 C1.97158508,31.6604443 1.02477701,32.5910288 1.56097538,33.241923" id="Fill-23" fill="#2F302F" mask="url(#mask-10)"></path>
                        <path d="M0.197510839,35.1694984 C1.39109463,36.1903942 2.88064364,36.5288165 4.45808771,36.0929482 C5.24564299,35.8751899 4.90961941,34.7540339 4.11700821,34.9731993 C2.97553919,35.2887553 1.98030266,35.0970295 1.10485231,34.3487713 C0.505143546,33.8355091 -0.404142508,34.654829 0.197510839,35.1694984" id="Fill-24" fill="#2F302F" mask="url(#mask-10)"></path>
                        <path d="M61.9693731,52.9140176 C62.0295489,50.7533321 62.7831794,50.0049971 64.8979297,49.8274399 C66.2492248,49.7143383 67.7347899,49.8318991 69.0549737,49.4824599 C71.2389057,48.9031692 70.9114182,46.3719647 71.9135299,44.7703008 C73.3028955,42.5496189 76.2314521,42.8467638 78.4493609,42.1438316 C80.8830022,41.3723899 81.8601429,39.5202 82.0075122,37.0838549 C82.0726004,36.0087821 80.3835838,36.0128359 80.318905,37.0838549 C80.109313,40.5458162 77.5680103,40.5786521 74.7884605,41.1964541 C72.3392636,41.7404766 70.670715,42.9991874 69.815154,45.3739145 C69.4921695,46.2702138 69.4741576,47.4259576 68.6059065,47.8698507 C67.5125077,48.4288724 65.4976411,48.069704 64.2679257,48.2115877 C61.416738,48.5411631 60.3581347,50.134314 60.2807658,52.9140176 C60.2508826,53.9903065 61.9394898,53.9894957 61.9693731,52.9140176" id="Fill-25" fill="#2F302F" mask="url(#mask-10)"></path>
                        <path d="M77.8434735,35.660368 C78.4756439,36.9110776 79.5634609,37.8144299 81.070634,38.3388131 C81.4416028,38.4678635 81.8802243,38.1997214 81.9796869,37.9103809 C82.1019992,37.5578169 81.8295969,37.2829806 81.4635563,37.1554179 C80.4922272,36.8173581 79.6763644,36.1401228 79.2691051,35.3342091 C79.1136387,35.0262734 78.7816484,34.813173 78.3596041,34.905405 C78.0114847,34.9816451 77.6889031,35.3550356 77.8434735,35.660368" id="Fill-26" fill="#2F302F" mask="url(#mask-10)"></path>
                        <path d="M79.9065421,33.4710561 L79.9065421,36.9937399 C79.9065421,37.9006709 81.3084112,37.9019519 81.3084112,36.9937399 L81.3084112,33.4710561 C81.3084112,32.5645521 79.9065421,32.5632712 79.9065421,33.4710561" id="Fill-27" fill="#2F302F" mask="url(#mask-10)"></path>
                        <path d="M82.8226936,33.9259932 C82.4296888,35.0399534 81.7505764,35.8792861 80.8278011,36.618965 C80.1805222,37.1377058 81.1032975,38.0349768 81.7450744,37.5204848 C82.8447019,36.638664 83.6079172,35.5838009 84.0732349,34.2647391 C84.3471593,33.488366 83.0946529,33.1546415 82.8226936,33.9259932" id="Fill-28" fill="#2F302F" mask="url(#mask-10)"></path>
                        <path d="M84.2520599,35.1887113 C83.6693837,36.0887844 82.74732,36.6655112 81.7526752,37.063172 C80.9664476,37.3770315 81.3107009,38.6395847 82.108282,38.3209817 C83.441098,37.7881321 84.6251024,37.056452 85.4076807,35.8472628 C85.8683071,35.134952 84.7110644,34.479958 84.2520599,35.1887113" id="Fill-29" fill="#2F302F" mask="url(#mask-10)"></path>
                    </g>
                </g>
            </g>
        </g>
    </g>
</svg>