<svg xmlns="http://www.w3.org/2000/svg" xmlns:xlink="http://www.w3.org/1999/xlink" width="44" height="47" xmlns:v="https://vecta.io/nano"><defs><filter x="-11.2%" y="-10.5%" width="122.5%" height="120.9%" id="A"><feOffset dy="-1" in="SourceAlpha"/><feGaussianBlur stdDeviation="1"/><feColorMatrix values="0 0 0 0 0 0 0 0 0 0 0 0 0 0 0 0 0 0 0.5 0" result="C"/><feMerge><feMergeNode in="C"/><feMergeNode in="SourceGraphic"/></feMerge></filter><path id="B" d="M33.177 13.21c-.38 0-.692-.298-.692-.668s.304-.668.684-.668h.008c.38 0 .688.298.688.668s-.308.668-.688.668z"/><path id="C" d="M1.27 21.504c-.38 0-.692-.298-.692-.668s.304-.668.684-.668h.008c.38 0 .688.298.688.668s-.31.668-.688.668z"/><path id="D" d="M23.9 23.56h-7.5c-.415 0-.75-.223-.75-.5s.335-.5.75-.5h7.5c.415 0 .75.224.75.5s-.335.5-.75.5z"/></defs><g filter="url(#A)" transform="translate(2 3)"><path d="M22.187 4.94l-.547.62-.553-.62c-.413-.487-.96-1.194-1.247-1.806-.127-.256-.2-.5-.2-.7 0-1.037.893-1.875 2-1.875s2 .837 2 1.875c0 .2-.073.444-.2.7-.287.613-.833 1.32-1.253 1.806z" fill="#656d78"/><path d="M20.64 29.565V41.56a16.77 16.77 0 0 1-9-2.616l5.536-10.376.007-.007c1.018.637 2.196 1.005 3.457 1.005z" fill="#8cc152"/><path d="M20.065 5.56l.575.743v11.252c-1.26 0-2.444.368-3.462 1.005L11.64 8.17c2.492-1.575 5.365-2.505 8.425-2.61z" fill="#ffce54"/><path d="M16.64 28.27l-.006.007-5.017 10.28c-2.48-1.686-4.552-4.13-5.977-7.065l8.702-5.935c.553 1.13 1.344 2.065 2.298 2.71z" fill="#ed5565"/><path d="M14.634 20.092l.006.007a7.36 7.36 0 0 0-.85 3.455v.007H3.64v-.007c0-3.275.8-6.348 2.208-8.993h.006l8.78 5.532z" fill="#8cc152"/><path d="M20.14 40.6c3.18 0 6.166-.827 8.735-2.29 2.656-1.5 4.875-3.65 6.4-6.244a16.62 16.62 0 0 0 2.347-8.528v-.007c0-3.105-.847-6.02-2.34-8.528a17.29 17.29 0 0 0-6.401-6.25c-2.42-1.372-5.21-2.193-8.2-2.285.424-.512.975-1.254 1.264-1.897 9.918.9 17.684 9.04 17.684 18.96 0 10.518-8.728 19.04-19.5 19.04S.64 34.038.64 23.52c0-9.92 7.766-18.06 17.684-18.96.3.643.84 1.385 1.257 1.897-2.972.092-5.763.906-8.183 2.285-2.656 1.5-4.868 3.656-6.4 6.25-1.493 2.508-2.34 5.423-2.34 8.528v.007a16.62 16.62 0 0 0 2.347 8.528c1.526 2.593 3.745 4.753 6.4 6.244 2.57 1.464 5.554 2.29 8.735 2.29z" fill="#e6e9ed"/><path d="M11.617 6.56l5.023 10.277c-.954.653-1.752 1.595-2.298 2.723l-.006-.007-8.696-5.93c1.432-2.93 3.497-5.38 5.977-7.064z" fill="#ed5565"/><path d="M36.64 23.56c0 3.277-.806 6.353-2.214 9l-8.786-5.543a7.37 7.37 0 0 0 .85-3.457h10.15z" fill="#8cc152"/><path d="M35.64 13.624h-.006l-8.696 5.936c-.546-1.128-1.344-2.07-2.298-2.716L29.663 6.56c2.48 1.69 4.546 4.132 5.977 7.064z" fill="#ed5565"/><path d="M3.646 23.56h10.138c0 1.26.31 2.446.856 3.464h-.006l-8.78 5.536c-1.407-2.647-2.213-5.723-2.213-9h.006z" fill="#ffce54"/><path d="M29.64 8.17l-5.538 10.39a6.44 6.44 0 0 0-3.462-1.012V6.302l.568-.742c3.067.105 5.94 1.042 8.432 2.61z" fill="#8cc152"/><path d="M26.94 25.56l8.7 5.94c-1.426 2.933-3.5 5.375-5.98 7.06l-5.02-10.283c.955-.653 1.746-1.59 2.3-2.717z" fill="#ed5565"/><g fill="#ffce54"><path d="M24.104 28.56l5.536 10.384a16.77 16.77 0 0 1-9 2.616V29.565c1.26 0 2.446-.367 3.464-1.005z"/><path d="M36.64 23.553v.007H26.5v-.007a7.36 7.36 0 0 0-.85-3.455l8.792-5.538c1.408 2.645 2.208 5.718 2.208 8.993z"/></g><g transform="translate(4.64 5.56)" fill="#e6e9ed"><path d="M24.085 16.7v.007c0 1.215-.337 2.35-.922 3.33-.606 1.015-1.473 1.856-2.52 2.443a7.02 7.02 0 0 1-3.441.895c-1.252 0-2.422-.327-3.434-.895-1.046-.58-1.912-1.422-2.52-2.437a6.45 6.45 0 0 1-.929-3.338V16.7c0-1.215.337-2.35.922-3.33a6.78 6.78 0 0 1 2.519-2.45 7.02 7.02 0 0 1 3.441-.895c1.252 0 2.43.327 3.44.9a6.71 6.71 0 0 1 2.519 2.443c.585.98.922 2.116.922 3.33z"/><use xlink:href="#B"/><use xlink:href="#C"/><use xlink:href="#B" x="-4.274" y="-7.182"/><use xlink:href="#C" x="4.276" y="7.184"/><use xlink:href="#B" x="-11.677" y="-11.33"/><use xlink:href="#B" x="-20.227" y="19.624"/><use xlink:href="#B" x="-20.227" y="-11.33"/><use xlink:href="#B" x="-11.677" y="19.624"/><use xlink:href="#C" x="4.276" y="-15.478"/><use xlink:href="#B" x="-4.274" y="15.478"/><use xlink:href="#C" y="-8.304"/><use xlink:href="#B" x="0.001" y="8.294"/></g><g fill="#ccd1d9"><use xlink:href="#D"/><use xlink:href="#D" y="1"/><path d="M22.974 25.56h-2.667c-.368 0-.666-.223-.666-.5s.298-.5.666-.5h2.667c.368 0 .666.224.666.5s-.298.5-.666.5z"/></g></g></svg>