<svg xmlns="http://www.w3.org/2000/svg" width="32" height="28" xmlns:v="https://vecta.io/nano"><path d="M25.643 17.6h-.963c-.113 0-.204-.1-.204-.204V4.604c0-.113.1-.204.204-.204h.963c.197 0 .357-.16.357-.357V.357C26 .16 25.84 0 25.643 0H.357C.16 0 0 .16 0 .357v3.686c0 .197.16.357.357.357h.963c.113 0 .204.1.204.204v12.792c0 .113-.1.204-.204.204H.357c-.197 0-.357.16-.357.357v3.686c0 .197.16.357.357.357h25.286c.197 0 .357-.16.357-.357v-3.686c0-.197-.16-.357-.357-.357zm-1.37-14.667H22.1c-.113 0-.204-.1-.204-.204V1.67c0-.113.1-.204.204-.204h2.182c.113 0 .204.1.204.204v1.06c0 .113-.1.204-.204.204zM5.637 2.73V1.67c0-.113.1-.204.204-.204h2.13c.113 0 .204.1.204.204v1.06c0 .113-.1.204-.204.204H5.84c-.113 0-.204-.1-.204-.204zm4.266-1.263h2.13c.113 0 .204.1.204.204v1.06c0 .113-.1.204-.204.204h-2.13c-.113 0-.204-.1-.204-.204V1.67c0-.113.1-.204.204-.204zm4.063 0h2.13c.113 0 .204.1.204.204v1.06c0 .113-.1.204-.204.204h-2.13c-.113 0-.204-.1-.204-.204V1.67c0-.113.1-.204.204-.204zm4.063 0h2.13c.113 0 .204.1.204.204v1.06c0 .113-.1.204-.204.204h-2.13c-.113 0-.204-.1-.204-.204V1.67c0-.113.1-.204.204-.204zm-16.3 0H3.9c.113 0 .204.1.204.204v1.06c0 .113-.1.204-.204.204H1.727c-.113 0-.204-.1-.204-.204V1.67c0-.113.1-.204.204-.204zM3.353 4.4h19.295c.17 0 .306.137.306.306v12.588c0 .17-.137.306-.306.306H3.353c-.17 0-.306-.137-.306-.306V4.706c0-.17.137-.306.306-.306zm4.823 14.87v1.06c0 .113-.1.204-.204.204H5.84c-.113 0-.204-.1-.204-.204v-1.06c0-.113.1-.204.204-.204h2.13c.113 0 .204.1.204.204zm1.727-.204h2.13c.113 0 .204.1.204.204v1.06c0 .113-.1.204-.204.204h-2.13c-.113 0-.204-.1-.204-.204v-1.06c0-.113.1-.204.204-.204zm4.063 0h2.13c.113 0 .204.1.204.204v1.06c0 .113-.1.204-.204.204h-2.13c-.113 0-.204-.1-.204-.204v-1.06c0-.113.1-.204.204-.204zm4.164 0h1.927c.17 0 .306.137.306.306v.855c0 .17-.137.306-.306.306H18.13c-.17 0-.306-.137-.306-.306v-.855c0-.17.137-.306.306-.306zm-16.3 0h1.978c.17 0 .306.137.306.306v.855c0 .17-.137.306-.306.306H1.83c-.17 0-.306-.137-.306-.306v-.855c0-.17.137-.306.306-.306zm22.34 1.467h-2.284v-1.467h2.6v1.16c0 .17-.137.306-.306.306zm-13.455-13.1v7.115a.41.41 0 0 0 .408.408.4.4 0 0 0 .22-.065l5.542-3.557c.2-.122.245-.374.123-.563-.032-.05-.074-.1-.123-.123L11.343 7.1c-.2-.122-.442-.067-.563.123a.41.41 0 0 0-.065.22z" transform="matrix(.965926 -.258819 .258819 .965926 .877205 6.739463)" fill="#fff"/></svg>