<?xml version="1.0" encoding="UTF-8"?>
<svg width="52px" height="84px" viewBox="0 0 52 84" version="1.1" xmlns="http://www.w3.org/2000/svg" xmlns:xlink="http://www.w3.org/1999/xlink">
    <!-- Generator: Sketch 52.2 (67145) - http://www.bohemiancoding.com/sketch -->
    <title>Group 15</title>
    <desc>Created with Sketch.</desc>
    <g id="Page-1" stroke="none" stroke-width="1" fill="none" fill-rule="evenodd">
        <g id="HOME--with-info-drawer-360-Copy" transform="translate(-32.000000, -242.000000)" fill-rule="nonzero">
            <g id="STW" transform="translate(32.000000, 242.000000)">
                <g id="Group-15">
                    <g id="iphone" fill="#23283E">
                        <path d="M42.65625,0 C41.0570672,0 9.61997969,0 8.53125,0 C3.82711875,0 0,4.37647852 0,9.75585938 L0,73.4941406 C0,78.8735215 3.82711875,83.25 8.53125,83.25 L42.65625,83.25 C47.3603813,83.25 51.1875,78.8735215 51.1875,73.4941406 L51.1875,9.75585938 C51.1875,4.37647852 47.3603813,0 42.65625,0 Z M46.7460937,74.880609 C46.7460937,76.751746 45.408367,78.2740385 43.7640904,78.2740385 L7.98005022,78.2740385 C6.33577358,78.2740385 4.99804687,76.751746 4.99804687,74.880609 L4.99804687,8.36939103 C4.99804687,6.49825401 6.33577358,4.97596154 7.98005022,4.97596154 L13.2923401,4.97596154 L13.9134914,7.07632472 C14.3217276,8.45728085 15.4593619,9.38741987 16.7396851,9.38741987 L35.0044556,9.38741987 C36.2847787,9.38741987 37.422413,8.45728085 37.8306492,7.07632472 L38.4518005,4.97596154 L43.7640904,4.97596154 C45.408367,4.97596154 46.7460937,6.49825401 46.7460937,8.36939103 L46.7460937,74.880609 Z" id="Shape"></path>
                    </g>
                    <g id="wheel-of-fortune" transform="translate(7.017857, 21.615132)">
                        <path d="M19.3628017,4.52481218 C19.0641133,4.90564516 18.8303571,5.16383701 18.8303571,5.16383701 C18.8303571,5.16383701 18.596601,4.90564516 18.2914193,4.52481218 C17.8888393,4.02133807 17.3563947,3.2919461 17.077186,2.65937606 C16.9538147,2.39472941 16.8823892,2.14299236 16.8823892,1.93643888 C16.8823892,0.864942699 17.7524815,-8.8817842e-16 18.8303571,-8.8817842e-16 C19.9082328,-8.8817842e-16 20.7783251,0.864942699 20.7783251,1.93643888 C20.7783251,2.14299236 20.7068996,2.39472941 20.5835283,2.65937606 C20.3043196,3.2919461 19.771875,4.02133807 19.3628017,4.52481218 Z" id="Path" fill="#656D78"></path>
                        <path d="M18.8303571,27.7556239 L18.8303571,38.083298 C15.759061,38.083298 12.8760683,37.2699936 10.3956558,35.8305741 L15.5837438,26.897136 L15.5902371,26.8906812 C16.5447414,27.4393389 17.6485899,27.7556239 18.8303571,27.7556239 Z" id="Path" fill="#8CC152"></path>
                        <path d="M18.2914193,4.52481218 C18.596601,4.90564516 18.8303571,5.16383701 18.8303571,5.16383701 L18.8303571,14.8460314 C17.6485899,14.8460314 16.5382482,15.1623164 15.5837438,15.7109741 L10.3891626,6.77108128 C12.7267241,5.41557407 15.4214132,4.61517933 18.2914193,4.52481218 Z" id="Path" fill="#FFCE54"></path>
                        <path d="M15.5902371,26.8906812 L15.5837438,26.897136 L10.3956558,35.8305741 C7.83083128,34.3653353 5.6880665,32.2417073 4.21410406,29.6920628 L13.2072229,24.5346806 L13.2137161,24.5346806 C13.7851201,25.5158096 14.6032666,26.329114 15.5902371,26.8906812 Z" id="Path" fill="#ED5565"></path>
                        <path d="M13.2007297,18.0734295 L13.2072229,18.0798843 C12.6552986,19.0287394 12.3371305,20.1260548 12.3371305,21.3008277 L12.3371305,21.3072825 L1.95446121,21.3072825 L1.94796798,21.3072825 L1.94796798,21.3008277 C1.94796798,18.247709 2.76611453,15.3817795 4.20761084,12.9160473 L4.21410406,12.9160473 L13.2007297,18.0734295 Z" id="Path" fill="#8CC152"></path>
                        <path d="M18.8303571,38.083298 C21.9016533,38.083298 24.7846459,37.2699936 27.2650585,35.8305741 C29.829883,34.3653353 31.9726478,32.2417073 33.4466102,29.6920628 C34.8881065,27.2263306 35.7127463,24.3604011 35.7127463,21.3072825 L35.7127463,21.3008277 C35.7127463,18.247709 34.8945998,15.3817795 33.4531034,12.9160473 C31.9732971,10.3664028 29.8370256,8.24277483 27.2715517,6.77108128 C24.9339901,5.42202886 22.2393011,4.61517933 19.3628017,4.52481218 C19.771875,4.02133807 20.3043196,3.2919461 20.5835283,2.65937606 C30.1610376,3.54368315 37.6607143,11.5476305 37.6607143,21.3008277 C37.6607143,31.6414113 29.2325062,40.0197368 18.8303571,40.0197368 C8.42820813,40.0197368 1.42108547e-14,31.6414113 1.42108547e-14,21.3008277 C1.42108547e-14,11.5476305 7.49967672,3.54368315 17.077186,2.65937606 C17.357044,3.29130062 17.8888393,4.02133807 18.2914193,4.52481218 C15.4214132,4.61517933 12.7267241,5.41557407 10.3891626,6.77108128 C7.82433805,8.23632003 5.6880665,10.3657573 4.20761084,12.9160473 C2.76611453,15.3817795 1.94796798,18.247709 1.94796798,21.3008277 L1.94796798,21.3072825 C1.94796798,24.3604011 2.77260776,27.2263306 4.21410406,29.6920628 C5.6880665,32.2417073 7.83018196,34.3653353 10.3956558,35.8305741 C12.8760683,37.2699936 15.759061,38.083298 18.8303571,38.083298 Z" id="Path" fill="#E6E9ED"></path>
                        <path d="M10.3891626,6.77108128 L15.5837438,15.7109741 C14.5967734,16.2789962 13.7721336,17.0987553 13.2072229,18.0798843 L13.2007297,18.0734295 L4.21410406,12.9160473 L4.20761084,12.9160473 C5.6880665,10.3664028 7.82433805,8.23632003 10.3891626,6.77108128 Z" id="Path" fill="#ED5565"></path>
                        <path d="M35.7127463,21.3072825 C35.7127463,24.3604011 34.8881065,27.2263306 33.4466102,29.6920628 L24.4534914,24.5282258 C25.0054156,23.5793708 25.3235837,22.4820554 25.3235837,21.3072825 L35.7127463,21.3072825 Z" id="Path" fill="#8CC152"></path>
                        <path d="M33.4531034,12.9160473 L33.4466102,12.9160473 L24.4534914,18.0798843 C23.8885807,17.0987553 23.0632916,16.2789962 22.0769704,15.7174289 L27.2715517,6.77172676 C29.8363762,8.24277483 31.9726478,10.3664028 33.4531034,12.9160473 Z" id="Path" fill="#ED5565"></path>
                        <path d="M1.95446121,21.3072825 L12.3371305,21.3072825 C12.3371305,22.4820554 12.6552986,23.5858256 13.2137161,24.5346806 L13.2072229,24.5346806 L4.21410406,29.6920628 C2.77260776,27.2263306 1.94796798,24.3604011 1.94796798,21.3072825 L1.95446121,21.3072825 Z" id="Path" fill="#FFCE54"></path>
                        <path d="M27.2715517,6.77108128 L22.0769704,15.7174289 C21.1224661,15.1623164 20.0121244,14.8460314 18.8303571,14.8460314 L18.8303571,5.16383701 C18.8303571,5.16383701 19.0641133,4.90564516 19.3628017,4.52481218 C22.2393011,4.61517933 24.9339901,5.42202886 27.2715517,6.77108128 Z" id="Path" fill="#8CC152"></path>
                        <path d="M24.4534914,24.5282258 L33.4466102,29.6920628 C31.9726478,32.2417073 29.8305323,34.3653353 27.2650585,35.8305741 L22.0769704,26.8906812 C23.0639409,26.3226592 23.8820874,25.5093548 24.4534914,24.5282258 Z" id="Path" fill="#ED5565"></path>
                        <path d="M22.0769704,26.8906812 L27.2650585,35.8305741 C24.7846459,37.2699936 21.9016533,38.083298 18.8303571,38.083298 L18.8303571,27.7556239 C20.0121244,27.7556239 21.1224661,27.4393389 22.0769704,26.8906812 Z" id="Path" fill="#FFCE54"></path>
                        <path d="M35.7127463,21.3008277 L35.7127463,21.3072825 L25.3235837,21.3072825 L25.3235837,21.3008277 C25.3235837,20.1260548 25.0054156,19.0287394 24.4534914,18.0798843 L33.4466102,12.9160473 L33.4531034,12.9160473 C34.8945998,15.3817795 35.7127463,18.247709 35.7127463,21.3008277 Z" id="Path" fill="#FFCE54"></path>
                        <g id="Group" transform="translate(2.597291, 5.163837)" fill="#E6E9ED">
                            <path d="M22.7262931,16.1369907 L22.7262931,16.1434455 C22.7262931,17.3182184 22.408125,18.4161792 21.8562007,19.3643888 C21.2847968,20.3455178 20.4660009,21.1588222 19.4796798,21.7268442 C18.5251755,22.2755019 17.4148337,22.5917869 16.2330665,22.5917869 C15.0512993,22.5917869 13.9474507,22.2755019 12.9929464,21.7268442 C12.005976,21.165277 11.1884788,20.3519726 10.6164255,19.3708436 C10.0586573,18.4219885 9.7398399,17.3182184 9.7398399,16.1434455 L9.7398399,16.1369907 C9.7398399,14.9622177 10.058008,13.8649024 10.6099323,12.9160473 C11.174843,11.9349183 12.0001321,11.1151592 12.9864532,10.5471371 C13.9409575,9.99847941 15.0512993,9.6821944 16.2330665,9.6821944 C17.4148337,9.6821944 18.5251755,9.99847941 19.4796798,10.5535919 C20.4666502,11.1151592 21.29129,11.9355638 21.8562007,12.9160473 C22.408125,13.8649024 22.7262931,14.9622177 22.7262931,16.1369907 Z" id="Path"></path>
                            <path d="M31.3051441,12.7733963 C30.9460687,12.7733963 30.6525748,12.4848669 30.6525748,12.1279167 C30.6525748,11.7709665 30.9395754,11.4824371 31.2980015,11.4824371 L31.3051441,11.4824371 C31.6635702,11.4824371 31.9544667,11.7709665 31.9544667,12.1279167 C31.9544667,12.4848669 31.6635702,12.7733963 31.3051441,12.7733963 Z" id="Path"></path>
                            <path d="M1.19929895,20.7915442 C0.840223522,20.7915442 0.54672968,20.5030149 0.54672968,20.1460646 C0.54672968,19.7891144 0.833730296,19.500585 1.1921564,19.500585 L1.19929895,19.500585 C1.55772506,19.500585 1.84862161,19.7891144 1.84862161,20.1460646 C1.84862161,20.5030149 1.55707574,20.7915442 1.19929895,20.7915442 Z" id="Path"></path>
                            <path d="M27.272201,5.82803555 C26.9131256,5.82803555 26.6196318,5.53950615 26.6196318,5.18255592 C26.6196318,4.82560569 26.9066324,4.53707629 27.2650585,4.53707629 L27.272201,4.53707629 C27.6306272,4.53707629 27.9215237,4.82560569 27.9215237,5.18255592 C27.9215237,5.53950615 27.6306272,5.82803555 27.272201,5.82803555 Z" id="Path"></path>
                            <path d="M5.23289132,27.736905 C4.87381589,27.736905 4.58032204,27.4483756 4.58032204,27.0914254 C4.58032204,26.7344752 4.86732266,26.4459458 5.22574877,26.4459458 L5.23289132,26.4459458 C5.59131743,26.4459458 5.88221398,26.7344752 5.88221398,27.0914254 C5.88221398,27.4483756 5.5906681,27.736905 5.23289132,27.736905 Z" id="Path"></path>
                            <path d="M20.2861385,1.81767063 C19.9270631,1.81767063 19.6335693,1.52914124 19.6335693,1.172191 C19.6335693,0.815240768 19.9205699,0.526711375 20.278996,0.526711375 L20.2861385,0.526711375 C20.6445647,0.526711375 20.9354612,0.815240768 20.9354612,1.172191 C20.9354612,1.52914124 20.6445647,1.81767063 20.2861385,1.81767063 Z" id="Path"></path>
                            <path d="M12.2183045,31.745979 C11.8592291,31.745979 11.5657352,31.4574496 11.5657352,31.1004994 C11.5657352,30.7435491 11.8527358,30.4550197 12.2111619,30.4550197 L12.2183045,30.4550197 C12.5767306,30.4550197 12.8676272,30.7435491 12.8676272,31.1004994 C12.8676272,31.4574496 12.5767306,31.745979 12.2183045,31.745979 Z" id="Path"></path>
                            <path d="M12.2189538,1.81767063 C11.8598784,1.81767063 11.5663845,1.52914124 11.5663845,1.172191 C11.5663845,0.815240768 11.8533852,0.526711375 12.2118113,0.526711375 L12.2189538,0.526711375 C12.5773799,0.526711375 12.8682765,0.815240768 12.8682765,1.172191 C12.8682765,1.52914124 12.5773799,1.81767063 12.2189538,1.81767063 Z" id="Path"></path>
                            <path d="M20.2854892,31.745979 C19.9264138,31.745979 19.63292,31.4574496 19.63292,31.1004994 C19.63292,30.7435491 19.9199206,30.4550197 20.2783467,30.4550197 L20.2854892,30.4550197 C20.6439153,30.4550197 20.9348119,30.7435491 20.9348119,31.1004994 C20.9348119,31.4574496 20.6439153,31.745979 20.2854892,31.745979 Z" id="Path"></path>
                            <path d="M5.23289132,5.82674459 C4.87381589,5.82674459 4.58032204,5.5382152 4.58032204,5.18126496 C4.58032204,4.82431473 4.86732266,4.53578534 5.22574877,4.53578534 L5.23289132,4.53578534 C5.59131743,4.53578534 5.88221398,4.82431473 5.88221398,5.18126496 C5.88221398,5.5382152 5.5906681,5.82674459 5.23289132,5.82674459 Z" id="Path"></path>
                            <path d="M27.272201,27.736905 C26.9131256,27.736905 26.6196318,27.4483756 26.6196318,27.0914254 C26.6196318,26.7344752 26.9066324,26.4459458 27.2650585,26.4459458 L27.272201,26.4459458 C27.6306272,26.4459458 27.9215237,26.7344752 27.9215237,27.0914254 C27.9215237,27.4483756 27.6306272,27.736905 27.272201,27.736905 Z" id="Path"></path>
                            <path d="M1.19929895,12.7721054 C0.840223522,12.7721054 0.54672968,12.483576 0.54672968,12.1266257 C0.54672968,11.7696755 0.833730296,11.4811461 1.1921564,11.4811461 L1.19929895,11.4811461 C1.55772506,11.4811461 1.84862161,11.7696755 1.84862161,12.1266257 C1.84862161,12.483576 1.55707574,12.7721054 1.19929895,12.7721054 Z" id="Path"></path>
                            <path d="M31.3057934,20.7915442 C30.946718,20.7915442 30.6532241,20.5030149 30.6532241,20.1460646 C30.6532241,19.7891144 30.9402248,19.500585 31.2986509,19.500585 L31.3057934,19.500585 C31.6642195,19.500585 31.9551161,19.7891144 31.9551161,20.1460646 C31.9551161,20.5030149 31.6642195,20.7915442 31.3057934,20.7915442 Z" id="Path"></path>
                        </g>
                        <path d="M22.0750225,20.655348 L15.5837438,20.655348 C15.2246684,20.655348 14.9344212,20.3668187 14.9344212,20.0098684 C14.9344212,19.6529182 15.2246684,19.3643888 15.5837438,19.3643888 L22.0750225,19.3643888 C22.4340979,19.3643888 22.7243451,19.6529182 22.7243451,20.0098684 C22.7243451,20.3668187 22.4340979,20.655348 22.0750225,20.655348 Z" id="Path" fill="#CCD1D9"></path>
                        <path d="M22.0750225,22.5917869 L15.5837438,22.5917869 C15.2246684,22.5917869 14.9344212,22.3032575 14.9344212,21.9463073 C14.9344212,21.5893571 15.2246684,21.3008277 15.5837438,21.3008277 L22.0750225,21.3008277 C22.4340979,21.3008277 22.7243451,21.5893571 22.7243451,21.9463073 C22.7243451,22.3032575 22.4340979,22.5917869 22.0750225,22.5917869 Z" id="Path" fill="#CCD1D9"></path>
                        <path d="M20.1290025,24.5282258 L17.5297639,24.5282258 C17.1706884,24.5282258 16.8804412,24.2396964 16.8804412,23.8827462 C16.8804412,23.5257959 17.1706884,23.2372666 17.5297639,23.2372666 L20.1290025,23.2372666 C20.4880779,23.2372666 20.7783251,23.5257959 20.7783251,23.8827462 C20.7783251,24.2396964 20.4880779,24.5282258 20.1290025,24.5282258 Z" id="Path" fill="#CCD1D9"></path>
                    </g>
                </g>
            </g>
        </g>
    </g>
</svg>