<svg id="Layer_1" data-name="Layer 1" xmlns="http://www.w3.org/2000/svg" viewBox="0 0 878.78 686"><defs><style>.cls-1{fill:#fff;}</style></defs><path class="cls-1" d="M257.3,331C303,270.27,377.69,216.79,498.67,192.37a43.89,43.89,0,0,1,10.55-2.24c24.91-3,76.13.15,96.25,1.84,1.81.14,3.38.28,4.64.4,14.35,1.38,228.08,22.85,297.56,243.13C636.67,227.79,383.07,281.44,257.3,331Z" transform="translate(-50.53 -151)"/><path class="cls-1" d="M927.85,633.61S736.53,681.87,631.39,837c-15.51-13.79-262-177.53-580.86-50C114.31,726.69,185,654.3,185,654.3s199.93-63.78,527.42,31c3.45-13.79,5.17-19,15.51-43.09-131-50-368.85-86.18-537.76-34.47-1-8.77-16.81-117.19,34.31-222.88C559,243.37,815,405,921.75,494.28,928.68,535,931.18,581.2,927.85,633.61Z" transform="translate(-50.53 -151)"/><ellipse class="cls-1" cx="506.74" cy="43.09" rx="48.26" ry="43.09"/></svg>