<svg xmlns="http://www.w3.org/2000/svg" width="101.563" height="104.975" viewBox="0 0 101.563 104.975">
  <g id="Group_123" data-name="Group 123" transform="translate(-13897.841 -8854.098)">
    <g id="Group_121" data-name="Group 121">
      <path id="championship" d="M101.552,6.357H89.886V3.582A3.582,3.582,0,0,0,86.3,0H22.4a3.582,3.582,0,0,0-3.582,3.582V6.357H7.153A3.582,3.582,0,0,0,3.571,9.939V34.048A27.72,27.72,0,0,0,30.36,61.717a35.407,35.407,0,0,0,20.411,9.169V97.81H38.366a3.582,3.582,0,0,0,0,7.164H70.317a3.582,3.582,0,0,0,0-7.164H57.936V70.886a35.409,35.409,0,0,0,20.41-9.169,27.72,27.72,0,0,0,26.789-27.669V9.939A3.582,3.582,0,0,0,101.552,6.357Zm-75.569.808H82.721V35.534a28.369,28.369,0,0,1-56.738,0ZM10.735,34.048V13.521h8.083V35.533A35.3,35.3,0,0,0,23.44,53.022,20.555,20.555,0,0,1,10.735,34.048Zm87.234,0a20.557,20.557,0,0,1-12.7,18.975,35.3,35.3,0,0,0,4.621-17.489V13.521H97.97Z" transform="translate(13894.27 8854.098)" fill="#3a3150"/>
      <path id="Path_100" data-name="Path 100" d="M13935.017,8866.248h-5.317s-5.056-.349-5.143,4.794,0,8.542,0,8.542" transform="translate(3 2)" fill="none" stroke="#fe5d5d" stroke-linecap="round" stroke-width="6"/>
    </g>
  </g>
</svg>
