<svg xmlns="http://www.w3.org/2000/svg" width="153.39" height="186.448" viewBox="0 0 153.39 186.448">
  <g id="Group_122" data-name="Group 122" transform="translate(-13697.235 -8779.38)">
    <g id="joystick" transform="translate(13697.235 8865.083)">
      <g id="Group_110" data-name="Group 110" transform="translate(0 0)">
        <g id="Group_109" data-name="Group 109">
          <path id="Path_98" data-name="Path 98" d="M153.307,124.782a143.181,143.181,0,0,0-4.2-27.7c-2.293-8.788-5.158-17-8.6-23.308-13.374-23.5-27.894-19.87-45.28-15.284A124.447,124.447,0,0,1,77.65,61.926H75.74a124.447,124.447,0,0,1-17.577-3.439c-17.386-4.394-31.906-8.215-45.28,15.475a97.4,97.4,0,0,0-8.6,23.308,143.181,143.181,0,0,0-4.2,27.7c-.382,9.744.573,16.813,2.675,21.78q3.152,6.878,9.171,8.6a18.68,18.68,0,0,0,12.227-1.337c7.451-3.057,16.048-9.553,24.455-17.386,5.923-5.732,17-8.6,28.085-8.6s22.162,2.866,28.085,8.6c8.406,7.833,17,14.329,24.455,17.386,4.394,1.719,8.6,2.293,12.227,1.337,3.821-1.146,7.069-3.821,9.171-8.788C152.734,141.786,153.689,134.717,153.307,124.782Zm-9.171,19.105c-1.146,2.675-2.675,4.2-4.585,4.776-2.1.573-4.776.191-7.833-.955-6.687-2.675-14.52-8.6-22.162-15.857-7.26-7.26-20.061-10.89-32.861-10.89s-25.6,3.63-33.052,10.508c-7.833,7.26-15.666,13.374-22.162,15.857-3.057,1.146-5.732,1.719-7.833.955-1.911-.573-3.439-2.1-4.585-4.776-1.528-3.63-2.293-9.553-1.911-18.341A131.784,131.784,0,0,1,11.164,98.8c2.1-8.215,4.776-15.857,8.024-21.589C29.7,58.3,41.923,61.353,56.443,65.174A112.073,112.073,0,0,0,75.167,68.8h2.866a110.686,110.686,0,0,0,18.914-3.63c14.52-3.63,26.747-6.878,37.255,12.036,3.248,5.732,5.923,13.183,8.024,21.589a144.608,144.608,0,0,1,4.012,26.365C146.62,133.953,145.856,139.876,144.137,143.888Z" transform="translate(0 -55.109)" fill="#3a3150"/>
        </g>
      </g>
      <g id="Group_112" data-name="Group 112" transform="translate(19.761 19.044)">
        <g id="Group_111" data-name="Group 111">
          <path id="Path_99" data-name="Path 99" d="M80.73,108.355a11.608,11.608,0,0,0-6.878-3.248A10.871,10.871,0,0,0,70.8,98.42l-.191-.191a10.821,10.821,0,0,0-7.833-3.248,11.281,11.281,0,0,0-7.833,3.248,11.105,11.105,0,0,0-3.248,6.878,11.381,11.381,0,0,0-6.878,3.057l-.191.191a10.821,10.821,0,0,0-3.248,7.833,11.281,11.281,0,0,0,3.248,7.833,10.651,10.651,0,0,0,7.069,3.248,10.192,10.192,0,0,0,3.248,6.878,10.821,10.821,0,0,0,7.833,3.248,11.281,11.281,0,0,0,7.833-3.248,11.608,11.608,0,0,0,3.248-6.878,10.192,10.192,0,0,0,6.878-3.248,10.821,10.821,0,0,0,3.248-7.833A11.281,11.281,0,0,0,80.73,108.355Zm-4.776,10.7a3.888,3.888,0,0,1-2.866,1.146H70.413a3.628,3.628,0,0,0-3.63,3.63v2.484a4.013,4.013,0,1,1-8.024,0v-2.675a3.628,3.628,0,0,0-3.63-3.63H52.454a3.918,3.918,0,0,1-2.866-6.687l.191-.191a4.565,4.565,0,0,1,2.675-.955h2.675a3.628,3.628,0,0,0,3.63-3.63v-2.675a4.053,4.053,0,0,1,6.878-2.866l.191.191a4.565,4.565,0,0,1,.955,2.675v2.675a3.628,3.628,0,0,0,3.63,3.63h2.675a4.053,4.053,0,0,1,2.866,6.878Z" transform="translate(-41.373 -94.981)" fill="#fe5d5d"/>
        </g>
      </g>
      <g id="Group_114" data-name="Group 114" transform="translate(103.251 19.999)">
        <g id="Group_113" data-name="Group 113">
          <ellipse id="Ellipse_62" data-name="Ellipse 62" cx="6.687" cy="6.687" rx="6.687" ry="6.687" fill="#fe5d5d"/>
        </g>
      </g>
      <g id="Group_116" data-name="Group 116" transform="translate(103.251 47.129)">
        <g id="Group_115" data-name="Group 115">
          <ellipse id="Ellipse_63" data-name="Ellipse 63" cx="6.687" cy="6.687" rx="6.687" ry="6.687" fill="#fe5d5d"/>
        </g>
      </g>
      <g id="Group_118" data-name="Group 118" transform="translate(89.686 33.564)">
        <g id="Group_117" data-name="Group 117">
          <ellipse id="Ellipse_64" data-name="Ellipse 64" cx="6.687" cy="6.687" rx="6.687" ry="6.687" fill="#fe5d5d"/>
        </g>
      </g>
      <g id="Group_120" data-name="Group 120" transform="translate(116.816 33.564)">
        <g id="Group_119" data-name="Group 119">
          <ellipse id="Ellipse_65" data-name="Ellipse 65" cx="6.687" cy="6.687" rx="6.687" ry="6.687" fill="#fe5d5d"/>
        </g>
      </g>
    </g>
    <rect id="Rectangle_243" data-name="Rectangle 243" width="22" height="12" transform="translate(13762 8863)" fill="#3a3150"/>
    <path id="Path_101" data-name="Path 101" d="M13771.889,8869v-27.059a25,25,0,0,1,13.194-23.65c14.938-8.216,10.207-34.853,10.207-34.853" fill="none" stroke="#3a3150" stroke-linecap="round" stroke-width="7"/>
  </g>
</svg>
