<?xml version="1.0" encoding="UTF-8"?>
<svg width="30px" height="30px" viewBox="0 0 30 30" version="1.1" xmlns="http://www.w3.org/2000/svg" xmlns:xlink="http://www.w3.org/1999/xlink">
    <!-- Generator: Sketch 52.2 (67145) - http://www.bohemiancoding.com/sketch -->
    <title>Group 15</title>
    <desc>Created with Sketch.</desc>
    <g id="Page-1" stroke="none" stroke-width="1" fill="none" fill-rule="evenodd">
        <g id="HOME--with-info-drawer-360-Copy" transform="translate(-253.000000, -616.000000)" fill="#FFFFFF">
            <g id="Play-more-games-button" transform="translate(67.000000, 609.000000)">
                <g id="Group-15" transform="translate(186.937500, 7.875000)">
                    <path d="M14.34375,28.6875 C6.42191562,28.6875 0,22.2655844 0,14.34375 C0,6.42191562 6.42191562,0 14.34375,0 C22.2655844,0 28.6875,6.42191562 28.6875,14.34375 C28.6875,22.2655844 22.2655844,28.6875 14.34375,28.6875 Z M18.5770587,14.9185234 C18.7380089,14.7592566 18.8185622,14.5504849 18.8185622,14.3416615 C18.8185622,14.1329413 18.7381653,13.9243242 18.577189,13.7649801 L13.5139547,8.755592 C13.1918718,8.43692949 12.6696957,8.43692949 12.3477432,8.755592 C12.0257906,9.07412559 12.0257906,9.59070488 12.3477432,9.90936739 L16.8277935,14.3416873 L12.3476129,18.7741619 C12.0256603,19.0926697 12.0256603,19.6093006 12.3476129,19.9278342 C12.6695394,20.2466514 13.1917415,20.2466514 13.5138244,19.9278342 L18.5770587,14.9185234 Z" id="Combined-Shape"></path>
                </g>
            </g>
        </g>
    </g>
</svg>