<?xml version="1.0" encoding="UTF-8"?>
<svg width="20px" height="20px" viewBox="0 0 20 20" version="1.1" xmlns="http://www.w3.org/2000/svg" xmlns:xlink="http://www.w3.org/1999/xlink">
    <!-- Generator: Sketch 52.2 (67145) - http://www.bohemiancoding.com/sketch -->
    <title>copy</title>
    <desc>Created with Sketch.</desc>
    <g id="Page-1" stroke="none" stroke-width="1" fill="none" fill-rule="evenodd">
        <g id="HOME--with-info-drawer-360-Coupon" transform="translate(-242.000000, -355.000000)" fill="#8B8B8B" fill-rule="nonzero">
            <g id="Group" transform="translate(40.000000, 240.000000)">
                <g id="copy" transform="translate(202.393443, 115.901639)">
                    <path d="M13.5208044,3.3801912 L2.02812264,3.3801912 C0.908020612,3.3801912 0,4.28821181 0,5.40831384 L0,16.9009956 C0,18.0210976 0.908020612,18.9291183 2.02812264,18.9291183 L13.5208044,18.9291183 C14.6409064,18.9291183 15.5489271,18.0210976 15.5489271,16.9009956 L15.5489271,5.40831384 C15.5489271,4.28821181 14.6409064,3.3801912 13.5208044,3.3801912 Z M14.1968585,16.9010352 C14.1968585,17.2744158 13.894185,17.5770893 13.5208044,17.5770893 L2.02812264,17.5770893 C1.65474209,17.5770893 1.35206856,17.2744158 1.35206856,16.9010352 L1.35206856,5.40831384 C1.35206856,5.03493329 1.65474209,4.73225976 2.02812264,4.73225976 L13.5208044,4.73225976 C13.894185,4.73225976 14.1968585,5.03493329 14.1968585,5.40831384 L14.1968585,16.9010352 Z" id="Shape"></path>
                    <path d="M16.9010352,0 L4.73229937,0 C3.61219734,0 2.70417673,0.908020612 2.70417673,2.02812264 C2.70417673,2.40150319 3.00685026,2.70417673 3.38023081,2.70417673 C3.75361136,2.70417673 4.05624528,2.40150319 4.05624528,2.02812264 C4.05624528,1.65474209 4.35891882,1.35206856 4.73229937,1.35206856 L16.9010352,1.35206856 C17.2744158,1.35206856 17.5770893,1.65474209 17.5770893,2.02812264 L17.5770893,14.1968585 C17.5770893,14.570239 17.2744158,14.8729126 16.9010352,14.8729126 C16.5276547,14.8729126 16.2249811,15.1755861 16.2249811,15.5489667 C16.2249811,15.9223472 16.5276547,16.2250207 16.9010352,16.2250207 C18.0211373,16.2250207 18.9291579,15.3170001 18.9291579,14.1968981 L18.9291579,2.02812264 C18.9291579,0.908020612 18.0211373,0 16.9010352,0 Z" id="Path"></path>
                </g>
            </g>
        </g>
    </g>
</svg>