<svg xmlns="http://www.w3.org/2000/svg" width="25" height="36" xmlns:v="https://vecta.io/nano"><path d="M13.006 8.396l-.252-2.21c-.012-.085-.226-.193-.348-.195s-.35.098-.362.178l-.255 2.228h1.217zm-1.732-5.02H13.7V2.072h-2.426v1.305zM13.4 11.87l-.245-2.193c-.01-.084-.116-.22-.183-.224-.38-.02-.763-.018-1.145-.002-.066.003-.176.106-.184.173l-.248 2.245H13.4zm.125 1.016c-.712 0-1.378-.006-2.044.008-.08.002-.217.11-.226.18l-.25 2.25h2.786l-.266-2.438zm.657 5.875l-.26-2.218c-.012-.088-.184-.215-.284-.217a58.19 58.19 0 0 0-2.48.002c-.103.002-.28.128-.29.215l-.255 2.22h3.57zM7.552 5.98v2.44l3.056-.008c.078-.001.213-.11.223-.184l.252-2.247h-3.53zm9.944.02H13.7l.287 2.387h3.51V6zM9.064 4.977h.557l3.63-.018 2.197.008c.12-.002.338-.13.34-.204l.015-2.684h-1.148v2.266h-4.384V2.077H9.064v2.9zm5.512 17.2l-.275-2.4h-3.817l-.26 2.4h4.354zM10.698 9.454H6.463v2.403h3.96l.275-2.403zm3.677 2.404h4.218v-2.38h-4.498l.28 2.38zm-4.06.998c-1.702 0-3.322-.003-4.942.008-.08 0-.23.108-.23.17l-.01 2.3h4.893l.3-2.475zm4.448 2.45h5.085v-2.4h-5.36l.275 2.4zm-4.846 1.056c-.116-.023-.177-.045-.238-.045L4.05 16.3c-.26-.002-.33.114-.328.346l-.002 1.78c-.005.263.1.37.36.37l5.247-.016a.45.45 0 0 0 .326-.28l.263-2.136zm11.367-.01h-6.41l.286 2.4h6.123v-2.4zm-12.04 5.88l.28-2.44h-6.87v2.44h6.6zm6.31.03h1.4l4.966-.01c.167-.002.472-.133.477-.216l.022-2.245h-7.148l.284 2.47zm.532 12.656v-7.9h-1.27V25.39h-4.47l.004 1.278c.01.273-.1.375-.364.365l-1.023-.003v7.887h7.122zm7.884-.005l.024-.25.012-10.982c.002-.46-.243-.426-.544-.426-7.312.002-14.624.006-21.937-.01-.45-.001-.555.137-.553.57l.01 10.596c0 .17.015.337.025.53l6.414.01c.48.006.574-.158.57-.604l-.008-7.706c0-.184.02-.368.035-.6H9.4v-1.614h6.378v1.65h1.304v8.837h6.885zm-.594-16.073v3.44h1.548c.017.2.04.342.04.495l.012 12.62c.002.437-.138.532-.545.53l-23.9-.002c-.373 0-.533-.07-.53-.494l.01-12.67c0-.14.02-.282.035-.473h1.626v-3.45l1.074-.054V15.37h1.412v-3.454h1.29V8.442h1.107V4.997H8.07V.017h.967v1.04h1.25V.01h.96v1.05h2.474V0h.942v1.055h1.12l.053-1.05h.925v4.97h1.71v3.43l1.1.05v3.418h1.28v3.466h1.414v2.7c.002.946-.03.757.764.775.094.002.188.014.35.027zM19.13 32.255h-.884c-.016-.14-.043-.264-.043-.387l-.01-4.524c-.005-.393.14-.487.5-.484.337.003.477.082.472.458l-.01 4.572c0 .11-.014.218-.023.364zm3.106-5.32v5.303h-.908c-.007-.15-.02-.32-.02-.488l-.002-4.14c0-.818.03-.843.93-.674zM6.117 32.25V27.08h.88v5.168h-.88zm-2.442.005h-.91v-1.016l-.01-3.75c-.007-.384.144-.455.476-.448.3.006.506.03.5.432l-.013 4.422c0 .108-.026.217-.044.36z" fill="#fff" fill-rule="evenodd"/></svg>