<svg xmlns="http://www.w3.org/2000/svg" width="446.529" height="445.918" viewBox="0 0 446.529 445.918">
  <g id="_007---Hyderabad-Charminar" data-name="007---Hyderabad-Charminar" transform="translate(0 -0.082)">
    <path id="Shape" d="M11.442,66.769a7.442,7.442,0,0,0,7.442-7.442V44.442A7.442,7.442,0,0,0,4,44.442V59.326A7.442,7.442,0,0,0,11.442,66.769Z" transform="translate(25.769 237.831)" fill="#fff"/>
    <path id="Shape-2" data-name="Shape" d="M15.442,66.769a7.442,7.442,0,0,0,7.442-7.442V44.442A7.442,7.442,0,0,0,8,44.442V59.326A7.442,7.442,0,0,0,15.442,66.769Z" transform="translate(51.537 237.831)" fill="#fff"/>
    <path id="Shape-3" data-name="Shape" d="M24.442,47A7.442,7.442,0,0,0,17,54.442v52.1a7.442,7.442,0,0,0,14.884,0v-52.1A7.442,7.442,0,0,0,24.442,47Z" transform="translate(109.517 302.253)" fill="#fff"/>
    <path id="Shape-4" data-name="Shape" d="M48.442,47A7.442,7.442,0,0,0,41,54.442v52.1a7.442,7.442,0,0,0,14.884,0v-52.1A7.442,7.442,0,0,0,48.442,47Z" transform="translate(264.129 302.253)" fill="#fff"/>
    <path id="Shape-5" data-name="Shape" d="M24.442,36A7.442,7.442,0,0,0,17,43.442V65.769a7.442,7.442,0,0,0,14.884,0V43.442A7.442,7.442,0,0,0,24.442,36Z" transform="translate(109.517 231.389)" fill="#fff"/>
    <path id="Shape-6" data-name="Shape" d="M48.442,36A7.442,7.442,0,0,0,41,43.442V65.769a7.442,7.442,0,0,0,14.884,0V43.442A7.442,7.442,0,0,0,48.442,36Z" transform="translate(264.129 231.389)" fill="#fff"/>
    <path id="Shape-7" data-name="Shape" d="M57.442,66.769a7.442,7.442,0,0,0,7.442-7.442V44.442a7.442,7.442,0,0,0-14.884,0V59.326A7.442,7.442,0,0,0,57.442,66.769Z" transform="translate(322.108 237.831)" fill="#fff"/>
    <path id="Shape-8" data-name="Shape" d="M61.442,66.769a7.442,7.442,0,0,0,7.442-7.442V44.442a7.442,7.442,0,1,0-14.884,0V59.326A7.442,7.442,0,0,0,61.442,66.769Z" transform="translate(347.877 237.831)" fill="#fff"/>
    <path id="Shape-9" data-name="Shape" d="M426.808,36.682A84.171,84.171,0,0,1,407.756,8.476a14.884,14.884,0,0,0-26.643,0,125.544,125.544,0,0,1-7.889,14.884c-9.749,15.182-30.885,25.527-30.885,54.03a40.634,40.634,0,0,0,10.27,27.089,14.884,14.884,0,0,0-10.27,14.066V133.43a14.884,14.884,0,0,0,14.884,14.884v29.769H89.306V148.314A14.884,14.884,0,0,0,104.19,133.43V118.545a14.884,14.884,0,0,0-10.27-14.215A40.634,40.634,0,0,0,104.19,77.39c0-20.019-10.493-31.108-19.722-40.709A84.171,84.171,0,0,1,65.417,8.327a14.884,14.884,0,0,0-26.643,0,125.547,125.547,0,0,1-7.889,14.884C21.136,38.542,0,48.887,0,77.39A40.634,40.634,0,0,0,10.27,104.48,14.884,14.884,0,0,0,0,118.545V133.43a14.884,14.884,0,0,0,14.884,14.884v59.537H7.442A7.442,7.442,0,0,0,0,215.294V438.558A7.442,7.442,0,0,0,7.442,446H439.088a7.442,7.442,0,0,0,7.442-7.442V215.294a7.442,7.442,0,0,0-7.442-7.442h-7.442V148.314A14.884,14.884,0,0,0,446.53,133.43V118.545a14.884,14.884,0,0,0-10.27-14.215A40.634,40.634,0,0,0,446.53,77.39c0-20.019-10.493-31.108-19.722-40.709ZM394.435,14.355a98.682,98.682,0,0,0,21.582,32.373c8.707,9.228,15.629,16.522,15.629,30.662a26.271,26.271,0,0,1-26.271,26.271h-21.88A26.271,26.271,0,0,1,357.224,77.39c0-25.824,24.336-29.471,37.211-63.035Zm37.211,208.381V237.62H357.224V222.736Zm0,126.517H357.224V334.368h74.422ZM156.286,222.736V237.62h-52.1V222.736Zm119.075,0V237.62H171.17V222.736Zm66.979,0V237.62h-52.1V222.736Zm89.306,96.748H357.224V252.5h74.422Zm-342.339,0H14.884V252.5H89.306ZM14.884,334.368H89.306v14.884H14.884ZM104.19,252.5h52.1v66.979h-52.1Zm66.979,0H275.36v22.326H171.17Zm119.075,0h52.1v66.979h-52.1Zm66.979-59.537v14.884H89.306V192.967ZM14.884,133.43V118.545H89.306V133.43ZM52.1,14.355A98.683,98.683,0,0,0,73.678,46.729C82.385,55.957,89.306,63.25,89.306,77.39a26.271,26.271,0,0,1-26.271,26.271H41.155A26.271,26.271,0,0,1,14.884,77.39c0-25.824,24.336-29.471,37.211-63.035ZM29.769,148.314H74.422v59.537H29.769ZM14.884,222.736H89.306V237.62H14.884Zm0,141.4H89.306v66.979H14.884Zm89.306-29.769h52.1v96.748h-52.1Zm66.979-44.653H275.36v141.4H260.476V361.086c0-19.275-6.921-31.852-27.313-49.714a14.884,14.884,0,0,0-19.8,0c-20.392,17.861-27.313,30.438-27.313,49.714v70.031H171.17Zm29.769,141.4V361.086c0-12.949,3.349-22.326,22.326-38.55,18.9,16.6,22.326,25.6,22.326,38.55v70.031Zm89.306-96.748h52.1v96.748h-52.1Zm66.979,96.748V364.137h74.422v66.979Zm59.537-223.265H372.108V148.314h44.653ZM357.224,133.43V118.545h74.422V133.43Z" transform="translate(0)" fill="#fff"/>
  </g>
</svg>
