<svg xmlns="http://www.w3.org/2000/svg" width="52" height="46" fill="#fff" fill-rule="evenodd" xmlns:v="https://vecta.io/nano"><path d="M6.04 31.474H3.638c-.24 0-.4.16-.4.4v3.203c0 .24.16.4.4.4H6.04c.24 0 .4-.16.4-.4v-3.203c0-.24-.16-.4-.4-.4zm-.4.8v.8h-1.6v-.8h1.6zm-1.6 2.403v-.8h1.6v.8h-1.6zm46.846 10.41h-1.2V37.88h.4c.24 0 .4-.16.4-.4s-.16-.4-.4-.4h-.4v-6.406h.4c.24 0 .4-.16.4-.4s-.16-.4-.4-.4h-.4V27.47h.4c.24 0 .4-.16.4-.4s-.16-.4-.4-.4h-.4v-2.803c0-.24-.16-.4-.4-.4s-.4.16-.4.4v.4h-.8v-2.402h.4c.24 0 .4-.16.4-.4s-.16-.4-.4-.4h-.4c0-.72-.48-1.36-1.2-1.522v-1.28c0-.24-.16-.4-.4-.4s-.4.16-.4.4v1.28c-.72.16-1.2.8-1.2 1.522h-.4c-.24 0-.4.16-.4.4s.16.4.4.4h.4v2.402h-.8v-.4c0-.24-.16-.4-.4-.4s-.4.16-.4.4v2.803h-.4c-.24 0-.4.16-.4.4s.16.4.4.4h.4v.8H36.88v-.8h.4c.24 0 .4-.16.4-.4s-.16-.4-.4-.4h-.4v-4.004h.4c.24 0 .4-.16.4-.4s-.16-.4-.4-.4h-.4a2.06 2.06 0 0 0-1.602-1.602v-1.2c0-.24-.16-.4-.4-.4s-.4.16-.4.4v1.2h-.4a1.98 1.98 0 0 1-1.922-1.602h1.12c.24 0 .4-.16.4-.4V16.66c0-.24-.16-.4-.4-.4h-1.2v-1.602h.4c.24 0 .4-.16.4-.4s-.16-.4-.4-.4h-.4c-.32-2.483-2.002-4.485-4.324-5.285V5.848h.4c.24 0 .4-.16.4-.4s-.16-.4-.4-.4h-.4a2.06 2.06 0 0 0-1.602-1.602V.643c0-.24-.16-.4-.4-.4s-.4.16-.4.4v2.803a2.06 2.06 0 0 0-1.602 1.602h-.4c-.24 0-.4.16-.4.4s.16.4.4.4h.4V8.57c-2.322.8-4.004 2.803-4.324 5.285h-.48c-.24 0-.4.16-.4.4s.16.4.4.4h.4v1.602h-1.2c-.24 0-.4.16-.4.4v1.602c0 .24.16.4.4.4h1.12a1.98 1.98 0 0 1-1.922 1.602h-.4v-1.2c0-.24-.16-.4-.4-.4s-.4.16-.4.4v1.2a2.06 2.06 0 0 0-1.602 1.602h-.4c-.24 0-.4.16-.4.4s.16.4.4.4h.4v4.004h-.4c-.24 0-.4.16-.4.4s.16.4.4.4h.4v.8H8.123v-.8h.4c.24 0 .4-.16.4-.4s-.16-.4-.4-.4h-.4v-2.803c0-.24-.16-.4-.4-.4s-.4.16-.4.4v.4h-.8v-2.402h.4c.24 0 .4-.16.4-.4s-.16-.4-.4-.4h-.4c0-.72-.48-1.36-1.2-1.522v-1.28c0-.24-.16-.4-.4-.4s-.4.16-.4.4v1.28c-.72.16-1.2.8-1.2 1.522h-.4c-.24 0-.4.16-.4.4s.16.4.4.4h.4v2.402h-.8v-.4c0-.24-.16-.4-.4-.4s-.4.16-.4.4v2.803h-.4c-.24 0-.4.16-.4.4s.16.4.4.4h.4v2.402h-.4c-.24 0-.4.16-.4.4s.16.4.4.4h.4v6.406h-.4c-.24 0-.4.16-.4.4s.16.4.4.4h.4v7.207h-1.2c-.24 0-.4.16-.4.4s.16.4.4.4h50.45c.24 0 .4-.16.4-.4s-.24-.4-.48-.4zm-2.002-8.008H44.08v-6.406h4.805v6.406zm-2.402-16.817c.48 0 .8.32.8.8H45.68c0-.48.4-.8.8-.8zm-.8 1.602h1.602v2.402H45.68v-2.402zm-1.602 3.283l1.2-.08h3.524v1.602H44v-1.522h.08zm4.805 2.322v2.402H44.08V27.47h4.805zm-5.606 1.602v.8h-.4c-.24 0-.4.16-.4.4s.16.4.4.4h.4v.8h-6.406v-.8h.4c.24 0 .4-.16.4-.4s-.16-.4-.4-.4h-.4v-.8h6.406zM22.46 42.686V35.48c0-1.762 1.44-3.203 3.203-3.203a3.21 3.21 0 0 1 3.203 3.203v9.6H22.46v-2.402zm3.203-11.2a4.06 4.06 0 0 0-3.203 1.602v-2.402h6.406v2.402a3.94 3.94 0 0 0-3.203-1.602zm2.002-1.602H22.46V28.27h6.406v1.602h-1.2zm-7.608-5.606h1.602v1.602h-1.602v-1.602zm3.604 0h5.205v1.602H22.46v-1.602h1.2zm-2.002-5.606h.8v3.203h-.8V18.66zm1.602 0h4.805v3.203h-.8v-.88a1.61 1.61 0 0 0-1.602-1.602c-.882 0-1.602.72-1.602 1.602v.88h-.8V18.66zm6.406 3.203h-.8V18.66h.8v3.203zm-3.203 0H24.86v-.88c0-.48.32-.8.8-.8s.8.32.8.8v.88zm-2.402.8h3.203v.8H24.06v-.8zm7.207 3.203h-1.602v-1.602h1.602v1.602zm-11.612.8H32.87v.8H18.453v-.8h1.2zM15.25 28.67v-1.2h2.402v.4c0 .24.16.4.4.4h1.2v1.602H15.25v-1.2zm4.004 2.002v1.842a1.35 1.35 0 0 0-.801-.24 1.35 1.35 0 0 0-.801.24v-1.842h1.602zm0 10.4h-1.602V39.48c0-.48.32-.8.8-.8s.8.32.8.8v1.602zm-.8-3.203a1.35 1.35 0 0 0-.801.24v-1.84h1.602v1.842a1.35 1.35 0 0 0-.801-.24zm.8-2.402h-1.602v-1.602c0-.48.32-.8.8-.8s.8.32.8.8v1.602zm-1.602 6.406h1.602v3.203h-1.602v-3.203zm2.402-13.614h1.602v1.602h-1.602v-1.6zm9.6 0h1.602v1.602h-1.602v-1.6zm4.004 12.813h-1.602V39.48c0-.48.32-.8.8-.8s.8.32.8.8v1.602zm-.8-3.203a1.35 1.35 0 0 0-.801.24v-1.84h1.602v1.842a1.35 1.35 0 0 0-.801-.24zm.8-2.402h-1.602v-1.602c0-.48.32-.8.8-.8s.8.32.8.8v1.602zm-1.602 6.406h1.602v3.203h-1.602v-3.203zm1.602-9.37a1.35 1.35 0 0 0-.801-.24 1.35 1.35 0 0 0-.801.24V30.67h1.602v1.842zm-1.602-2.643v-1.6h1.2c.24 0 .4-.16.4-.4v-.4h2.402v2.402h-4.004zm4.004-3.203h-.8v-2.002c0-.24-.16-.4-.4-.4s-.4.16-.4.4v2.002h-.8v-4.004h2.402v4.004zm-.08-4.805h-2.23c.16-.48.64-.8 1.12-.8s.96.32 1.12.8zm-2.643-.88a1.91 1.91 0 0 0-.48.881h-.4c-.24 0-.4.16-.4.4s.16.4.4.4h.4v3.203h-.8v-2.002c0-.24-.16-.4-.4-.4h-3.604v-.8h2.803c.24 0 .4-.16.4-.4s-.16-.4-.4-.4h-.4V18.66h.88c.16 1.12.96 2.002 2.002 2.322zm-2.082-4.725h-.8v-1.602h.8v1.602zm-9.6-1.602h1.602v1.602h-1.602v-1.602zm2.402 0h3.203v1.602h-3.2v-1.602zm4.004 0h1.602v1.602H28.06v-1.602zm-2.4-10.41a1.13 1.13 0 0 1 1.121.801h-2.24a1.13 1.13 0 0 1 1.121-.801zm-1.2 1.602h2.402V8.33c-.24-.08-.56-.08-.8-.08v-1.2c0-.24-.16-.4-.4-.4s-.4.16-.4.4v1.2c-.24 0-.56.08-.8.08V5.848zm1.2 3.203c2.803 0 5.125 2.082 5.526 4.805h-11.05c.4-2.723 2.723-4.805 5.526-4.805zm-5.606 5.606h.8v1.602h-.8v-1.602zm-1.602 2.402h14.415v.8H18.453v-.8zm1.602 1.602h.88v3.203h-.4c-.24 0-.4.16-.4.4s.16.4.4.4h2.803v.8h-3.604c-.24 0-.4.16-.4.4v2.002h-.8v-3.203h.4c.24 0 .4-.16.4-.4s-.16-.4-.4-.4h-.4a1.91 1.91 0 0 0-.48-.881c.96-.32 1.842-1.2 2.002-2.322zm-3.604 2.402a1.13 1.13 0 0 1 1.121.801h-2.24c.16-.48.64-.8 1.12-.8zm1.2 1.602v4.004h-.8v-2.002c0-.24-.16-.4-.4-.4s-.4.16-.4.4v2.002h-.8v-4.004h2.402zm-3.203 6.406v.8h-.4c-.24 0-.4.16-.4.4s.16.4.4.4h.4v.8H8.043v-.8h.4c.24 0 .4-.16.4-.4s-.16-.4-.4-.4h-.4v-.8h6.406zm-9.6-8.8c.48 0 .8.32.8.8H4.04c0-.48.32-.8.8-.8zm-.8 1.602H5.64v2.402h-1.6v-2.402zm-1.602 3.283l1.12-.08H7.17v1.602H2.357v-1.522h.08zm0 2.322H7.25v2.402H2.437v-2.4zm0 3.203H7.25v6.406H2.437V30.67zm0 7.207H7.25v7.207H2.437V37.88zm5.606 0h.4c.24 0 .4-.16.4-.4s-.16-.4-.4-.4h-.4v-4.805h6.406v12.813H8.043V37.88zm7.207 7.207V30.673h1.602v14.415h-1.6zm4.805 0V30.673h1.602v14.415h-1.602zm9.6 0V30.673h1.602v14.415h-1.602zm4.805-3.604v-10.8h1.602v14.415h-1.6v-3.604zm2.402-9.2h6.406v4.805h-.4c-.24 0-.4.16-.4.4s.16.4.4.4h.4v7.207H36.87V32.275zm7.207 12.813V37.88h4.805v7.207H44.08zm-31.63-6.404h-2.402c-.24 0-.4.16-.4.4v3.203c0 .24.16.4.4.4h2.402c.24 0 .4-.16.4-.4V39.08c0-.24-.16-.4-.4-.4zm-.4.8v.8h-1.602v-.8h1.602zm0 2.402h-1.602v-.8h1.602v.8zm.4-8.8h-2.402c-.24 0-.4.16-.4.4v3.203c0 .24.16.4.4.4h2.402c.24 0 .4-.16.4-.4v-3.203c0-.24-.16-.4-.4-.4zm-.4.8v.8h-1.602v-.8h1.602zm0 2.402h-1.602v-.8h1.602v.8zM6.04 38.68H3.638c-.24 0-.4.16-.4.4v3.203c0 .24.16.4.4.4H6.04c.24 0 .4-.16.4-.4V39.08c0-.24-.16-.4-.4-.4zm-.4 3.203h-1.6V39.48h1.6v2.402z" fill-rule="nonzero"/><circle cx="25.66" cy="15.458" r="1"/><circle cx="4.839" cy="28.671" r="1"/><path d="M45.28 35.478h2.402c.24 0 .4-.16.4-.4v-3.203c0-.24-.16-.4-.4-.4H45.28c-.24 0-.4.16-.4.4v3.203c0 .24.16.4.4.4zm.4-.8v-.8h1.602v.8H45.68zm1.602-2.402v.8H45.68v-.8h1.602zm-6.006 6.406h-2.402c-.24 0-.4.16-.4.4v3.203c0 .24.16.4.4.4h2.402c.24 0 .4-.16.4-.4v-3.203c0-.24-.16-.4-.4-.4zm-2.002.8h1.602v.8h-1.602v-.8zm0 2.402v-.8h1.602v.8h-1.602zm2.002-8.81h-2.402c-.24 0-.4.16-.4.4v3.203c0 .24.16.4.4.4h2.402c.24 0 .4-.16.4-.4v-3.203c0-.24-.16-.4-.4-.4zm-2.002.8h1.602v.8h-1.602v-.8zm0 2.402v-.8h1.602v.8h-1.602zm8.41 2.402H45.28c-.24 0-.4.16-.4.4v3.203c0 .24.16.4.4.4h2.402c.24 0 .4-.16.4-.4v-3.203c0-.24-.16-.4-.4-.4zm-.4 3.203H45.68v-2.402h1.602v2.402z" fill-rule="nonzero"/><circle cx="46.482" cy="28.671" r="1"/></svg>