<svg xmlns="http://www.w3.org/2000/svg" width="496" height="440" viewBox="0 0 496 440">
  <g id="punjab" transform="translate(0 -56)">
    <path id="Path_91" data-name="Path 91" d="M456,368V272h16V256H456V224H440V160h16V144H444.793a38.878,38.878,0,0,0-14.219-47.887A37.894,37.894,0,0,1,417.7,81.527L416,78.113V56H400V78.113l-1.7,3.406a38.013,38.013,0,0,1-12.871,14.586A38.889,38.889,0,0,0,371.207,144H360v16h16v64h-8v-9.367a23.854,23.854,0,0,0-7.031-16.977L344,180.687l-16,16-6.266-6.262,1.008-2.02a49.8,49.8,0,0,0-28.8-69.52,144.887,144.887,0,0,1-29.312-13.648A23.856,23.856,0,0,0,256,65.473H240a23.856,23.856,0,0,0-8.641,39.758,144.683,144.683,0,0,1-29.312,13.648,49.813,49.813,0,0,0-28.789,69.527l1.008,2.02L168,196.687l-16-16-16.969,16.969A23.827,23.827,0,0,0,128,214.633V224h-8V160h16V144H124.793a38.878,38.878,0,0,0-14.219-47.887A37.894,37.894,0,0,1,97.7,81.527L96,78.113V56H80V78.113l-1.7,3.406A38.013,38.013,0,0,1,65.426,96.105,38.889,38.889,0,0,0,51.207,144H40v16H56v64H40v32H24v16H40v96H0V496H496V368Zm-16,0H360V272h80ZM246.113,272l-32,16A39.785,39.785,0,0,0,192,323.777V368H152V272ZM208.32,320a23.821,23.821,0,0,1,12.945-17.687L248,288.945l26.734,13.367A23.821,23.821,0,0,1,287.679,320ZM208,336h16v32H208Zm32,0h16v32H240Zm32,0h16v32H272Zm9.887-48-32-16H344v96H304V323.777A39.785,39.785,0,0,0,281.886,288ZM386.449,138.992a23.084,23.084,0,0,1,7.848-29.566,54.246,54.246,0,0,0,13.7-13.3,53.984,53.984,0,0,0,13.7,13.3A23.094,23.094,0,0,1,429.551,139l-2.5,5h-38.1ZM392,160h32v64H392Zm-53.656,48.969L344,203.312l5.656,5.656A7.963,7.963,0,0,1,352,214.633V224H336v-9.367A7.963,7.963,0,0,1,338.344,208.969ZM184,203.312l5.656,5.656A7.963,7.963,0,0,1,192,214.633V224H176v-9.367a7.963,7.963,0,0,1,2.344-5.664Zm24,11.32a7.963,7.963,0,0,1,2.344-5.664L216,203.312l5.656,5.656A7.963,7.963,0,0,1,224,214.633V224H208Zm40-87.656a60.1,60.1,0,0,0,11.055,15.391A43.893,43.893,0,0,1,272,173.625v15.063l-8,8-16-16-16,16-8-8V173.625a43.907,43.907,0,0,1,12.945-31.258A60.24,60.24,0,0,0,248,126.976Zm-8,87.656a7.963,7.963,0,0,1,2.344-5.664L248,203.312l5.656,5.656A7.963,7.963,0,0,1,256,214.633V224H240Zm32,0a7.963,7.963,0,0,1,2.344-5.664L280,203.312l5.656,5.656A7.963,7.963,0,0,1,288,214.633V224H272Zm32,0a7.963,7.963,0,0,1,2.344-5.664L312,203.312l5.656,5.656A7.963,7.963,0,0,1,320,214.633V224H304Zm8-48.5a33.949,33.949,0,0,1-3.566,15.121l-3.008,6.016L296,196.687l-8-8V173.625a59.836,59.836,0,0,0-17.633-42.57,43.734,43.734,0,0,1-6.062-7.629,160.818,160.818,0,0,0,24.582,10.637A33.757,33.757,0,0,1,312,166.137ZM248,80a8,8,0,1,1-8,8A8.01,8.01,0,0,1,248,80Zm-40.879,54.063A160.82,160.82,0,0,0,231.7,123.426a44.147,44.147,0,0,1-6.07,7.629A59.823,59.823,0,0,0,208,173.625v15.063l-8,8-9.426-9.422-3.008-6.027a33.795,33.795,0,0,1,19.555-47.176ZM144,214.633a7.963,7.963,0,0,1,2.344-5.664L152,203.312l5.656,5.656A7.963,7.963,0,0,1,160,214.633V224H144ZM66.449,138.992A23.084,23.084,0,0,1,74.3,109.426,54.246,54.246,0,0,0,88,96.121a53.984,53.984,0,0,0,13.7,13.3A23.094,23.094,0,0,1,109.551,139l-2.5,5H68.945ZM72,160h32v64H72ZM56,240H440v16H56Zm0,32h80v96H56ZM480,384v64H368V437.258a39.746,39.746,0,0,0-11.719-28.281L336,388.679l-20.281,20.289A39.777,39.777,0,0,0,304,437.258V448H288V416H208v32H192V437.258a39.746,39.746,0,0,0-11.719-28.281L160,388.679l-20.281,20.289A39.777,39.777,0,0,0,128,437.258V448H16V384ZM64,464v16H48V464Zm16,0H96v16H80Zm32,0h16v16H112Zm32-16h32v32H144Zm.641-16a24.1,24.1,0,0,1,6.391-11.711L160,411.32l8.969,8.969A24.16,24.16,0,0,1,175.359,432ZM192,464h16v16H192Zm80-16H224V432h48Zm-48,16h16v16H224Zm32,0h16v16H256Zm32,0h16v16H288Zm32-16h32v32H320Zm.641-16a24.1,24.1,0,0,1,6.391-11.711L336,411.32l8.969,8.969A24.16,24.16,0,0,1,351.359,432ZM368,464h16v16H368Zm32,0h16v16H400Zm32,0h16v16H432ZM16,464H32v16H16Zm448,16V464h16v16Zm0,0" fill="#fff"/>
    <path id="Path_92" data-name="Path 92" d="M72,296v48h48V296Zm32,32H88V312h16Zm0,0" fill="#fff"/>
    <path id="Path_93" data-name="Path 93" d="M424,344V296H376v48Zm-32-32h16v16H392Zm0,0" fill="#fff"/>
  </g>
</svg>
