<svg xmlns="http://www.w3.org/2000/svg" width="1000" height="301.354" xmlns:v="https://vecta.io/nano"><path d="M620.38 235.668c-58.112 42.833-142.34 65.686-214.86 65.686-101.685 0-193.227-37.6-262.482-100.16-5.44-4.92-.566-11.622 5.964-7.792 74.74 43.486 167.153 69.647 262.613 69.647 64.38 0 135.202-13.32 200.322-40.96 9.838-4.18 18.065 6.442 8.445 13.58m24.158-27.642c-7.4-9.5-49.1-4.484-67.82-2.264-5.702.696-6.573-4.266-1.436-7.835 33.213-23.375 87.712-16.628 94.067-8.793 6.355 7.88-1.654 62.508-32.865 88.582-4.788 4.005-9.36 1.872-7.226-3.44 7.008-17.5 22.722-56.72 15.28-66.252" fill="#f90" fill-rule="evenodd"/><path d="M578.026 32.908V10.186c0-3.44 2.612-5.746 5.746-5.746H685.5c3.265 0 5.876 2.35 5.876 5.746v19.458c-.043 3.265-2.786 7.53-7.66 14.278l-52.714 75.262c19.588-.48 40.265 2.438 58.025 12.45 4.005 2.264 5.093 5.572 5.398 8.836v24.246c0 3.308-3.656 7.182-7.487 5.18-31.298-16.4-72.868-18.195-107.474.174-3.526 1.915-7.226-1.915-7.226-5.224V141.82c0-3.7.043-10.012 3.743-15.627l61.072-87.58h-53.15c-3.265 0-5.876-2.307-5.876-5.702M206.94 174.684H176c-2.96-.218-5.3-2.438-5.528-5.267V10.578c0-3.178 2.655-5.702 5.964-5.702h28.86c3.004.13 5.398 2.438 5.615 5.3V30.95h.566c7.53-20.067 21.678-29.426 40.743-29.426 19.37 0 31.472 9.36 40.178 29.426 7.487-20.067 24.507-29.426 42.746-29.426 12.972 0 27.162 5.354 35.825 17.368 9.794 13.364 7.792 32.778 7.792 49.798l-.043 100.248c0 3.178-2.655 5.746-5.964 5.746h-30.906c-3.1-.218-5.572-2.7-5.572-5.746V84.752c0-6.704.6-23.42-.87-29.774C333.09 44.313 326.168 41.3 317.2 41.3c-7.487 0-15.322 5.006-18.5 13.015s-2.873 21.416-2.873 30.427v84.186c0 3.178-2.655 5.746-5.964 5.746h-30.906c-3.134-.218-5.572-2.7-5.572-5.746l-.043-84.186c0-17.716 2.916-43.8-19.066-43.8-22.244 0-21.373 25.42-21.373 43.8v84.186c0 3.178-2.655 5.746-5.964 5.746M778.958 1.524c45.923 0 70.78 39.438 70.78 89.583 0 48.448-27.467 86.885-70.78 86.885-45.096 0-69.647-39.438-69.647-88.582 0-49.45 24.855-87.886 69.647-87.886m.26 32.43c-22.8 0-24.246 31.08-24.246 50.45 0 19.414-.305 60.854 23.985 60.854 23.985 0 25.116-33.43 25.116-53.802 0-13.407-.566-29.426-4.614-42.136-3.482-11.056-10.403-15.366-20.24-15.366m130.066 140.73h-30.82c-3.1-.218-5.572-2.7-5.572-5.746l-.043-158.882c.26-2.916 2.83-5.18 5.964-5.18H907.5c2.7.13 4.92 1.96 5.528 4.44v24.3h.566c8.662-21.72 20.807-32.08 42.18-32.08 13.886 0 27.424 5.006 36.13 18.718C1000 32.952 1000 54.325 1000 69.7v99.987c-.348 2.786-2.916 5.006-5.963 5.006H963c-2.83-.218-5.18-2.307-5.485-5.006V83.402c0-17.368 2.002-42.8-19.37-42.8-7.53 0-14.452 5.05-17.9 12.7-4.353 9.707-4.92 19.37-4.92 30.08v85.535c-.043 3.178-2.742 5.746-6.05 5.746M496.93 98.812c0 12.058.305 22.113-5.8 32.82-4.92 8.706-12.754 14.06-21.416 14.06-11.884 0-18.848-9.054-18.848-22.418 0-26.38 23.636-31.167 46.054-31.167v6.704m31.2 75.436c-2.046 1.828-5.006 1.96-7.313.74-10.273-8.532-12.145-12.493-17.76-20.633-16.976 17.325-29.034 22.505-51.016 22.505-26.074 0-46.315-16.062-46.315-48.23 0-25.116 13.58-42.223 32.995-50.58 16.802-7.4 40.265-8.706 58.2-10.752v-4.005c0-7.356.566-16.062-3.787-22.418-3.744-5.702-10.97-8.053-17.368-8.053-11.796 0-22.287 6.05-24.855 18.587-.522 2.786-2.568 5.528-5.398 5.66l-29.992-3.22c-2.525-.566-5.354-2.612-4.614-6.486C417.795 10.97 450.703 0 480.13 0c15.06 0 34.736 4.005 46.62 15.4 15.06 14.06 13.625 32.82 13.625 53.236v48.23c0 14.495 6.007 20.85 11.666 28.686 1.96 2.786 2.394 6.138-.13 8.227-6.312 5.267-17.542 15.06-23.724 20.546l-.043-.087M91.194 98.812c0 12.058.305 22.113-5.8 32.82-4.92 8.706-12.7 14.06-21.416 14.06-11.884 0-18.805-9.054-18.805-22.418 0-26.38 23.636-31.167 46-31.167v6.704m31.2 75.436c-2.046 1.828-5.006 1.96-7.313.74-10.273-8.532-12.1-12.493-17.76-20.633-16.976 17.325-29 22.505-51.016 22.505C20.285 176.86 0 160.798 0 128.63c0-25.116 13.625-42.223 32.995-50.58 16.802-7.4 40.265-8.706 58.2-10.752v-4.005c0-7.356.566-16.062-3.744-22.418-3.787-5.702-11.013-8.053-17.368-8.053-11.796 0-22.33 6.05-24.9 18.587-.522 2.786-2.568 5.528-5.354 5.66L9.794 53.85c-2.525-.566-5.3-2.612-4.614-6.486C12.1 10.97 44.966 0 74.392 0c15.06 0 34.736 4.005 46.62 15.4 15.06 14.06 13.625 32.82 13.625 53.236v48.23c0 14.495 6.007 20.85 11.666 28.686 2.002 2.786 2.438 6.138-.087 8.227-6.312 5.267-17.542 15.06-23.724 20.546l-.087-.087" fill-rule="evenodd"/></svg>