<svg xmlns="http://www.w3.org/2000/svg" width="16" height="20" fill-rule="evenodd" xmlns:v="https://vecta.io/nano"><g fill="#fe5d5d"><rect x="10.813" y="11.778" width="1" height="1" rx=".5"/><rect x="10.813" y="14.183" width="1" height="1" rx=".5"/><rect x="12.016" y="12.98" width="1" height="1" rx=".5"/><rect x="9.611" y="12.98" width="1" height="1" rx=".5"/></g><g fill="#39304f"><path d="M9.352.3l.805.028-.045 1.272a5 5 0 0 1-.036.381c-.036.284-.09.58-.17.876-.234.878-.623 1.572-1.232 1.96-.645.412-.772 1.4-.658 2.203l.016.105.005.08-.104 2.96-.805-.028.102-2.924-.017-.14-.008-.083L7.2 6.9a4.88 4.88 0 0 1 .013-.829c.083-.793.364-1.45.92-1.858l.108-.074c.403-.257.7-.788.887-1.5a5.87 5.87 0 0 0 .149-.77l.02-.192.01-.12L9.352.3z"/><path d="M11.48 9.15l.167-.004.133.002c1.797.062 3.313 1.388 3.614 3.156.282 1.204.518 2.565.587 3.81.113 2.037-.238 3.362-1.394 3.62a1.74 1.74 0 0 1-.38.041c-1.253 0-2.77-1.193-4.442-3.088l-.302-.346h-2.92l-.27.3c-1.84 2.088-3.45 3.318-4.755 3.1l-.095-.02c-1.198-.27-1.537-1.67-1.4-3.818a20.95 20.95 0 0 1 .301-2.301l.223-1.1.07-.3c.36-1.787 1.92-3.072 3.733-3.07.776.003 1.532.234 2.18.663l.188.026.882.07.293.006a9.9 9.9 0 0 0 1.729-.165l-.09.015.05-.03a3.96 3.96 0 0 1 1.889-.581zm-5.4 1.516a3 3 0 0 0-1.722-.554c-1.35-.001-2.513.958-2.787 2.313l-.08.342-.207 1.02-.288 2.193c-.115 1.678.132 2.696.638 2.8.88.197 2.537-1.144 4.316-3.245l.145-.17H9.91l.145.172c1.644 1.947 3.203 3.262 4.152 3.262a.77.77 0 0 0 .169-.018c.927-.207.81-2.967.15-5.95l-.08-.345c-.235-1.378-1.417-2.384-2.8-2.384l-.146.004c-.49.026-.968.173-1.4.427l-.125.08-.083.056-.1.018c-.626.116-1.26.177-1.904.18-.54-.003-1.08-.047-1.616-.13l-.113-.017-.093-.066z"/><path d="M6.4 8.02h2.147v1.6H6.4z"/></g><g fill="#fe5d5d"><rect x="2.095" y="13.388" width="3.758" height="1.074" rx=".5"/><path d="M4.124 12.046c.207 0 .375.168.375.375v3.008c0 .207-.168.375-.375.375h-.3c-.207 0-.375-.168-.375-.375V12.42c0-.207.168-.375.375-.375h.3z"/></g><path d="M5.143 10s1.538 1.714 2.992 1.714C9.5 11.5 11 10 11 10H5.143z" fill="#39304f"/></svg>