<svg xmlns="http://www.w3.org/2000/svg" xmlns:xlink="http://www.w3.org/1999/xlink" width="162" height="91" xmlns:v="https://vecta.io/nano"><defs><path d="M188.608 34.526c1.223-.343 2.04-1.494 2.04-2.76V4.423A3.89 3.89 0 0 0 186.752.54H42.488c0 3.135-2.55 5.677-5.694 5.677v6.758a1.35 1.35 0 0 1 1.353 1.348 1.35 1.35 0 0 1-1.353 1.348v8.274a1.35 1.35 0 0 1 1.353 1.348 1.35 1.35 0 0 1-1.353 1.348v8.274a1.35 1.35 0 0 1 1.353 1.348 1.35 1.35 0 0 1-1.353 1.348v8.274a1.35 1.35 0 0 1 1.353 1.348 1.35 1.35 0 0 1-1.353 1.348v8.274a1.35 1.35 0 0 1 1.353 1.348 1.35 1.35 0 0 1-1.353 1.348v8.274a1.35 1.35 0 0 1 1.353 1.348 1.35 1.35 0 0 1-1.353 1.348v6.758c3.145 0 5.694 2.542 5.694 5.677h144.265a3.89 3.89 0 0 0 3.896-3.884V51.733c0-1.266-.817-2.418-2.04-2.76-3.165-.886-5.485-3.784-5.485-7.223s2.32-6.337 5.485-7.223z" id="A"/><filter x="-4.5%" y="-6.1%" width="109.1%" height="117.0%" id="B"><feOffset dy="2" in="SourceAlpha"/><feGaussianBlur stdDeviation="2"/><feColorMatrix values="0 0 0 0 0 0 0 0 0 0 0 0 0 0 0 0 0 0 0.113226617 0"/></filter></defs><g transform="translate(-33 2)" fill-rule="evenodd"><use fill="#000" filter="url(#B)" xlink:href="#A"/><use fill="#f6f6f6" xlink:href="#A"/></g></svg>