<svg xmlns="http://www.w3.org/2000/svg" xmlns:xlink="http://www.w3.org/1999/xlink" width="83" height="37" xmlns:v="https://vecta.io/nano"><defs><path id="A" d="M0 .372h36.793v82.42H0z"/></defs><g transform="matrix(0 1 -1 0 83 .167752)" fill-rule="evenodd"><mask id="B" fill="#fff"><use xlink:href="#A"/></mask><path d="M35.44 69.01a1.35 1.35 0 0 1 1.353-1.348v-8.274a1.35 1.35 0 0 1-1.353-1.348 1.35 1.35 0 0 1 1.353-1.348v-8.274a1.35 1.35 0 0 1-1.353-1.348 1.35 1.35 0 0 1 1.353-1.348v-8.274a1.35 1.35 0 0 1-1.353-1.348 1.35 1.35 0 0 1 1.353-1.348v-8.274a1.35 1.35 0 0 1-1.353-1.348 1.35 1.35 0 0 1 1.353-1.348v-8.274a1.35 1.35 0 0 1-1.353-1.348 1.35 1.35 0 0 1 1.353-1.348V6.048C33.648 6.048 31.1 3.506 31.1.37H7.894c-1.072 0-1.983.73-2.274 1.76C4.783 5.084 2.71 7.51 0 8.848v65.468c2.71 1.336 4.783 3.763 5.62 6.717.292 1.03 1.202 1.76 2.275 1.76H31.1c0-3.135 2.55-5.677 5.694-5.677v-6.758a1.35 1.35 0 0 1-1.353-1.348" fill="#f86d70" mask="url(#B)"/></g></svg>