<svg xmlns="http://www.w3.org/2000/svg" width="593.905" height="495.143" viewBox="0 0 593.905 495.143">
  <g id="bombay" transform="translate(-0.003 -42.572)">
    <g id="Group_96" data-name="Group 96" transform="translate(67.686 390.563)">
      <g id="Group_95" data-name="Group 95">
        <path id="Path_85" data-name="Path 85" d="M115.33,375.786a134.1,134.1,0,0,0-13.377-23c-3.051-4.312-7.46-10.748-13.642-10.179-3.473.32-5.628,3.667-8.09,5.778a63.3,63.3,0,0,0-9.255,10.02c-4.072,5.461-7.28,10.915-8.733,16.983a61.845,61.845,0,0,0-3.62,12.71c-.9,5.468.386,9.576,6.3,10.357,8.975,1.187,18.534-1.854,27.537-1.662,4.5.1,9-.144,13.489-.18,3.311-.026,6.582.432,9.358-1.833C120.817,390.27,117.674,381.126,115.33,375.786Zm-6.749,15.343a16.664,16.664,0,0,0-2.645-.109c-6.923,1.063-14.089-.383-21.011.563-4.852.662-9.915.883-14.828,1.363-4.109.4-7.031.865-6.19-4.362,2.448-15.211,11.724-26.182,21.176-37.435,2.168-1.6,4.357-2.439,6.317-1.7,3.115,1.179,5.709,6.222,7.563,8.848a62.5,62.5,0,0,1,5.874,10.07c1.465,3.256,3.559,6.013,5.1,9.217.966,2.01,2.192,4.841,2.284,7.086Q113.5,388.556,108.581,391.129Z" transform="translate(-58.351 -342.572)" fill="#fff"/>
      </g>
    </g>
    <g id="Group_98" data-name="Group 98" transform="translate(173.898 147.559)">
      <g id="Group_97" data-name="Group 97" transform="translate(0 0)">
        <path id="Path_86" data-name="Path 86" d="M169.1,149.075c-.667-2.842-.858-5.925-1.985-8.63-1.644-3.943-4.578-8.659-9.578-7.036-4.924,1.6-6.716,6.823-7.27,11.5-.3,2.5-1.414,14.051,2.935,13.385a43.419,43.419,0,0,1,13.748.4c1.052.19,2.542-.28,2.717-1.543A21.189,21.189,0,0,0,169.1,149.075Zm-9.675,4.447a29.046,29.046,0,0,0-5.03.043c-.509-4.914-.416-11.015,2.564-14.87,4.067-5.256,6.865,4.3,7.259,6.743.441,2.75,1.366,5.635,1.369,8.457A48.511,48.511,0,0,0,159.421,153.522Z" transform="translate(-149.916 -133.08)" fill="#fff"/>
      </g>
    </g>
    <g id="Group_100" data-name="Group 100" transform="translate(0.003 42.572)">
      <g id="Group_99" data-name="Group 99">
        <path id="Path_87" data-name="Path 87" d="M592.448,338.605c-2.657-4.777-9.67-4.183-14.465-3.888-.249-.022-.5-.056-.753-.074,1.608-4.669,0-11.207.13-15.721.14-4.783,1.46-10.205-.473-14.62,1.767-.077,3.523-.195,5.26-.425,6.025-.8,6.85-5.172,7.846-10.548,1.852-9.992-7.858-10.283-16.726-9.661-2.459-.335-4.922-.637-7.393-.87,1.13-7.075,1.768-15.918-7.277-16.466-11.8-.716-23.679-1.47-35.522-1.51-5.147-.017-10,.755-15.084.833-6.188.094-12.416-.143-18.608-.183-11.471-.075-22.867.605-34.378.537-5.561-.032-11.167.007-16.773.115.639-3.587-.155-8.122.173-11.119.651-5.921,1.422-12.107.76-18.026-.757-6.759.321-13.494.256-20.311-.056-5.685.687-12.144-1.456-17.538a28.778,28.778,0,0,0,3.081-.179c7.7-.907,4.593-9.658,4.1-14.956a3.235,3.235,0,0,0-3.116-3.116q-2.229-.256-4.468-.507c.761-3.862.295-8.562.291-11.429-.009-8.73.786-18.29-1.568-26.833h.567c3.585-.006,6.575-.449,7.4-4.464,1.1-5.385-2.43-9.429-6.9-10.876.835-2.646.82-6.7.67-9.1a43.241,43.241,0,0,0-3.108-12.111,83.314,83.314,0,0,0-6.92-13.64A48.35,48.35,0,0,0,423.705,83c-2.5-4.051-7.2-11.56-12.625-13.924a74.8,74.8,0,0,0,.643-8.681c.051-5.038-.019-10.122-.309-15.152a2.769,2.769,0,0,0-5.535,0c-.387,6.684-.357,13.406-.205,20.1.019.84.019,2.054.15,3.293-7.307,2.213-11.582,12.394-15.022,18.4a50.319,50.319,0,0,0-4.751,12.088c-1.163,4.3-2.83,8.918-3.594,13.27-.662,3.779-1.211,10.115.759,14.335-4.249,1.614-6.227,9.867-2.394,12.936a7.6,7.6,0,0,0,2.837,1.357c-1.388,5.08-1.595,11.041-2.141,16.026-.3,2.7-.472,5.487-.551,8.3-5.179-.907-10.6-.541-15.828-.579-6.005-.043-12.01-.125-18.014-.038-.741.01-1.477.03-2.214.044a119.787,119.787,0,0,0-21.437-.875c-4.164.117-8.182.886-12.4.892-4.567.007-9.243-.295-13.792.116-8.351.752-16.687.793-25.1.813a44.448,44.448,0,0,0-9.188-.838c-5.422.175-10.763-.074-16.2-.154-6.005-.088-12.01-.006-18.014.038-5.23.038-10.65-.328-15.828.579-.08-2.811-.255-5.6-.551-8.3-.546-4.984-.753-10.947-2.141-16.026a7.63,7.63,0,0,0,2.837-1.357c3.833-3.068,1.856-11.32-2.394-12.936,1.968-4.22,1.421-10.556.757-14.335-.763-4.352-2.43-8.965-3.594-13.27a50.385,50.385,0,0,0-4.751-12.088c-3.439-6-7.715-16.18-15.022-18.395.132-1.239.132-2.453.15-3.293.151-6.691.182-13.412-.205-20.1a2.769,2.769,0,0,0-5.535,0c-.291,5.03-.362,10.114-.309,15.152a74.814,74.814,0,0,0,.643,8.681C177.407,71.439,172.7,78.95,170.2,83a48.65,48.65,0,0,0-4.285,8.923,83.268,83.268,0,0,0-6.92,13.64,43.242,43.242,0,0,0-3.108,12.111c-.15,2.394-.165,6.451.67,9.1-4.471,1.446-8,5.492-6.9,10.876.821,4.014,3.811,4.459,7.4,4.464h.567c-2.355,8.542-1.559,18.1-1.568,26.833,0,2.867-.47,7.568.291,11.429q-2.236.249-4.468.507a3.235,3.235,0,0,0-3.116,3.116c-.494,5.3-3.6,14.051,4.1,14.956a29.4,29.4,0,0,0,3.081.179c-2.142,5.394-1.4,11.854-1.456,17.538-.066,6.816,1.014,13.551.255,20.311-.662,5.918.109,12.105.76,18.026.328,3-.467,7.531.173,11.119-5.606-.107-11.212-.147-16.773-.115-11.51.067-22.907-.612-34.378-.537-6.193.041-12.42.278-18.608.183-5.08-.077-9.936-.849-15.084-.833-11.844.039-23.719.793-35.522,1.51-9.044.55-8.405,9.391-7.277,16.466-2.471.233-4.932.536-7.393.87-8.867-.621-18.579-.331-16.724,9.661,1,5.375,1.821,9.746,7.846,10.548,1.736.231,3.495.348,5.262.425-1.934,4.414-.614,9.838-.473,14.62.132,4.513-1.479,11.051.13,15.721-.253.019-.5.052-.753.074-4.794-.3-11.807-.891-14.465,3.888-2.152,3.87-2.3,15.5,2.116,18.25,2.349,1.462,5.52.545,8.08.612,1.643.043,3.224.146,4.8.253-1.938,13.9-1.655,27.714-1.829,41.773-.1,8.1-.125,16.191-.168,24.285-.035,6.654,1.071,13.113.948,19.689-.259,13.9.356,28.157-1.5,41.9-.923,6.833-.532,13.814-.536,20.718,0,2.706-.195,5.421-.1,8.047-1.1,3.33-1.945,7.46.019,9.942,3.059,3.869,10.593,2.959,14.757,3.492,14.436,1.844,28.837.688,43.341,1.523,13.4.771,26.625,1.647,40.077,1.67,8.057.014,16.128-.1,24.183.1,3.159.078,7.254.329,10.733-.572,1.166,1.626,2.3,3.386,3.352,4.007,2.479,1.469,5.643,1.535,8.426,1.641,11.491.438,23.017-.193,34.5.039,7.265.147,38.252,6.528,39.345-6.118-.017.208,11.193-.834,12.247-1.1,1.924-.481,4.154-.239,6-.834,2.19-.705,2.279-2.8,2.349-4.852.238-6.864-.072-13.8-.176-20.663q-.32-20.759-1.248-41.5c-.4-8.577-.9-17.028-1.088-25.655-.092-4.345-.742-2.906,3.291-4.359,2.551-.918,5.836-1.335,8.227-2.539,4.928-2.483,3.579-6.982.861-10.577-5.516-7.294-7.81-15.268-5.162-24.279,2.416-8.228,8.78-15.41,15.055-20.984,2.978-2.644,6.157-4.787,8.884-7.7.158-.168.328-.324.493-.487,5.337-3.105,11.4-6.7,17.77-6.792a16.6,16.6,0,0,1,6.5,1.591c2.18,1.912,4.658,3.543,6.669,5.687,2.727,2.912,5.907,5.056,8.884,7.7,6.277,5.574,12.639,12.756,15.055,20.984,2.649,9.013.354,16.986-5.162,24.279-2.719,3.595-4.068,8.094.861,10.577,2.39,1.205,5.676,1.621,8.227,2.539,4.033,1.453,3.385.014,3.291,4.359-.183,8.627-.692,17.078-1.088,25.655-.6,12.956-.806,25.925-1.006,38.892-.093,6.076-.672,12.409-.051,18.425.4,3.835-.573,9.724,4.544,10.106,2.323.174,4.481.817,6.794,1.093,2.949.354,5.931.223,8.889.433,1.094,12.647,32.08,6.265,39.345,6.119,11.481-.232,23.008.4,34.5-.039,2.784-.107,5.947-.173,8.426-1.641,1.047-.621,2.187-2.38,3.352-4.007,3.479.9,7.575.651,10.733.572,8.055-.2,16.126-.086,24.183-.1,13.452-.023,26.681-.9,40.077-1.67,14.5-.835,28.905.323,43.341-1.523,4.164-.534,11.7.377,14.756-3.492,1.965-2.485,1.121-6.613.019-9.942.092-2.627-.1-5.341-.1-8.047,0-6.9.387-13.884-.536-20.718-1.857-13.745-1.241-28-1.5-41.9-.123-6.576.984-13.036.948-19.689-.043-8.1-.07-16.192-.168-24.285-.174-14.059.108-27.874-1.828-41.773,1.572-.108,3.154-.209,4.8-.253,2.56-.068,5.731.849,8.08-.612C594.746,354.109,594.6,342.476,592.448,338.605Zm-203.6-225.294c.793-4.1,2.255-8.455,3.393-12.492,2.138-7.583,6.321-13.812,10.385-20.422,2.791-4.539,6.037-4.288,9.119-2.049,1.051,1.277,1.97,2.725,2.734,3.668,2.765,3.414,4.868,7.063,7.375,10.643,1.054,1.507,2.083,3.106,3.058,4.766,1.876,4.107,3.492,8.405,5.415,12.5a32.563,32.563,0,0,1,1.168,7.533,16.215,16.215,0,0,1-.622,5.6c-.307.92-.4,1.259-.419,1.335.019-.086.078-.452-.167-.347-2.832,1.213-8.789-.57-11.891-.487-8.761.233-17.234,1.629-26.056.142-2.7-.455-2.727.506-3.5-2.484A18.367,18.367,0,0,1,388.849,113.312Zm-3.43,20.532c-.1-2.082.578-2.533,1.854-3.278a7.022,7.022,0,0,0,.741.245c9.174,2.1,19.782,1.024,29.025.11,3.357-.332,6.78.455,10.139.518,4.157.077,7.376-.762,11.073,1.793a2.243,2.243,0,0,1,.767.762,1.683,1.683,0,0,1-.74,2.05,3.827,3.827,0,0,1-1.422.544,23.9,23.9,0,0,1-4.375-.135c-7.451-.06-14.9.028-22.355-.027-4.146-.031-8.156-1.025-12.288-1.1-2.9-.052-5.8.338-8.7.245a8.8,8.8,0,0,1-2.6-.066,9.953,9.953,0,0,0-1.684-.585C385.09,134.888,385.461,134.689,385.419,133.843Zm45.031,41.766c-.057.606-1.021,3.492-.592,4.063a62.853,62.853,0,0,0-13.151.379,62.422,62.422,0,0,0-7.765-.667c-5.353.039-10.913-.465-16.228.015-1.52.138-3.009.679-4.52.821.516-8.215-.313-16.461.553-24.64.491-4.642,1.325-9.534.4-14.105,1.059-.03,2.09-.089,3.03-.118,7.56-.239,14.957.878,22.537.8,5.765-.059,11.534-.051,17.3-.049C429.027,152.953,431.474,164.556,430.451,175.609Zm-47.5,11.426.958.129a30.942,30.942,0,0,0,5.663.14,141.778,141.778,0,0,1,26.057.14,47.24,47.24,0,0,0,10.725-.02c2.246-.266,5.359-.2,7.507-1.245q2.544.223,5.076.531a14.846,14.846,0,0,0,.239,3.2c.024.114.966,2.658,1.117,3.043-.249-.522-8.153-.378-8.836-.288-8.033,1.064-16.12.143-24.085.312-6.76.143-14.638.753-21.449.039-2.985-.313-5.793-2.514-5.18-6.054C381.265,187,381.983,187.029,382.954,187.035Zm49.089,30.676c-.058,6.221-1.325,12.506-.543,18.678.876,6.929-.541,13.705-1.189,20.592a23.752,23.752,0,0,0,.645,9.335q-5.885.186-11.733.487c1.225-3.853.481-8.2.5-12.217.026-6.723.537-13.385.792-20.1.266-7.011.994-14.456.077-21.431-.416-3.163-2.064-9.572-1.4-13.631,3.2-.176,6.4-.43,9.581-.5,1.553-.034,3.167.032,4.786.1C431.232,204.73,432.1,211.732,432.043,217.711Zm-17.35,48.844a1.857,1.857,0,0,0-.126.456c-5,.183-9.918.19-14.961.253-.416.006-.828.026-1.241.043.023-6.41-.276-12.82-.262-19.224.012-5.467.923-10.774.886-16.269-.068-10.814.667-21.981.067-32.748,4.867.182,9.725.506,14.573.538.506,0,1.016-.022,1.523-.031a54.935,54.935,0,0,0-.154,7c-.142,6.439,1.16,12.73.942,19.261-.247,7.344-.659,14.7-.825,22.042C414.989,253.463,416.631,261.281,414.693,266.555ZM394.41,230.623c-.012,5.89-1.022,11.588-1.022,17.459,0,6.529-.028,13.081.041,19.614a82.261,82.261,0,0,1-8.859.66h-.184a4.414,4.414,0,0,0,.383-1.62c.331-6.446.1-12.953.044-19.409-.041-4.815.741-9.352.837-14.113.218-10.707,1.044-23.307-1.347-34.03,1.3.027,2.66-.035,4.017-.11,2.374-.133,4.749-.148,7.119-.108C392.647,208.685,394.432,220.645,394.41,230.623ZM212.961,172.141c5.173.9,10.586.538,15.812.577,6.005.043,12.01.133,18.014.038a110.633,110.633,0,0,0,11.106-.8c4.585.321,9.316.166,13.263.223,8.369.123,17.005.812,25.287-.215,11.782-1.463,24.04-.162,36.064-.447a122.327,122.327,0,0,0,14.615,1.239c6.005.1,12.01.006,18.014-.038,5.225-.038,10.638.327,15.812-.577.05,2.5.152,4.979.3,7.4-.432-.039-.866-.068-1.3-.065-7.854.065-5.865,8.066-4.729,13.391.024.116.058.216.086.328-1.707.18-3.41.466-4.88.5-7.309.188-14.721-.158-22.045-.16-5.172,0-10.188.209-15.259.539-10.711-2.809-22.963-.042-33.805-.014-7.057.019-14.039.263-21.029-.415-3.595-.349-8.471-.476-12.32.8-6.873-.538-13.515-.918-20.439-.915-7.325,0-14.737.348-22.045.16-1.47-.038-3.174-.325-4.88-.5.028-.113.063-.212.086-.328,1.134-5.323,3.124-13.326-4.729-13.391a12.791,12.791,0,0,0-1.3.065C212.808,177.12,212.911,174.637,212.961,172.141Zm164.681,61.073c-.409,11.157-1.463,22.255-.885,33.522a4.413,4.413,0,0,0,.419,1.707c-10,.222-19.961.806-29.956.742-6.321-.041-12.5.8-18.807.875a48.518,48.518,0,0,0-6.77.547c-1.862,0-3.727.044-5.574.043-7.79-.009-15.578-.174-23.331.554-6.133.577-12.286-.014-18.455-.259a49.288,49.288,0,0,0-8.784-.885c-6.311-.073-12.486-.915-18.807-.875-10,.064-19.955-.522-29.956-.742a4.476,4.476,0,0,0,.419-1.707c.578-11.268-.478-22.365-.885-33.522-.411-11.218,1.237-23.324-1.266-34.4a51.409,51.409,0,0,0,10.892.9c7.362.03,14.725.012,22.087,0,9.28-.015,18.773.885,27.918-.5.147.012.3.02.443.036,7.261.771,14.279,1.17,21.644,1.27,6.894.093,13.651-.571,20.53-.563,3.226,0,6.576.093,9.9.02,5.827.072,11.709-.275,17.506-.266,7.362.012,14.725.03,22.087,0a51.632,51.632,0,0,0,10.892-.9C376.406,209.89,378.052,222,377.643,233.214ZM162.417,117.463a32.681,32.681,0,0,1,1.168-7.533c1.924-4.1,3.539-8.4,5.415-12.5.974-1.66,2-3.257,3.058-4.766,2.5-3.581,4.61-7.23,7.375-10.643.763-.943,1.683-2.393,2.734-3.668,3.082-2.239,6.326-2.492,9.119,2.049,4.066,6.611,8.247,12.84,10.385,20.423,1.138,4.037,2.6,8.392,3.393,12.492a18.407,18.407,0,0,1,.014,7.909c-.776,2.99-.8,2.029-3.5,2.484-8.823,1.487-17.294.092-26.056-.142-3.1-.082-9.061,1.7-11.891.487-.246-.106-.187.261-.167.347-.02-.075-.11-.415-.42-1.335A16.139,16.139,0,0,1,162.417,117.463Zm-5.363,19.124a3.828,3.828,0,0,1-1.422-.544,1.686,1.686,0,0,1-.74-2.05,2.242,2.242,0,0,1,.767-.762c3.7-2.555,6.916-1.717,11.073-1.793,3.359-.061,6.781-.85,10.139-.519,9.243.914,19.851,1.985,29.025-.11a6.686,6.686,0,0,0,.741-.245c1.276.745,1.956,1.2,1.854,3.278-.041.846.329,1.046.568,1.076a9.837,9.837,0,0,0-1.684.585,8.8,8.8,0,0,1-2.6.066c-2.9.093-5.806-.3-8.7-.245-4.133.074-8.143,1.067-12.288,1.1-7.451.056-14.9-.032-22.355.027A23.906,23.906,0,0,1,157.054,136.588Zm6.407,39.021c-1.024-11.053,1.423-22.657-1.561-33.5,5.765,0,11.534-.01,17.3.049,7.579.078,14.979-1.039,22.537-.8.94.03,1.97.089,3.03.118-.928,4.571-.094,9.463.4,14.105.867,8.179.036,16.425.553,24.64-1.51-.143-3-.684-4.52-.821-5.315-.48-10.875.024-16.228-.015a62.422,62.422,0,0,0-7.765.667,62.933,62.933,0,0,0-13.151-.379C164.481,179.1,163.517,176.215,163.461,175.609Zm-9.845,17.345c.151-.387,1.092-2.929,1.117-3.043a14.863,14.863,0,0,0,.239-3.2q2.53-.31,5.076-.531c2.149,1.043,5.262.98,7.507,1.245a47.173,47.173,0,0,0,10.725.02,141.778,141.778,0,0,1,26.056-.14,30.954,30.954,0,0,0,5.664-.14c.319-.043.638-.085.958-.129.972-.006,1.688-.031,2.206-.072.612,3.539-2.2,5.741-5.18,6.054-6.811.716-14.689.1-21.449-.039-7.963-.168-16.052.753-24.085-.312C161.769,192.577,153.869,192.432,153.616,192.954Zm54.643,40.259c.1,4.762.878,9.3.837,14.113-.056,6.455-.286,12.962.044,19.409a4.449,4.449,0,0,0,.383,1.62h-.184a81.943,81.943,0,0,1-8.859-.66c.07-6.533.041-13.084.041-19.614,0-5.873-1.009-11.57-1.022-17.459-.023-9.978,1.764-21.937-1.032-31.658,2.371-.039,4.744-.024,7.119.108,1.358.075,2.715.139,4.017.11C207.215,209.906,208.041,222.507,208.259,233.214ZM178.8,247.878c-.166-7.345-.579-14.7-.825-22.042-.218-6.533,1.085-12.822.942-19.261a54.519,54.519,0,0,0-.154-7c.507.008,1.017.034,1.523.031,4.848-.032,9.705-.356,14.573-.538-.6,10.767.136,21.935.067,32.748-.035,5.495.875,10.8.886,16.269.015,6.4-.284,12.814-.262,19.224-.413-.017-.825-.038-1.241-.043-5.042-.063-9.965-.068-14.961-.253a1.9,1.9,0,0,0-.126-.456C177.281,261.281,178.922,253.463,178.8,247.878Zm-5.4-13.387c.255,6.712.767,13.374.792,20.1.016,4.02-.728,8.361.5,12.217q-5.844-.311-11.733-.487a23.773,23.773,0,0,0,.645-9.335c-.646-6.886-2.065-13.663-1.189-20.592.783-6.172-.485-12.457-.543-18.678-.056-5.979.812-12.979-1.506-18.681,1.619-.066,3.233-.131,4.786-.1,3.181.068,6.384.322,9.581.5.659,4.058-.988,10.468-1.4,13.631C172.405,220.036,173.134,227.48,173.4,234.491ZM33.83,277.218c.841-3.972.73-3.966,4.769-4.074,5.831-.157,11.89-.35,17.7-.908,5.184-.5,10.277-.348,15.483-.4,4.817-.043,9.322.936,14.135.93,10.331-.014,20.745-.465,31,.726,11.32,1.314,23.059-.065,34.442.4,11.2.456,22.5,1.453,33.7,1.567,9.773.1,19.345.806,29.135.81,11.755.006,23.4.679,35.145.841,8.32.115,16.769,1.116,25.133.615,6.412.35,12.813.962,19.217.4,8.656-.754,17.417-.372,26.118-.385,8.24.448,16.559-.522,24.755-.636,11.749-.162,23.39-.835,35.145-.841,9.79,0,19.363-.71,29.135-.81,11.205-.115,22.5-1.112,33.7-1.567,11.384-.463,23.123.915,34.442-.4,10.26-1.19,20.672-.74,31-.726,4.812.007,9.317-.973,14.135-.93,5.2.048,10.3-.1,15.483.4,5.81.557,11.869.752,17.7.908,4.039.108,3.928.1,4.769,4.074a39.883,39.883,0,0,1,.561,5.173,158.361,158.361,0,0,0-28.676.7c-11.184,1.32-22.676.684-33.958.659-11.087-.024-22.2.278-33.238-.67-5.048-.435-9.924.544-14.973.6-6.025.065-12.065-.176-18.087-.017-10.871.289-21.652.8-32.55.795q-18.473,0-36.946,0c-6.02.006-12.117.339-18.126.019-.4-.022-.8-.048-1.195-.072l-.358-.022a48.408,48.408,0,0,0-9.335-.039c-4.4.152-8.757.44-12.778.44-11.74,0-23.587-.4-35.318.124-6.462.29-12.956.806-19.441.92a2.346,2.346,0,0,0-.918-.581c-5.112-1.691-9.686-1.049-14.927-.769-1.094.058-2.192.075-3.291.1a33.507,33.507,0,0,0-8.38-.031c-2.156-.041-4.308-.082-6.453-.085q-18.473-.014-36.946,0c-10.9,0-21.679-.507-32.55-.795-6.023-.159-12.063.082-18.087.017-5.048-.055-9.924-1.032-14.973-.6-11.035.949-22.151.645-33.238.67-11.283.026-22.774.66-33.958-.659a158.363,158.363,0,0,0-28.676-.7A39.712,39.712,0,0,1,33.83,277.218ZM14.464,296.441c-2.654.058-3.459-.354-3.3-3.563.117-2.487-1.015-1.616,1.6-2.84,6.212.778,12.394-.074,18.756-.572,10.386-.812,21.788.057,32.076,1.349,10.086,1.267,20.878.331,31.043.338,11.506.008,23.052.375,34.506-.579,5.032-.419,9.934.583,14.973.638,5.6.064,11.21-.033,16.814.031,11.274.129,22.519.8,33.824.8q18.473,0,36.946,0c6.9,0,14.1.386,21.128-.183,1.278.164,2.558.322,3.836.464,10.284,1.14,20.762-.329,31.047-.427,10.9-.1,21.813.057,32.717.058,7.747,0,16.835,1.076,25.013.147,5.626.184,11.3-.058,16.778-.06q18.473-.012,36.946,0c11.307,0,22.55-.674,33.824-.8,5.6-.064,11.211.031,16.814-.031,5.038-.057,9.941-1.058,14.973-.638,11.454.952,23,.587,34.506.579,10.165-.007,20.958.93,31.043-.338,10.288-1.292,21.688-2.162,32.076-1.349,6.362.5,12.545,1.35,18.756.572,2.612,1.225,1.481.354,1.6,2.84.152,3.211-.651,3.624-3.3,3.563-14.808-.328-29.494.488-44.265.722-8.119.129-15.9.846-24.053.344-7.928-.488-15.65.6-23.554-.066-25.239-2.133-50.433.093-75.658.16-11.088.03-22.016,1.448-33.059,1.629-13.833.228-27.653.973-41.485,1.218-5.671.1-10.987.522-16.7.408A55.649,55.649,0,0,0,307,302.017c-4.694.266-9.4.474-14.112.556-1.346.023-2.684,0-4.022-.032a51.865,51.865,0,0,0-15.629-1.684c-5.712.114-11.028-.307-16.7-.408-13.833-.246-27.653-.991-41.485-1.218-11.044-.182-21.971-1.6-33.059-1.629-25.225-.067-50.421-2.294-75.658-.16-7.9.668-15.626-.421-23.554.066-8.157.5-15.936-.216-24.053-.345C43.958,296.93,29.274,296.113,14.464,296.441Zm556.195,12.4c.086,3.734-.766,7.445-.887,11.183-.116,3.51.313,7.231-.064,10.714-.08.726.145.757,0,1.451-.092.447-.759,1.208-.933,1.743-.049.147-.067.283-.1.423-1.42-.006-18.546-.3-18.528-.531a1.817,1.817,0,0,0,0-.347c-.637-5.447-.651-10.958-1.5-16.393-.333-2.137-3.976-2.133-4.31,0-.8,5.133-1.869,11.606-.271,16.708-2.883.1-5.749.346-8.811.589a43.235,43.235,0,0,1-6.866-.1c-.008-4.629.391-9.428-.531-14-.416-2.065-1.752-4.465-3.826-2.918-1.876,1.4-1.361,5.238-1.348,7.2.01,1.61-.686,2.881-.952,4.444a23.046,23.046,0,0,0-.223,4.676c-.89-.063-1.777-.113-2.666-.129-3.054-.058-6.1.026-9.155.164a7.761,7.761,0,0,0,.1-2.718c-.356-2.464-.681-13.415-4.2-13.361-2.728.042-2.778,4.767-2.718,6.594.08,2.332.906,8.384-1.247,9.914-2.081,1.48-9.7.422-12.286.407,2.125.009.684-8.053.536-9.1-.248-1.762-.919-11.784-4.262-8.581-2.207,2.113-1.974,5.089-2.011,7.914-.041,3.091-1.064,6.466-.72,9.535-3.343-.2-6.709-.419-10.079-.538.292-2.475-.2-5.047-.184-7.5a15.717,15.717,0,0,0-1.4-7.66c-1.134-2.231-3.759-3.212-4.678-.254-.479,1.551-.385,4.933-.429,6.651-.075,2.894.164,5.82-.151,8.7a73.93,73.93,0,0,0-8.489.63c.515-3.911.056-12.351-2.471-15.618-3.579-4.626-5.612,4.341-5.071,7.032a27.756,27.756,0,0,1,.4,9.136c-2.6.049-5.194.043-7.8-.116-.481-3.213-2.024-6.8-2.37-9.23a115.534,115.534,0,0,0-2.565-14.2,45.385,45.385,0,0,0-3.488-7.832c3.335.157,6.633.469,10,.567a52.063,52.063,0,0,0,7.7-.547,117.32,117.32,0,0,0,14.494,1.278c5.163.258,10.325-.052,15.489.009,4.562.056,9.128.956,13.684.744,4.909-.228,9.4-.763,14.357-.472a124.117,124.117,0,0,0,15.581.456c8.981-.6,17.977-1.068,26.965-1.487,6.025-.281,12.227.2,18.372.311A20.193,20.193,0,0,0,570.659,308.84ZM375.885,440.834c-.924-12.153.027-24.916-.023-37.192-.024-6.006.016-12.013.028-18.019.009-4.858-1.1-11.429.271-16.326.378-.01.752-.015,1.154-.058a67.629,67.629,0,0,1,9.84-.224c-.683,8.76-.06,17.482.261,26.254.371,10.1.042,20.249,0,30.352-.043,10.614-.067,21.225-.135,31.839-.051,8.1-2.137,17.756-.477,25.791-.454-.022-.909-.034-1.358-.06-1.443-.085-5.644-.48-6.736-1.075-4.3-2.345-3.075-8.57-2.927-12.331.2-4.917-.372-9.405-.676-14.218C374.8,450.677,376.265,445.809,375.885,440.834Zm2.579,48.4c.014,0,.78-.028,1.759-.085,6.678,1.412,14.34.675,20.777.68,7.3.006,16.491,1.284,24.1-.793,2.83.1,5.766-.165,8.372.934,4.933,2.082,2.378,5.579,2.388,9.338a80.018,80.018,0,0,0-9.57.527c-6.309.447-12.317,1.361-18.687,1.327-6.867-.035-13.756-.249-20.622-.139a55.747,55.747,0,0,1-9.929-.5c-.152-.023-5.33-.455-5.142-.246a1.809,1.809,0,0,0-1.23-.609c.274-1.536.246-3.081.557-4.993C371.863,490.809,374.838,489.4,378.464,489.234Zm36.486-95.488c1.363,10.5,1.331,21.2,1.242,31.777-.092,10.986,1.042,22.3-.064,33.245-.844,8.356-1.288,16.647-.14,24.938-5.373.314-11.033-.266-16.341-.263-2.982,0-6,0-8.99-.064,1.967-8.026,1.132-17.8,1.11-25.923-.028-10.614-.09-21.225-.135-31.839-.077-18.7.394-37.807-1.311-56.461,2.472.131,4.959.281,7.5.345,5.666.14,11.2-.423,16.8-.7-.03,3.407.4,6.906.225,10.327A80.514,80.514,0,0,0,414.95,393.746Zm12.066,40.236c.074,12.978-.046,25.957-.055,38.933,0,1.6.957,7.152.041,8.288-.8.994-4.323,1.677-6.636,2.031.038-2.928-.612-5.648-.815-8.84-.334-5.283.341-10.4.777-15.627.949-11.412-.148-23.083-.067-34.525a244.362,244.362,0,0,0-1.242-29.446c-.988-8.653.254-17.607-1.437-26.1.812-.02,1.626-.036,2.444-.035,2.22,0,4.979.289,7.805.429-1.094,10.052-.606,20.426-1.4,30.447C425.516,411.091,426.951,422.5,427.016,433.982Zm-4.4-71.574c-6.233-.009-12.111.578-18.275.906-5.851.312-11.6-.8-17.409-.959-5.9-.159-12.373,1.644-16.251-3.589a160.879,160.879,0,0,1-9.189-13.832c-.827-1.4-1.553-3.009-2.344-4.587,15.491.487,30.955.674,46.46.479,10.817-.137,21.719.749,32.6.68a2.327,2.327,0,0,0,1.082-.014c2.586-.032,5.17-.1,7.751-.28-.273.546-.529,1.1-.771,1.619-2.275,4.9-4.3,9.831-6.992,14.581-1.857,3.271-2.834,4.7-6.685,5.074C429.356,362.8,425.876,362.413,422.62,362.408ZM173.651,424.241c.082,11.442-1.016,23.112-.067,34.525.436,5.229,1.112,10.343.777,15.627-.2,3.195-.854,5.912-.815,8.84-2.313-.354-5.834-1.036-6.636-2.031-.916-1.134.042-6.691.041-8.288-.008-12.978-.129-25.958-.055-38.933.065-11.486,1.5-22.892.586-34.447-.793-10.022-.306-20.4-1.4-30.447,2.827-.14,5.585-.425,7.805-.429.817,0,1.631.014,2.444.035-1.691,8.494-.448,17.449-1.436,26.1A244.1,244.1,0,0,0,173.651,424.241Zm-4.836,64.794c7.607,2.079,16.8.8,24.1.793,6.437,0,14.1.732,20.776-.68.978.057,1.745.085,1.759.085,3.627.167,6.6,1.575,7.231,5.439.313,1.912.283,3.456.557,4.993a1.8,1.8,0,0,0-1.23.609c.188-.211-4.99.222-5.142.246a55.864,55.864,0,0,1-9.929.5c-6.866-.11-13.755.1-20.622.139-6.371.034-12.378-.879-18.687-1.327a80.267,80.267,0,0,0-9.57-.527c.01-3.758-2.546-7.257,2.388-9.338C163.048,488.871,165.986,489.135,168.815,489.035Zm10.145-95.29a79.966,79.966,0,0,0,.1-14.615c-.172-3.421.255-6.92.225-10.327,5.6.275,11.137.84,16.8.7,2.537-.064,5.024-.213,7.5-.344-1.7,18.654-1.233,37.761-1.311,56.461-.043,10.614-.107,21.225-.135,31.839-.022,8.127-.857,17.9,1.11,25.923-2.994.065-6.008.066-8.99.064-5.309,0-10.966.577-16.341.263,1.147-8.293.7-16.582-.14-24.938-1.105-10.941.028-22.259-.064-33.245C177.63,414.943,177.6,404.249,178.96,393.746Zm27.794-24.731a67.8,67.8,0,0,1,9.84.224c.4.043.776.049,1.154.058,1.373,4.9.262,11.466.271,16.325.012,6.006.051,12.013.028,18.019-.049,12.276.9,25.039-.023,37.192-.379,4.975,1.083,9.845.776,14.729-.3,4.812-.87,9.3-.676,14.218.148,3.761,1.372,9.986-2.927,12.331-1.093.6-5.294.991-6.736,1.075-.449.027-.906.039-1.359.06,1.659-8.035-.425-17.692-.478-25.791-.067-10.614-.09-21.225-.135-31.839-.041-10.1-.37-20.255,0-30.352C206.816,386.5,207.438,377.775,206.754,369.015Zm.223-6.661c-5.814.157-11.558,1.271-17.409.959-6.164-.328-12.043-.915-18.275-.906-3.256,0-6.736.393-9.973.08-3.851-.372-4.828-1.8-6.685-5.074-2.7-4.751-4.716-9.68-6.992-14.581-.245-.525-.5-1.073-.771-1.619,2.581.175,5.165.247,7.751.28a2.328,2.328,0,0,0,1.082.014c10.881.068,21.784-.817,32.6-.68q23.26.292,46.46-.479c-.791,1.578-1.517,3.191-2.344,4.587a160.711,160.711,0,0,1-9.19,13.832C219.35,364,212.881,362.2,206.977,362.355ZM138.919,318.73c-2.526,3.267-2.986,11.706-2.471,15.618a73.462,73.462,0,0,0-8.489-.63c-.314-2.878-.077-5.8-.151-8.7-.044-1.718.05-5.1-.429-6.651-.919-2.959-3.544-1.977-4.678.254a15.714,15.714,0,0,0-1.4,7.66c.014,2.453-.478,5.025-.184,7.5-3.37.122-6.735.339-10.079.538.342-3.07-.68-6.444-.72-9.535-.038-2.826.2-5.8-2.013-7.914-3.344-3.2-4.015,6.818-4.262,8.581-.147,1.049-1.589,9.11.536,9.1-2.587.015-10.205,1.072-12.286-.407-2.152-1.529-1.325-7.583-1.247-9.914.063-1.827.012-6.552-2.718-6.594-3.518-.055-3.844,10.9-4.2,13.361a7.789,7.789,0,0,0,.1,2.718c-3.051-.138-6.1-.222-9.155-.164-.886.017-1.775.067-2.666.129a23.05,23.05,0,0,0-.223-4.676c-.267-1.564-.964-2.834-.952-4.444.012-1.962.528-5.8-1.348-7.2-2.074-1.546-3.409.854-3.826,2.918-.923,4.57-.523,9.369-.531,14a43.38,43.38,0,0,1-6.866.1c-3.063-.245-5.93-.485-8.811-.589,1.6-5.1.53-11.575-.271-16.708-.333-2.133-3.976-2.137-4.31,0-.85,5.434-.865,10.944-1.5,16.393a1.731,1.731,0,0,0,0,.347c.017.231-17.11.528-18.529.531-.034-.142-.052-.276-.1-.423-.175-.536-.841-1.3-.933-1.743-.144-.694.079-.724,0-1.451-.377-3.481.052-7.2-.064-10.714-.123-3.737-.974-7.449-.887-11.183a20.7,20.7,0,0,0-.089-4.461c6.144-.112,12.346-.592,18.372-.311,8.987.419,17.984.886,26.965,1.487,5.2.348,10.391-.152,15.581-.456,4.959-.291,9.447.245,14.357.472,4.558.212,9.122-.688,13.684-.744,5.164-.063,10.326.248,15.49-.009a117.325,117.325,0,0,0,14.494-1.278,51.894,51.894,0,0,0,7.7.548c3.371-.1,6.669-.412,10-.567a45.3,45.3,0,0,0-3.488,7.832,115.307,115.307,0,0,0-2.565,14.2c-.346,2.435-1.888,6.018-2.37,9.23-2.6.16-5.2.166-7.8.116a27.726,27.726,0,0,1,.4-9.136C144.531,323.071,142.5,314.1,138.919,318.73Zm22.448-.992c.694-3.589,1.3-7.2,2.225-10.726.345-1.321.785-2.426,1.051-3.56.241.006.48,0,.724.014,5.164.2,10.194.934,15.4.957,11.508.051,22.827,1.5,34.29,1.712h.022c.451,2.075.966,5.221,1.141,5.831,1.421,4.948,3.067,9.774,4.741,14.64.548,1.593,1.089,4.141,2,6.376-11.443-.034-22.958-.247-34.35.658-5.894.469-11.759,1.065-17.676,1.154-4.189.064-8.441-.474-12.624-.464a41.507,41.507,0,0,0,1.335-4.939C160.261,325.5,160.618,321.615,161.367,317.739Zm69.594,15.283a3.04,3.04,0,0,0-.537-.7c-1.63-1.575-1.968-4.092-2.7-6.161-1.15-3.258-2.394-6.483-3.53-9.75-1.17-3.365-2.131-6.833-3.525-10.071-.015-.032,5.3.762,6.02.868,3.691.539,7.177.34,10.722,1.438-.553,3.3-1.361,6.384-.358,9.716,1.064,3.539,3.42,6.021,7.376,5.6,3.527-.377,7.137-.783,9.576-3.6,2.711-3.132,3.16-7.171,3.034-11.145,2.167-.122,4.319-.254,6.474-.365a13.061,13.061,0,0,0-.766,5.709c.222,3.828,2.865,7.83,6.6,9.064,3.851,1.272,7.5-1.217,9.468-4.425,2-3.266,1.486-7.009,1.295-10.651,2.768.179,5.534.386,8.312.536-.724,3.237-1.025,6.859,1.065,9.548,1.875,2.41,5.075,3.777,8.022,4.312,7.352,1.332,10.99-7.693,10.1-13.966q2.556-.118,5.122-.256c.361-.019.712-.043,1.069-.064-.2,3.609-.68,7.31,1.3,10.544,1.964,3.207,5.615,5.7,9.468,4.425,3.737-1.234,6.381-5.236,6.6-9.064a13.08,13.08,0,0,0-.766-5.709c2.155.112,4.3.245,6.474.365-.125,3.974.324,8.013,3.034,11.145,2.438,2.818,6.047,3.224,9.576,3.6,3.957.422,6.313-2.058,7.376-5.6,1-3.33.2-6.42-.358-9.716,3.545-1.1,7.031-.9,10.722-1.438.719-.106,6.034-.9,6.02-.868-1.394,3.237-2.355,6.706-3.525,10.071-1.137,3.269-2.38,6.492-3.53,9.75-.73,2.066-1.068,4.585-2.7,6.161a2.955,2.955,0,0,0-.537.7c-3.873.077-7.67.287-11.582.621h-.16c-2.336.023-4.676-.006-7.014-.049a52.362,52.362,0,0,0-8.048-.2c-.058.006-.1.028-.158.036q-2.464-.038-4.921-.028a24.936,24.936,0,0,0-2.981-.394c-4.454-.218-8.924-.188-13.383-.181-7.48.012-14.845,1.094-22.242.844-6.593-.223-13.177-.022-19.764.15a139.068,139.068,0,0,0-14.773-.391c-.056-.008-.1-.033-.158-.036a52.216,52.216,0,0,0-8.048.2c-2.339.044-4.678.072-7.014.049h-.16C238.629,333.308,234.834,333.1,230.961,333.021Zm10.319-23.913a75.057,75.057,0,0,0,10.845.335c-.038,2.42-.009,4.926-1.463,6.981-1.431,2.022-3.637,2-5.9,2.3-2.051.273-2.228.1-2.972-1.67a8.332,8.332,0,0,1-.63-4.568A16.884,16.884,0,0,0,241.28,309.108Zm24.942-.38c1.719-.07,3.445-.126,5.2-.135,1.3-.007,2.623,0,3.947.008a33.648,33.648,0,0,1,.1,5.613c-.249,2.181-2.319,5.625-4.9,4.652-2.188-.825-3.287-3.415-3.674-5.521C266.692,312.233,265.991,310.09,266.222,308.728Zm26.208.509c.152,0,.306.015.461.017,3.421.064,6.808.01,10.192-.1-.363,4.1-.1,10.089-5.563,8.389-1.465-.456-3.61-1.1-4.378-2.594-.572-1.116-.276-2.816-.431-4.033C292.636,310.354,292.538,309.794,292.43,309.237Zm26.118-.636c1.322-.006,2.644-.015,3.947-.008,1.75.008,3.475.065,5.2.135.232,1.362-.471,3.505-.674,4.617-.385,2.107-1.486,4.7-3.674,5.521-2.58.973-4.649-2.471-4.9-4.652A33.642,33.642,0,0,1,318.548,308.6Zm34.2,3.886a8.323,8.323,0,0,1-.63,4.568c-.744,1.775-.92,1.943-2.972,1.67-2.262-.3-4.467-.281-5.9-2.3-1.453-2.054-1.424-4.561-1.463-6.981a75.061,75.061,0,0,0,10.845-.335A16.628,16.628,0,0,0,352.751,312.487Zm24.943-.521c.175-.61.691-3.754,1.131-5.831h.031c11.463-.216,22.783-1.661,34.29-1.712,5.2-.023,10.233-.759,15.4-.957.242-.009.481-.008.724-.014.266,1.134.708,2.24,1.051,3.56.922,3.531,1.533,7.137,2.225,10.726.751,3.877,1.105,7.766,1.719,11.651a41.506,41.506,0,0,0,1.335,4.939c-4.185-.009-8.435.528-12.624.464-5.917-.089-11.781-.686-17.676-1.154-11.392-.9-22.908-.691-34.35-.658.916-2.234,1.456-4.784,2-6.376C374.627,321.74,376.273,316.915,377.694,311.966ZM13.995,349.6c-4.054-.406-5.863,1.725-5.962-2.773-.02-.949.39-5.445-.306-4.617a3.571,3.571,0,0,1,1.655-.948c10.2,2.308,21.944,1.552,32.026.784,5.968-.455,11.353.146,17.257.5,5.483.327,10.94-.731,16.41-.84,5.211-.1,10.178.861,15.374.81,6.339-.064,12.774.358,19.1.024,5.7-.3,11.41-.414,17.108-.767,3.481-.215,11.427-2.514,14.5-.284A6.552,6.552,0,0,1,143,344.319c.565,1.336.994,2.727,1.424,4.111q.176.566.354,1.129c.116.363.314.725.4,1.1a5.47,5.47,0,0,0,.355,1.007,26.379,26.379,0,0,0-5.361-.065,3.191,3.191,0,0,0-.322-.118,9.262,9.262,0,0,0-.965-.2c-2.173.1-4.355.114-6.371.18-3.843.129-7.73-.093-11.575-.108-8.658-.035-17.325-.32-25.976-.329-7.571-.008-15.02,1.182-22.657,1.039-8.593-.162-17.162-.728-25.754-.843-7.351-.1-14.613-1.259-21.984-1A75,75,0,0,1,13.995,349.6ZM117.863,522.17q-7.953.012-15.9.027c-5.811.012-11.4-1.093-17.227-.917-1.209.036-2.413.024-3.616-.006.078-8.249-3.9-16.2-3.183-24.438.42-4.819,1.24-6.91,5.473-9.569.828-.521,2.072-.8,2.756-1.588,1.793-2.072.727-4.337.433-6.758-.944-7.783,3-20.438,10.487-23.73,16.076-7.065,15.063,18.92,12.4,27.39a2.693,2.693,0,0,0,1.214,2.986c3.7,2.319,6.21,3.983,7.261,8.439a60.1,60.1,0,0,1,1.612,9.189C120,509.568,118.047,515.818,117.863,522.17Zm15.745-37.363c-.267,11.551-2.577,22.853-2.531,34.494a3.133,3.133,0,0,0,.393,1.568c-.08.451-.136.906-.174,1.365-2.557-.022-5.117-.066-7.676-.07.117-8.373,1.919-16.32.324-24.7-1.463-7.693-2.858-11.236-8.75-15.275.9-2.551,1.865-4.933,1.614-7.764-.289-3.254-.37-6.988-.931-10.227-.941-5.428-3.195-11.382-8.639-13.558-10.8-4.315-19.044,4.494-22.729,13.437A40.88,40.88,0,0,0,81.3,475.907c-.193,2.067.842,5.426.182,6.512-.964,1.583-4.735,2.743-6.135,4.559-3.337,4.327-3.275,11.147-2.606,16.306a109.842,109.842,0,0,0,3.826,17.786c-3.38-.206-6.757-.473-10.172-.49-1.116-.006-2.232,0-3.347.017.559-6.427.078-13.161-.212-19.446-.427-9.277-.813-18.5-1.966-27.758-1.123-9.028-3.241-19.467-1.71-28.523A111.373,111.373,0,0,1,68.851,414.5c3.942-7.873,9.368-16.864,15.524-23.131,3.148-3.2,8.1-9.774,12.4-11.226,4.987-1.683,11.122,4.583,14.141,7.52,8.325,8.1,13.532,18.935,17.352,29.749,3.561,10.08,6.81,20.542,7.106,31.319C135.7,460.69,133.886,472.85,133.609,484.807Zm13.264,20.181a25.287,25.287,0,0,0-2.138,8.443,56.438,56.438,0,0,0-.2,8.121c-7.8,2.364-6.836-7.591-6.635-12.281.353-8.173,1.653-16.279,1.825-24.464.126-5.976.7-11.854.813-17.8.116-6.449,1.254-13.029.907-19.468-.623-11.573-4.02-22.838-8.057-33.621-4-10.693-9.283-21.392-17.518-29.489-4.965-4.878-13.588-13.507-21.042-9.521-8.576,4.584-15.93,13.6-21.109,21.552-5.856,9-11.085,17.427-14.8,27.563-1.807,4.932-2.689,10.5-4.1,15.605a45.987,45.987,0,0,0-1.255,16.8c.512,5.193.879,10.306,1.695,15.472,1.044,6.629.6,13.448,1.726,20.01,1.651,9.618-.143,19.3,1.5,28.766a106.386,106.386,0,0,1-14.173-.449c-5.676-.667-11.464-.386-17.176-.813-1.5-.113-2.983,0-4.481-.039.741-4.693-.133-10.349-.138-14.566a189.084,189.084,0,0,1,.744-19.952c1.449-13.974.959-28.408.918-42.5-.019-6.245-1.124-12.286-1.158-18.57-.041-8.1-.068-16.192-.168-24.285-.094-7.8-.387-15.6-.535-23.4-.116-6.183.68-12,.239-18.043,1.016.028,2.04.048,3.1.017,19.331-.528,38.787,3.131,58.184,1.906,9.817-.619,19.416-.914,29.29-.955,5.749-.023,11.766.486,17.6.033.329-.01.66-.016.989-.041,5.354-.394,10.678-.821,16.092-.965a3.471,3.471,0,0,0,.44-.048c1.478,3.543,3.269,7.353,6.133,9.229a14.26,14.26,0,0,0,7.009,1.879c-2.269,19.666,1.118,39.733-.609,59.434-1.008,11.5-.205,23.39-.212,34.927,0,5.816-.541,11.935-.073,17.73a8.7,8.7,0,0,0,.753,3.1,22.667,22.667,0,0,0-3.429.817c-6.2,2.026-5.186,6.419-5.784,11.71C151.628,500.527,148.536,501.766,146.873,504.988ZM225.9,516.363c-.522,3.065-1.775,5.784-1.537,8.507a4.019,4.019,0,0,0-.325,2.74c.356,1.728-22.594.76-24.47.5-8.421-1.175-17.165-.181-25.663-.125-3.749.024-7.5.049-11.249.1-2.5.038-5.95.782-8.369-.044-4.791-1.636-3.931-12.292-3.134-16.3.782-3.93,2.29-4.916,4.751-7.708.47-.53.841-.912,1.147-1.32a145.2,145.2,0,0,0,29.265,2.852c12.426.065,24.769.7,37.058-.681a3.1,3.1,0,0,0,1.791-.848,8.4,8.4,0,0,1,1.886,4.445C227.25,510.979,226.316,513.909,225.9,516.363Zm139.439-17.855c-.3.618-2.893,2.275-3.633,3.874-1.246,2.692-.956,5.883-.641,8.736.369,3.315.529,7.649,1.613,11.347-2.473-.152-4.954-.238-7.449-.594-2.01-.287-3.6-.694-5.139-.815.065-10.512.573-20.977.467-31.5-.115-11.205-1.409-23.025.03-34.144.571-4.4.24-8.856.184-13.289-.044-3.642,1.118-8.519.266-11.952-.7-2.835-2.347-3.66-4.909-4.8-1.754-.778-5.06-3.089-7.365-3.222a22.34,22.34,0,0,0,2.094-3.437,34.6,34.6,0,0,0,4.248-10.74,33.724,33.724,0,0,0-3.588-21.854,50.618,50.618,0,0,0-10.328-13.175c-1.98-4.349-6.453-8.515-9.508-11.2-4.566-4.01-11.94-9.069-17.991-10.154-6.716-1.205-14.251,2.038-19.779,5.595a24.853,24.853,0,0,0-2.777,2.1,19.689,19.689,0,0,0-2.452,1.576c-3.171,2.415-6.478,4.552-9.706,6.9-6.52,4.737-12.807,11.136-16.584,18.364a33.716,33.716,0,0,0-3.588,21.854,34.628,34.628,0,0,0,4.248,10.74,22.25,22.25,0,0,0,2.094,3.437c-2.3.135-5.611,2.444-7.365,3.222-2.561,1.138-4.206,1.963-4.909,4.8-.853,3.434.311,8.31.266,11.952-.056,4.433-.386,8.887.184,13.289,1.438,11.117.144,22.937.03,34.144-.107,10.527.4,20.993.467,31.5-1.543.121-3.126.528-5.139.815-2.5.356-4.975.441-7.449.594,1.086-3.7,1.247-8.03,1.614-11.347.314-2.851.6-6.045-.641-8.736-.741-1.6-3.335-3.256-3.633-3.874-1.883-3.888,1.223-9.309-3.463-13.153A8.553,8.553,0,0,0,222.713,484c2.786-4.522,1.835-11.3,1.609-16.49-.206-4.736.964-9.335.664-14-.331-5.161-.819-9.636-.213-14.792.636-5.423-.763-11.271-.774-16.8-.014-6.96.144-13.921.175-20.881.027-6.376.024-12.752.036-19.128.009-4.462.81-9.888-.462-14.319a16.247,16.247,0,0,0,3.257-3.171,139.413,139.413,0,0,0,10.657-15.486c1.545-2.551,4.084-5.657,4.972-8.815l2.262-.055c1.356.027,2.7,0,4.014-.1,2.142-.052,4.293-.116,6.439-.195a14.953,14.953,0,0,0,3.79.459c2.325-.05,4.909-.316,7.42-.255,10.006.242,20.1.792,30.107.679,3.411-.039,6.632-.873,10.007-.94,4.134-.08,8.278.046,12.412.019,3.8-.024,9.884.832,14.615-.174,3.761.2,7.533.314,11.288.406,1.315.1,2.657.125,4.013.1.754.017,1.51.035,2.262.055.885,3.157,3.427,6.263,4.972,8.815a139.584,139.584,0,0,0,10.657,15.486,16.342,16.342,0,0,0,3.257,3.171c-1.271,4.43-.471,9.856-.462,14.319.014,6.376.01,12.753.036,19.128.03,6.96.189,13.921.175,20.881-.01,5.531-1.409,11.382-.774,16.8.6,5.156.117,9.631-.213,14.792-.3,4.658.872,9.259.664,14-.226,5.193-1.179,11.969,1.609,16.49a8.536,8.536,0,0,0-2.393,1.355C364.113,489.2,367.218,494.621,365.337,498.508Zm74.289,29.535c-2.42.826-5.866.082-8.369.044-3.749-.056-7.5-.08-11.249-.1-8.5-.056-17.241-1.05-25.663.125-1.876.262-24.826,1.231-24.47-.5a4.026,4.026,0,0,0-.325-2.74c.239-2.724-1.015-5.443-1.537-8.507-.419-2.456-1.353-5.386-1.15-7.875a8.408,8.408,0,0,1,1.886-4.445,3.107,3.107,0,0,0,1.791.848c12.288,1.382,24.632.746,37.058.682a145.261,145.261,0,0,0,29.264-2.852c.306.407.677.788,1.147,1.32,2.46,2.792,3.968,3.778,4.75,7.708C443.557,515.751,444.417,526.407,439.626,528.043Zm73.163-6.767c-1.2.03-2.4.042-3.616.006-5.823-.175-11.415.93-17.227.918q-7.948-.016-15.9-.027c-.183-6.353-2.139-12.6-1.718-18.973a60.372,60.372,0,0,1,1.612-9.189c1.051-4.455,3.562-6.121,7.261-8.439a2.69,2.69,0,0,0,1.215-2.986c-2.66-8.47-3.671-34.456,12.4-27.39,7.491,3.293,11.434,15.946,10.49,23.73-.295,2.421-1.361,4.685.433,6.758.684.79,1.927,1.068,2.755,1.588,4.233,2.657,5.052,4.75,5.473,9.569C516.691,505.075,512.712,513.027,512.789,521.276ZM533.043,473.4c-1.152,9.262-1.539,18.481-1.966,27.758-.29,6.285-.77,13.018-.212,19.446-1.115-.014-2.231-.023-3.347-.017-3.415.016-6.792.284-10.172.49a109.785,109.785,0,0,0,3.826-17.786c.668-5.157.73-11.979-2.608-16.306-1.4-1.815-5.171-2.975-6.135-4.559-.66-1.086.373-4.445.182-6.512a40.824,40.824,0,0,0-3.212-11.832c-3.683-8.945-11.93-17.753-22.729-13.437-5.445,2.176-7.7,8.129-8.639,13.558-.561,3.24-.643,6.974-.931,10.227-.249,2.829.71,5.213,1.614,7.764-5.892,4.039-7.287,7.582-8.75,15.275-1.595,8.385.206,16.331.324,24.7-2.559,0-5.119.048-7.676.07-.038-.461-.094-.916-.174-1.365a3.146,3.146,0,0,0,.393-1.568c.046-11.643-2.264-22.944-2.531-34.494-.278-11.957-2.095-24.117-1.767-36.071.3-10.776,3.545-21.24,7.106-31.319,3.82-10.813,9.028-21.649,17.352-29.749,3.018-2.938,9.155-9.2,14.142-7.52,4.3,1.452,9.248,8.021,12.4,11.226,6.156,6.267,11.582,15.258,15.524,23.131a111.334,111.334,0,0,1,9.694,30.368C536.284,453.93,534.166,464.368,533.043,473.4Zm38.541-97.3c-.147,7.8-.44,15.591-.535,23.4-.1,8.1-.129,16.191-.168,24.285-.033,6.285-1.139,12.325-1.158,18.57-.042,14.094-.534,28.527.918,42.5a189.1,189.1,0,0,1,.744,19.952c0,4.216-.877,9.872-.138,14.566-1.5.039-2.983-.073-4.481.039-5.712.429-11.5.147-17.176.813a106.181,106.181,0,0,1-14.173.449c1.649-9.467-.145-19.147,1.5-28.766,1.126-6.562.682-13.381,1.726-20.01.813-5.164,1.183-10.277,1.695-15.472a45.987,45.987,0,0,0-1.255-16.8c-1.414-5.1-2.3-10.672-4.1-15.605-3.712-10.135-8.941-18.567-14.8-27.566-5.179-7.956-12.532-16.967-21.109-21.552-7.453-3.984-16.077,4.642-21.042,9.521-8.236,8.1-13.516,18.8-17.518,29.489-4.036,10.783-7.434,22.049-8.057,33.621-.347,6.439.791,13.018.907,19.468.109,5.949.687,11.826.813,17.8.172,8.185,1.472,16.291,1.825,24.464.2,4.691,1.16,14.646-6.635,12.281a56.278,56.278,0,0,0-.2-8.121,25.232,25.232,0,0,0-2.138-8.443c-1.662-3.224-4.752-4.461-5.171-8.156-.6-5.291.413-9.683-5.784-11.71a22.67,22.67,0,0,0-3.429-.817,8.756,8.756,0,0,0,.753-3.1c.47-5.8-.068-11.914-.073-17.73-.007-11.537.8-23.429-.212-34.927-1.727-19.7,1.659-39.766-.609-59.434a14.269,14.269,0,0,0,7.009-1.88c2.865-1.876,4.655-5.686,6.133-9.229a3.955,3.955,0,0,0,.44.048c5.414.143,10.738.571,16.092.965.329.024.66.028.989.041,5.83.454,11.847-.056,17.6-.033,9.875.039,19.474.333,29.291.955,19.4,1.224,38.854-2.434,58.184-1.906,1.058.028,2.082.01,3.1-.017C570.906,364.1,571.7,369.915,571.585,376.1Zm14.293-29.274c-.1,4.5-1.908,2.366-5.962,2.773a74.83,74.83,0,0,1-10.574.622c-7.37-.256-14.633.9-21.984,1-8.592.115-17.161.682-25.754.843-7.636.144-15.085-1.047-22.657-1.039-8.651.009-17.318.295-25.976.329-3.443.014-6.884.191-10.328.138a23.1,23.1,0,0,0-2.486-.049,10.094,10.094,0,0,1-1.546.191c-1.68-.082-3.355-.187-5.038-.223q-1.509-.033-3.017-.036c-.726,0-1.436.325-2.141.258a27.623,27.623,0,0,1,1.115-3.357c.286-.915.575-1.832.9-2.733.5-1.371,1.086-3.162,2.323-4.059,3.074-2.231,11.02.068,14.5.284,5.7.353,11.407.464,17.108.767,6.327.336,12.759-.088,19.1-.024,5.2.052,10.163-.912,15.374-.81,5.472.108,10.929,1.166,16.41.84,5.9-.35,11.288-.951,17.257-.5,10.081.768,21.821,1.523,32.026-.784a3.554,3.554,0,0,1,1.655.948C585.487,341.379,585.9,345.875,585.878,346.824Z" transform="translate(-0.003 -42.573)" fill="#fff"/>
      </g>
    </g>
    <g id="Group_102" data-name="Group 102" transform="translate(466.209 390.564)">
      <g id="Group_101" data-name="Group 101">
        <path id="Path_88" data-name="Path 88" d="M461.671,388.1a61.771,61.771,0,0,0-3.62-12.71c-1.453-6.067-4.663-11.522-8.733-16.983a63.4,63.4,0,0,0-9.255-10.02c-2.461-2.112-4.617-5.46-8.09-5.778-6.183-.568-10.593,5.867-13.642,10.179a133.95,133.95,0,0,0-13.377,23c-2.344,5.339-5.486,14.485.036,18.995,2.775,2.265,6.046,1.807,9.358,1.833,4.494.035,8.987.275,13.489.18,9-.191,18.562,2.849,27.537,1.662C461.286,397.673,462.576,393.566,461.671,388.1Zm-11.487,4.848c-4.912-.479-9.975-.7-14.828-1.363-6.922-.945-14.088.5-21.011-.563a16.668,16.668,0,0,0-2.645.109q-4.921-2.573-3.642-6.459c.092-2.246,1.319-5.075,2.284-7.086,1.542-3.2,3.633-5.96,5.1-9.217a62.244,62.244,0,0,1,5.874-10.07c1.854-2.626,4.45-7.672,7.563-8.848,1.959-.741,4.148.1,6.317,1.7,9.453,11.253,18.729,22.225,21.176,37.435C457.213,393.81,454.291,393.346,450.184,392.945Z" transform="translate(-401.914 -342.572)" fill="#fff"/>
      </g>
    </g>
    <g id="Group_104" data-name="Group 104" transform="translate(400.092 147.559)">
      <g id="Group_103" data-name="Group 103" transform="translate(0 0)">
        <path id="Path_89" data-name="Path 89" d="M364.487,144.913c-.551-4.682-2.343-9.9-7.268-11.5-5-1.624-7.934,3.092-9.578,7.036-1.126,2.706-1.32,5.789-1.985,8.63a21.218,21.218,0,0,0-.568,8.082c.175,1.263,1.663,1.733,2.717,1.543a43.486,43.486,0,0,1,13.748-.4C365.9,158.964,364.783,147.413,364.487,144.913Zm-4.125,8.655a28.931,28.931,0,0,0-5.03-.043,48.485,48.485,0,0,0-6.162.374c0-2.821.927-5.707,1.369-8.457.394-2.446,3.191-12,7.259-6.743C360.779,142.55,360.87,148.653,360.362,153.567Z" transform="translate(-344.916 -133.081)" fill="#fff"/>
      </g>
    </g>
    <g id="Group_106" data-name="Group 106" transform="translate(224.983 209.238)">
      <g id="Group_105" data-name="Group 105">
        <path id="Path_90" data-name="Path 90" d="M337.176,193.006c-1.762-4.835-6.962-5.661-11.5-5.32-3.676.278-7.219,1.24-10.933,1.173-4.254-.077-8.558-.92-12.829-1.107-1.786-.079-3.576-.271-5.36-.462a1.562,1.562,0,0,0-1.1-.21c-.14.028-.282.036-.423.052-1.125-.114-2.248-.21-3.365-.263-.864-.168-1.721-.356-2.551-.437a87.963,87.963,0,0,0-8.9-.135c-5.657.017-11.21.94-16.836.916-10.008-.041-21.759-1.531-31.922.445-.507.038-1.014.072-1.521.093-4.271.187-8.576,1.028-12.829,1.107-3.715.067-7.257-.894-10.933-1.173-4.535-.343-9.734.483-11.5,5.32-1.191,3.269-.564,7.573-.5,11,.063,3.228-.295,6.527-.18,9.688.124,3.385.552,7.279.973,10.681a76.659,76.659,0,0,0,1.629,10.3c1.866,6.793,7.774,3.971,12.754,3.44,7.578-.8,15.85-1.713,23.467-1.77,3.088-.023,6.148-.145,9.213-.264,4.27.561,8.906.26,12.479.319,6.309.1,12.618.2,18.927.249,5.575.042,11.58.679,17.077-.541,2.833.11,5.662.216,8.515.238,7.618.057,15.889.966,23.467,1.77,4.98.529,10.886,3.351,12.754-3.44a76.474,76.474,0,0,0,1.629-10.3c.421-3.4.849-7.3.973-10.681.115-3.159-.241-6.46-.18-9.688C337.742,200.58,338.369,196.274,337.176,193.006Zm-5.62,10.156c-.181,4.389-.367,8.892-.95,13.073-.491,3.527-.205,6.918-.922,10.465a26.733,26.733,0,0,1-.689,3.5c-1.007,2.2,1.578,1.87-2.351,2.067-5.163.258-10.824-.97-16.077-1.15-6.7-.229-13.315-.666-20.078-.682-1.559,0-3.074.08-4.568.217-3.271-.18-6.6.031-9.856.046-6.471.03-12.944.143-19.416.229-2.713.036-5.343.028-7.942.048a54.016,54.016,0,0,0-7.337-.538c-6.764.015-13.376.452-20.078.682-5.254.18-10.914,1.407-16.077,1.15-3.928-.2-1.344.133-2.351-2.067a26.383,26.383,0,0,1-.689-3.5c-.717-3.546-.429-6.937-.922-10.465-.583-4.181-.769-8.684-.95-13.073-.172-4.179-.633-9.019,4.372-10.152,2.39-.541,5.147.035,7.511.276,6.323.645,12.557-.815,18.855-1.189.462-.027.922-.065,1.383-.1,4.791.619,9.789.379,14.532.44,7.044.09,14.343.786,21.364.305,6.97-.477,13.8-.592,20.8-.78a21.271,21.271,0,0,0,4.413-.4c2.427.2,4.852.386,7.285.531,6.3.375,12.534,1.834,18.855,1.189,2.364-.241,5.121-.817,7.511-.276C332.189,194.143,331.727,198.983,331.556,203.162Z" transform="translate(-193.956 -186.253)" fill="#fff"/>
      </g>
    </g>
  </g>
</svg>
