<?xml version="1.0"?>
<svg xmlns="http://www.w3.org/2000/svg" id="outline_explan" enable-background="new 0 0 512 512" height="512" viewBox="0 0 512 512" width="512" class=""><g><path d="m504 184v-16c0-2.122-.843-4.157-2.343-5.657l-13.657-13.656v-3.388c0-16.586-9.437-31.458-24-38.64v-18.659h-16v18.661c-3.928 1.94-7.514 4.457-10.65 7.449-1.427-1.311-3.322-2.098-5.369-2.109-.478-16.06-9.798-30.349-23.981-37.342v-18.659h-16v18.658c-14.182 6.994-23.503 21.282-23.981 37.342h-.019v-24c0-4.418-3.582-8-8-8h-8.667c-1.843-10.943-7.404-20.641-15.333-27.746v-28.254h-16v18.743c-4.41-1.564-9.114-2.501-14.005-2.702-10.435-13.039-25.535-21.461-41.995-23.538v-16.503h-16v16.503c-16.46 2.077-31.56 10.499-41.995 23.538-2.037.084-4.041.296-6.005.627v-16.668h-16v22.443c-12.133 7.035-20.919 19.228-23.333 33.557h-8.667c-4.418 0-8 3.582-8 8v24h-.019c-.478-16.06-9.799-30.348-23.981-37.342v-18.658h-16v18.658c-14.182 6.994-23.503 21.282-23.981 37.342-2.047.011-3.942.799-5.369 2.109-3.136-2.992-6.722-5.509-10.65-7.449v-18.66h-16v18.658c-14.563 7.182-24 22.055-24 38.64v3.388l-13.657 13.657c-1.5 1.5-2.343 3.535-2.343 5.657v16c-4.418 0-8 3.582-8 8v312c0 4.418 3.582 8 8 8h496c4.418 0 8-3.582 8-8v-312c0-4.418-3.582-8-8-8zm-27.313-24 11.313 11.313v12.687h-33.441l-4.8-24zm-20.686-39.425c9.281 4.157 15.482 13.186 15.968 23.425h-26.471l-2.473-11.146c2.816-5.448 7.39-9.773 12.976-12.279zm-56.001-32c9.281 4.157 15.483 13.186 15.969 23.425h-31.938c.486-10.24 6.688-19.269 15.969-23.425zm25.517 39.425 12.424 56h-69.916l-.022-56zm-265.517-32h8c4.418 0 8-3.582 8-8 0-17.645 14.355-32 32-32 .54 0 1.076.014 1.609.04 2.769.133 5.385-1.156 6.96-3.42 8.986-12.912 23.726-20.62 39.431-20.62s30.445 7.708 39.431 20.62c1.576 2.264 4.208 3.55 6.96 3.42.533-.026 1.069-.04 1.609-.04 17.645 0 32 14.355 32 32 0 4.418 3.582 8 8 8h8v24.201c-5.337-6.018-11.868-11.079-19.378-14.834l-1.044-.522c-2.252-1.126-4.903-1.126-7.155 0l-1.044.522c-7.511 3.756-14.043 8.818-19.38 14.836-.167-27.795-16.907-52.382-42.743-62.717l-2.283-.914c-1.908-.763-4.036-.763-5.944 0l-2.282.914c-25.837 10.335-42.577 34.922-42.744 62.717-5.337-6.019-11.869-11.081-19.38-14.836l-1.044-.522c-2.252-1.126-4.903-1.126-7.155 0l-1.044.522c-7.51 3.755-14.042 8.816-19.378 14.834v-24.201zm192 66.61v21.39h-48v-21.39c0-17.334 9.125-33.011 24-41.572 14.875 8.561 24 24.237 24 41.572zm-64-41.988v63.378h-64v-63.378c0-21.139 12.534-39.898 32-48 19.465 8.102 32 26.861 32 48zm-128 41.988c0-17.334 9.125-33.011 24-41.572 14.875 8.561 24 24.237 24 41.572v21.39h-48zm-48-74.035c9.281 4.157 15.483 13.186 15.969 23.425h-31.938c.486-10.24 6.688-19.269 15.969-23.425zm-25.517 39.425h57.514l-.022 56h-69.916zm-30.484-7.425c5.586 2.506 10.16 6.831 12.976 12.279l-2.473 11.146h-26.471c.486-10.239 6.687-19.268 15.968-23.425zm-31.999 50.738 11.313-11.313h26.928l-4.8 24h-33.441zm-8 60.687h16v72h-16zm0 88h200.793c-4.653 4.556-8.538 9.949-11.405 16h-189.388zm32-16v-72h26.05c-6.437 8.296-10.05 18.591-10.05 29.407v42.593zm80-32v-10.593c0-10.817-3.613-21.111-10.05-29.407h26.05v72h-16v-16h-16v16h-32v-42.593c0-10.724 5.327-20.677 14.25-26.625l1.75-1.167 1.75 1.167c8.922 5.948 14.25 15.902 14.25 26.625v10.593zm32 32v-72h16v72zm32 0v-72h42.05c-6.437 8.296-10.05 18.591-10.05 29.407v42.593zm-16 192h-160v-16h160zm-136-32v-50.593c0-10.724 5.327-20.677 14.25-26.625l1.75-1.167 1.75 1.167c8.923 5.948 14.25 15.902 14.25 26.625v50.593zm80 0v-50.593c0-10.724 5.327-20.677 14.25-26.625l1.75-1.167 1.75 1.167c8.922 5.948 14.25 15.902 14.25 26.625v50.593zm56-88v88h-8v-50.593c0-16.085-7.99-31.016-21.375-39.938l-6.188-4.125c-2.687-1.792-6.188-1.792-8.875 0l-6.188 4.125c-13.384 8.923-21.374 23.853-21.374 39.938v50.593h-16v-50.593c0-16.085-7.99-31.016-21.375-39.938l-6.188-4.125c-2.687-1.792-6.188-1.792-8.875 0l-6.188 4.125c-13.384 8.923-21.374 23.853-21.374 39.938v50.593h-8v-112h167.954c-5.024 6.716-7.954 15.046-7.954 24zm144 120h-16v-95.969c0-17.716-7.934-34.224-21.768-45.291l-21.235-16.988c-2.922-2.337-7.073-2.337-9.995 0l-21.235 16.988c-13.833 11.068-21.767 27.575-21.767 45.291v23.969h16v-23.969c0-12.829 5.745-24.783 15.763-32.796l16.237-12.99 16.237 12.99c10.018 8.014 15.763 19.968 15.763 32.796v95.969h-64v-56h-16v56h-16v-120c0-11.734 8.377-21.683 19.92-23.655 2.887-.494 5.274-2.525 6.222-5.297.043-.126.087-.252.131-.378 0-.001.001-.003.002-.004 5.594-15.824 20.56-26.497 37.325-26.664.133-.001.267-.002.4-.002.134 0 .267.001.4.002 16.766.167 31.732 10.84 37.325 26.664 0 .001.001.003.001.004.044.126.088.251.131.378.948 2.771 3.334 4.803 6.222 5.297 11.544 1.972 19.921 11.921 19.921 23.655zm-80-192v-42.593c0-10.724 5.327-20.677 14.25-26.625l1.75-1.167 1.75 1.167c8.922 5.948 14.25 15.902 14.25 26.625v42.593zm37.95-72h42.05v72h-32v-42.593c0-10.816-3.613-21.111-10.05-29.407zm218.05 264h-160v-16h160zm-136-32v-50.593c0-10.724 5.327-20.677 14.25-26.625l1.75-1.167 1.75 1.167c8.922 5.948 14.25 15.902 14.25 26.625v50.593zm80 0v-50.593c0-10.724 5.327-20.677 14.25-26.625l1.75-1.167 1.75 1.167c8.922 5.948 14.25 15.902 14.25 26.625v50.593zm56-128h-64v16h64v112h-8v-50.593c0-16.085-7.99-31.016-21.375-39.938l-6.188-4.125c-2.687-1.792-6.188-1.792-8.875 0l-6.188 4.125c-13.384 8.923-21.374 23.853-21.374 39.938v50.593h-16v-50.593c0-16.085-7.99-31.016-21.375-39.938l-6.188-4.125c-2.687-1.792-6.188-1.792-8.875 0l-6.188 4.125c-13.384 8.923-21.374 23.853-21.374 39.938v50.593h-8v-88c0-8.954-2.93-17.284-7.954-24h87.954v-16h-109.388c-2.866-6.051-6.752-11.444-11.404-16h200.792zm-160-32v-72h16v72zm32 0v-72h26.05c-6.437 8.296-10.05 18.591-10.05 29.407v42.593zm32 0v-42.593c0-10.724 5.327-20.677 14.25-26.625l1.75-1.167 1.75 1.167c8.922 5.948 14.25 15.902 14.25 26.625v42.593zm37.95-72h26.05v72h-16v-42.593c0-10.816-3.613-21.111-10.05-29.407zm58.05 72h-16v-72h16zm0-88h-480v-16h480z" data-original="#000000" class="active-path" style="fill:#FFFFFF" data-old_color="#000000"/><path d="m192 80h8v16h-8z" data-original="#000000" class="active-path" style="fill:#FFFFFF" data-old_color="#000000"/><path d="m312 80h8v16h-8z" data-original="#000000" class="active-path" style="fill:#FFFFFF" data-old_color="#000000"/><path d="m104 144h16v24h-16z" data-original="#000000" class="active-path" style="fill:#FFFFFF" data-old_color="#000000"/><path d="m392 144h16v24h-16z" data-original="#000000" class="active-path" style="fill:#FFFFFF" data-old_color="#000000"/></g> </svg>
